<ttFont>
<head>
    <!-- Most of this table will be recalculated by the compiler -->
    <tableVersion value="1.0"/>
    <fontRevision value="1.0"/>
    <checkSumAdjustment value="0x8beecd25"/>
    <magicNumber value="0x5f0f3cf5"/>
    <flags value="00000000 00011011"/>
    <unitsPerEm value="1000"/>
    <created value="Sat Dec  6 13:43:39 2025"/>
    <modified value="Sat Dec  6 13:46:34 2025"/>
    <xMin value="-35"/>
    <yMin value="-250"/>
    <xMax value="1148"/>
    <yMax value="750"/>
    <macStyle value="00000000 00000010"/>
    <lowestRecPPEM value="6"/>
    <fontDirectionHint value="2"/>
    <indexToLocFormat value="0"/>
    <glyphDataFormat value="0"/>
  </head>
    <TTGlyph name="A" xMin="61" yMin="0" xMax="709" yMax="716">
      <contour>
        <pt x="530" y="696" on="1"/>
        <pt x="538" y="711" on="0"/>
        <pt x="553" y="716" on="0"/>
        <pt x="560" y="716" on="1"/>
        <pt x="572" y="716" on="0"/>
        <pt x="579" y="707" on="0"/>
        <pt x="580" y="693" on="1"/>
        <pt x="629" y="65" on="1"/>
        <pt x="630" y="55" on="0"/>
        <pt x="633" y="42" on="0"/>
        <pt x="644" y="34" on="0"/>
        <pt x="666" y="31" on="0"/>
        <pt x="686" y="31" on="1"/>
        <pt x="695" y="31" on="0"/>
        <pt x="709" y="28" on="0"/>
        <pt x="709" y="18" on="1"/>
        <pt x="709" y="4" on="0"/>
        <pt x="694" y="0" on="0"/>
        <pt x="691" y="0" on="1"/>
        <pt x="666" y="0" on="0"/>
        <pt x="612" y="3" on="0"/>
        <pt x="586" y="3" on="1"/>
        <pt x="558" y="3" on="0"/>
        <pt x="501" y="0" on="0"/>
        <pt x="474" y="0" on="1"/>
        <pt x="465" y="0" on="0"/>
        <pt x="459" y="9" on="0"/>
        <pt x="459" y="13" on="1"/>
        <pt x="459" y="27" on="0"/>
        <pt x="475" y="31" on="0"/>
        <pt x="485" y="31" on="1"/>
        <pt x="506" y="31" on="0"/>
        <pt x="531" y="39" on="0"/>
        <pt x="544" y="49" on="0"/>
        <pt x="548" y="59" on="0"/>
        <pt x="548" y="62" on="1"/>
        <pt x="535" y="232" on="1"/>
        <pt x="297" y="232" on="1"/>
        <pt x="287" y="214" on="0"/>
        <pt x="263" y="173" on="0"/>
        <pt x="241" y="135" on="0"/>
        <pt x="226" y="108" on="0"/>
        <pt x="224" y="105" on="1"/>
        <pt x="215" y="88" on="0"/>
        <pt x="209" y="73" on="0"/>
        <pt x="209" y="64" on="1"/>
        <pt x="209" y="34" on="0"/>
        <pt x="251" y="31" on="1"/>
        <pt x="253" y="31" on="0"/>
        <pt x="265" y="27" on="0"/>
        <pt x="265" y="18" on="1"/>
        <pt x="265" y="4" on="0"/>
        <pt x="250" y="0" on="0"/>
        <pt x="247" y="0" on="1"/>
        <pt x="225" y="0" on="0"/>
        <pt x="177" y="3" on="0"/>
        <pt x="154" y="3" on="1"/>
        <pt x="117" y="3" on="0"/>
        <pt x="76" y="0" on="0"/>
        <pt x="73" y="0" on="1"/>
        <pt x="61" y="0" on="0"/>
        <pt x="61" y="13" on="1"/>
        <pt x="61" y="25" on="0"/>
        <pt x="74" y="30" on="0"/>
        <pt x="82" y="31" on="1"/>
        <pt x="92" y="32" on="0"/>
        <pt x="118" y="37" on="0"/>
        <pt x="147" y="54" on="0"/>
        <pt x="179" y="88" on="0"/>
        <pt x="196" y="117" on="1"/>
      </contour>
      <contour>
        <pt x="533" y="263" on="1"/>
        <pt x="507" y="593" on="1"/>
        <pt x="316" y="263" on="1"/>
      </contour>
    </TTGlyph>
    <TTGlyph name="AE" xMin="61" yMin="0" xMax="968" yMax="683">
      <contour>
        <pt x="514" y="651" on="1"/>
        <pt x="508" y="652" on="0"/>
        <pt x="492" y="652" on="0"/>
        <pt x="486" y="652" on="1"/>
        <pt x="467" y="652" on="1"/>
        <pt x="455" y="652" on="0"/>
        <pt x="440" y="655" on="0"/>
        <pt x="440" y="665" on="1"/>
        <pt x="440" y="679" on="0"/>
        <pt x="455" y="683" on="0"/>
        <pt x="468" y="683" on="1"/>
        <pt x="942" y="683" on="1"/>
        <pt x="953" y="683" on="0"/>
        <pt x="968" y="680" on="0"/>
        <pt x="968" y="670" on="1"/>
        <pt x="967" y="655" on="1"/>
        <pt x="946" y="481" on="1"/>
        <pt x="944" y="469" on="0"/>
        <pt x="939" y="458" on="0"/>
        <pt x="928" y="458" on="1"/>
        <pt x="922" y="458" on="0"/>
        <pt x="911" y="462" on="0"/>
        <pt x="911" y="473" on="1"/>
        <pt x="911" y="474" on="0"/>
        <pt x="911" y="479" on="0"/>
        <pt x="912" y="487" on="1"/>
        <pt x="914" y="502" on="0"/>
        <pt x="918" y="541" on="0"/>
        <pt x="918" y="556" on="1"/>
        <pt x="918" y="579" on="0"/>
        <pt x="910" y="615" on="0"/>
        <pt x="885" y="639" on="0"/>
        <pt x="836" y="652" on="0"/>
        <pt x="795" y="652" on="1"/>
        <pt x="697" y="652" on="1"/>
        <pt x="685" y="652" on="0"/>
        <pt x="670" y="651" on="0"/>
        <pt x="660" y="644" on="0"/>
        <pt x="652" y="630" on="0"/>
        <pt x="649" y="616" on="1"/>
        <pt x="582" y="344" on="1"/>
        <pt x="663" y="344" on="1"/>
        <pt x="691" y="344" on="0"/>
        <pt x="729" y="352" on="0"/>
        <pt x="754" y="373" on="0"/>
        <pt x="771" y="408" on="0"/>
        <pt x="778" y="436" on="1"/>
        <pt x="783" y="452" on="0"/>
        <pt x="788" y="461" on="0"/>
        <pt x="799" y="461" on="1"/>
        <pt x="802" y="461" on="0"/>
        <pt x="816" y="458" on="0"/>
        <pt x="816" y="448" on="1"/>
        <pt x="816" y="446" on="0"/>
        <pt x="814" y="439" on="0"/>
        <pt x="813" y="435" on="1"/>
        <pt x="758" y="216" on="1"/>
        <pt x="755" y="204" on="0"/>
        <pt x="750" y="196" on="0"/>
        <pt x="739" y="196" on="1"/>
        <pt x="736" y="196" on="0"/>
        <pt x="723" y="199" on="0"/>
        <pt x="723" y="209" on="1"/>
        <pt x="723" y="215" on="0"/>
        <pt x="727" y="230" on="1"/>
        <pt x="728" y="234" on="0"/>
        <pt x="733" y="259" on="0"/>
        <pt x="733" y="272" on="1"/>
        <pt x="733" y="280" on="0"/>
        <pt x="731" y="295" on="0"/>
        <pt x="717" y="306" on="0"/>
        <pt x="688" y="313" on="0"/>
        <pt x="661" y="313" on="1"/>
        <pt x="574" y="313" on="1"/>
        <pt x="511" y="63" on="1"/>
        <pt x="508" y="52" on="0"/>
        <pt x="507" y="42" on="0"/>
        <pt x="507" y="34" on="1"/>
        <pt x="515" y="32" on="0"/>
        <pt x="523" y="31" on="0"/>
        <pt x="536" y="31" on="1"/>
        <pt x="635" y="31" on="1"/>
        <pt x="690" y="31" on="0"/>
        <pt x="762" y="56" on="0"/>
        <pt x="813" y="105" on="0"/>
        <pt x="851" y="180" on="0"/>
        <pt x="872" y="229" on="1"/>
        <pt x="880" y="246" on="0"/>
        <pt x="883" y="254" on="0"/>
        <pt x="885" y="255" on="1"/>
        <pt x="889" y="258" on="0"/>
        <pt x="897" y="258" on="1"/>
        <pt x="900" y="258" on="0"/>
        <pt x="914" y="255" on="0"/>
        <pt x="914" y="245" on="1"/>
        <pt x="914" y="244" on="0"/>
        <pt x="913" y="239" on="0"/>
        <pt x="908" y="229" on="1"/>
        <pt x="821" y="18" on="1"/>
        <pt x="816" y="4" on="0"/>
        <pt x="807" y="0" on="0"/>
        <pt x="790" y="0" on="1"/>
        <pt x="380" y="0" on="1"/>
        <pt x="368" y="0" on="0"/>
        <pt x="353" y="3" on="0"/>
        <pt x="353" y="13" on="1"/>
        <pt x="353" y="27" on="0"/>
        <pt x="367" y="31" on="0"/>
        <pt x="380" y="31" on="1"/>
        <pt x="397" y="31" on="0"/>
        <pt x="417" y="34" on="0"/>
        <pt x="429" y="43" on="0"/>
        <pt x="434" y="58" on="0"/>
        <pt x="437" y="69" on="1"/>
        <pt x="498" y="313" on="1"/>
        <pt x="349" y="313" on="1"/>
        <pt x="225" y="104" on="1"/>
        <pt x="220" y="95" on="0"/>
        <pt x="210" y="73" on="0"/>
        <pt x="210" y="63" on="1"/>
        <pt x="210" y="52" on="0"/>
        <pt x="220" y="40" on="0"/>
        <pt x="234" y="33" on="0"/>
        <pt x="247" y="31" on="0"/>
        <pt x="251" y="31" on="1"/>
        <pt x="253" y="31" on="0"/>
        <pt x="265" y="27" on="0"/>
        <pt x="265" y="18" on="1"/>
        <pt x="265" y="4" on="0"/>
        <pt x="250" y="0" on="0"/>
        <pt x="247" y="0" on="1"/>
        <pt x="225" y="0" on="0"/>
        <pt x="178" y="3" on="0"/>
        <pt x="155" y="3" on="1"/>
        <pt x="135" y="3" on="0"/>
        <pt x="93" y="0" on="0"/>
        <pt x="74" y="0" on="1"/>
        <pt x="66" y="0" on="0"/>
        <pt x="61" y="10" on="0"/>
        <pt x="61" y="13" on="1"/>
        <pt x="61" y="26" on="0"/>
        <pt x="74" y="30" on="0"/>
        <pt x="80" y="31" on="1"/>
        <pt x="95" y="32" on="0"/>
        <pt x="123" y="40" on="0"/>
        <pt x="152" y="58" on="0"/>
        <pt x="181" y="90" on="0"/>
        <pt x="196" y="115" on="1"/>
      </contour>
      <contour>
        <pt x="506" y="344" on="1"/>
        <pt x="573" y="614" on="1"/>
        <pt x="575" y="622" on="0"/>
        <pt x="575" y="629" on="1"/>
        <pt x="575" y="640" on="0"/>
        <pt x="566" y="645" on="0"/>
        <pt x="556" y="647" on="1"/>
        <pt x="555" y="648" on="0"/>
        <pt x="549" y="649" on="0"/>
        <pt x="548" y="649" on="1"/>
        <pt x="368" y="344" on="1"/>
      </contour>
    </TTGlyph>
    <TTGlyph name="B" xMin="69" yMin="0" xMax="750" yMax="683">
      <contour>
        <pt x="313" y="615" on="1"/>
        <pt x="316" y="626" on="0"/>
        <pt x="317" y="632" on="0"/>
        <pt x="317" y="635" on="1"/>
        <pt x="317" y="639" on="0"/>
        <pt x="315" y="645" on="0"/>
        <pt x="304" y="650" on="0"/>
        <pt x="281" y="652" on="0"/>
        <pt x="259" y="652" on="1"/>
        <pt x="247" y="652" on="0"/>
        <pt x="232" y="655" on="0"/>
        <pt x="232" y="665" on="1"/>
        <pt x="232" y="679" on="0"/>
        <pt x="247" y="683" on="0"/>
        <pt x="260" y="683" on="1"/>
        <pt x="576" y="683" on="1"/>
        <pt x="620" y="683" on="0"/>
        <pt x="685" y="660" on="0"/>
        <pt x="728" y="621" on="0"/>
        <pt x="750" y="573" on="0"/>
        <pt x="750" y="547" on="1"/>
        <pt x="750" y="516" on="0"/>
        <pt x="720" y="456" on="0"/>
        <pt x="668" y="405" on="0"/>
        <pt x="595" y="366" on="0"/>
        <pt x="551" y="357" on="1"/>
        <pt x="615" y="349" on="0"/>
        <pt x="694" y="275" on="0"/>
        <pt x="694" y="218" on="1"/>
        <pt x="694" y="179" on="0"/>
        <pt x="653" y="102" on="0"/>
        <pt x="581" y="39" on="0"/>
        <pt x="485" y="0" on="0"/>
        <pt x="431" y="0" on="1"/>
        <pt x="96" y="0" on="1"/>
        <pt x="84" y="0" on="0"/>
        <pt x="69" y="3" on="0"/>
        <pt x="69" y="13" on="1"/>
        <pt x="69" y="27" on="0"/>
        <pt x="84" y="31" on="0"/>
        <pt x="96" y="31" on="1"/>
        <pt x="121" y="31" on="0"/>
        <pt x="151" y="34" on="0"/>
        <pt x="167" y="43" on="0"/>
        <pt x="175" y="60" on="0"/>
        <pt x="178" y="73" on="1"/>
      </contour>
      <contour>
        <pt x="471" y="368" on="1"/>
        <pt x="509" y="368" on="0"/>
        <pt x="579" y="399" on="0"/>
        <pt x="632" y="450" on="0"/>
        <pt x="663" y="516" on="0"/>
        <pt x="663" y="551" on="1"/>
        <pt x="663" y="568" on="0"/>
        <pt x="654" y="603" on="0"/>
        <pt x="632" y="633" on="0"/>
        <pt x="592" y="652" on="0"/>
        <pt x="562" y="652" on="1"/>
        <pt x="436" y="652" on="1"/>
        <pt x="424" y="652" on="0"/>
        <pt x="409" y="651" on="0"/>
        <pt x="399" y="644" on="0"/>
        <pt x="391" y="630" on="0"/>
        <pt x="388" y="616" on="1"/>
        <pt x="327" y="368" on="1"/>
      </contour>
      <contour>
        <pt x="409" y="31" on="1"/>
        <pt x="451" y="31" on="0"/>
        <pt x="523" y="65" on="0"/>
        <pt x="576" y="121" on="0"/>
        <pt x="606" y="192" on="0"/>
        <pt x="606" y="229" on="1"/>
        <pt x="606" y="261" on="0"/>
        <pt x="588" y="304" on="0"/>
        <pt x="557" y="331" on="0"/>
        <pt x="516" y="343" on="0"/>
        <pt x="494" y="343" on="1"/>
        <pt x="320" y="343" on="1"/>
        <pt x="250" y="63" on="1"/>
        <pt x="247" y="52" on="0"/>
        <pt x="246" y="42" on="0"/>
        <pt x="246" y="34" on="1"/>
        <pt x="254" y="32" on="0"/>
        <pt x="262" y="31" on="0"/>
        <pt x="275" y="31" on="1"/>
      </contour>
    </TTGlyph>
    <TTGlyph name="C" xMin="151" yMin="-22" xMax="829" yMax="705">
      <contour>
        <pt x="766" y="438" on="1"/>
        <pt x="763" y="427" on="0"/>
        <pt x="758" y="419" on="0"/>
        <pt x="747" y="419" on="1"/>
        <pt x="742" y="419" on="0"/>
        <pt x="730" y="422" on="0"/>
        <pt x="730" y="431" on="1"/>
        <pt x="730" y="436" on="0"/>
        <pt x="734" y="461" on="0"/>
        <pt x="734" y="487" on="1"/>
        <pt x="734" y="526" on="0"/>
        <pt x="716" y="595" on="0"/>
        <pt x="679" y="645" on="0"/>
        <pt x="624" y="674" on="0"/>
        <pt x="586" y="674" on="1"/>
        <pt x="530" y="674" on="0"/>
        <pt x="404" y="611" on="0"/>
        <pt x="350" y="544" on="1"/>
        <pt x="318" y="504" on="0"/>
        <pt x="275" y="408" on="0"/>
        <pt x="249" y="316" on="0"/>
        <pt x="238" y="236" on="0"/>
        <pt x="238" y="211" on="1"/>
        <pt x="238" y="156" on="0"/>
        <pt x="269" y="79" on="0"/>
        <pt x="320" y="31" on="0"/>
        <pt x="383" y="9" on="0"/>
        <pt x="415" y="9" on="1"/>
        <pt x="441" y="9" on="0"/>
        <pt x="514" y="29" on="0"/>
        <pt x="591" y="82" on="0"/>
        <pt x="660" y="173" on="0"/>
        <pt x="682" y="243" on="1"/>
        <pt x="684" y="249" on="0"/>
        <pt x="694" y="251" on="0"/>
        <pt x="699" y="251" on="1"/>
        <pt x="704" y="251" on="0"/>
        <pt x="716" y="248" on="0"/>
        <pt x="716" y="239" on="1"/>
        <pt x="716" y="236" on="0"/>
        <pt x="710" y="215" on="0"/>
        <pt x="698" y="185" on="0"/>
        <pt x="679" y="149" on="0"/>
        <pt x="667" y="131" on="1"/>
        <pt x="615" y="56" on="0"/>
        <pt x="475" y="-22" on="0"/>
        <pt x="404" y="-22" on="1"/>
        <pt x="349" y="-22" on="0"/>
        <pt x="256" y="18" on="0"/>
        <pt x="188" y="89" on="0"/>
        <pt x="151" y="188" on="0"/>
        <pt x="151" y="247" on="1"/>
        <pt x="151" y="305" on="0"/>
        <pt x="185" y="418" on="0"/>
        <pt x="245" y="520" on="0"/>
        <pt x="327" y="607" on="0"/>
        <pt x="422" y="670" on="0"/>
        <pt x="526" y="705" on="0"/>
        <pt x="579" y="705" on="1"/>
        <pt x="598" y="705" on="0"/>
        <pt x="640" y="698" on="0"/>
        <pt x="681" y="678" on="0"/>
        <pt x="720" y="645" on="0"/>
        <pt x="736" y="618" on="1"/>
        <pt x="811" y="705" on="1"/>
        <pt x="816" y="705" on="0"/>
        <pt x="829" y="702" on="0"/>
        <pt x="829" y="694" on="1"/>
        <pt x="829" y="688" on="0"/>
        <pt x="827" y="680" on="1"/>
      </contour>
    </TTGlyph>
    <TTGlyph name="D" xMin="68" yMin="0" xMax="793" yMax="683">
      <contour>
        <pt x="312" y="615" on="1"/>
        <pt x="315" y="626" on="0"/>
        <pt x="316" y="632" on="0"/>
        <pt x="316" y="635" on="1"/>
        <pt x="316" y="639" on="0"/>
        <pt x="314" y="645" on="0"/>
        <pt x="303" y="650" on="0"/>
        <pt x="280" y="652" on="0"/>
        <pt x="258" y="652" on="1"/>
        <pt x="246" y="652" on="0"/>
        <pt x="231" y="655" on="0"/>
        <pt x="231" y="665" on="1"/>
        <pt x="231" y="679" on="0"/>
        <pt x="246" y="683" on="0"/>
        <pt x="259" y="683" on="1"/>
        <pt x="575" y="683" on="1"/>
        <pt x="628" y="683" on="0"/>
        <pt x="710" y="643" on="0"/>
        <pt x="765" y="575" on="0"/>
        <pt x="793" y="486" on="0"/>
        <pt x="793" y="436" on="1"/>
        <pt x="793" y="380" on="0"/>
        <pt x="763" y="272" on="0"/>
        <pt x="709" y="175" on="0"/>
        <pt x="635" y="93" on="0"/>
        <pt x="549" y="34" on="0"/>
        <pt x="454" y="0" on="0"/>
        <pt x="405" y="0" on="1"/>
        <pt x="95" y="0" on="1"/>
        <pt x="83" y="0" on="0"/>
        <pt x="68" y="3" on="0"/>
        <pt x="68" y="13" on="1"/>
        <pt x="68" y="27" on="0"/>
        <pt x="83" y="31" on="0"/>
        <pt x="95" y="31" on="1"/>
        <pt x="120" y="31" on="0"/>
        <pt x="150" y="34" on="0"/>
        <pt x="166" y="43" on="0"/>
        <pt x="174" y="60" on="0"/>
        <pt x="177" y="73" on="1"/>
      </contour>
      <contour>
        <pt x="252" y="63" on="1"/>
        <pt x="249" y="52" on="0"/>
        <pt x="248" y="42" on="0"/>
        <pt x="248" y="34" on="1"/>
        <pt x="256" y="32" on="0"/>
        <pt x="264" y="31" on="0"/>
        <pt x="277" y="31" on="1"/>
        <pt x="388" y="31" on="1"/>
        <pt x="457" y="31" on="0"/>
        <pt x="574" y="99" on="0"/>
        <pt x="614" y="154" on="1"/>
        <pt x="640" y="190" on="0"/>
        <pt x="677" y="284" on="0"/>
        <pt x="700" y="375" on="0"/>
        <pt x="711" y="452" on="0"/>
        <pt x="711" y="472" on="1"/>
        <pt x="711" y="558" on="0"/>
        <pt x="620" y="652" on="0"/>
        <pt x="543" y="652" on="1"/>
        <pt x="438" y="652" on="1"/>
        <pt x="426" y="652" on="0"/>
        <pt x="411" y="651" on="0"/>
        <pt x="401" y="644" on="0"/>
        <pt x="393" y="630" on="0"/>
        <pt x="390" y="616" on="1"/>
      </contour>
    </TTGlyph>
    <TTGlyph name="E" xMin="66" yMin="0" xMax="758" yMax="680">
      <contour>
        <pt x="611" y="18" on="1"/>
        <pt x="606" y="4" on="0"/>
        <pt x="597" y="0" on="0"/>
        <pt x="580" y="0" on="1"/>
        <pt x="93" y="0" on="1"/>
        <pt x="81" y="0" on="0"/>
        <pt x="66" y="3" on="0"/>
        <pt x="66" y="13" on="1"/>
        <pt x="66" y="27" on="0"/>
        <pt x="81" y="31" on="0"/>
        <pt x="93" y="31" on="1"/>
        <pt x="118" y="31" on="0"/>
        <pt x="148" y="34" on="0"/>
        <pt x="164" y="43" on="0"/>
        <pt x="172" y="60" on="0"/>
        <pt x="175" y="73" on="1"/>
        <pt x="309" y="611" on="1"/>
        <pt x="312" y="622" on="0"/>
        <pt x="313" y="629" on="0"/>
        <pt x="313" y="632" on="1"/>
        <pt x="313" y="636" on="0"/>
        <pt x="311" y="642" on="0"/>
        <pt x="300" y="647" on="0"/>
        <pt x="277" y="649" on="0"/>
        <pt x="255" y="649" on="1"/>
        <pt x="243" y="649" on="0"/>
        <pt x="229" y="652" on="0"/>
        <pt x="229" y="662" on="1"/>
        <pt x="229" y="676" on="0"/>
        <pt x="245" y="680" on="0"/>
        <pt x="257" y="680" on="1"/>
        <pt x="731" y="680" on="1"/>
        <pt x="743" y="680" on="0"/>
        <pt x="758" y="677" on="0"/>
        <pt x="758" y="666" on="1"/>
        <pt x="735" y="478" on="1"/>
        <pt x="733" y="465" on="0"/>
        <pt x="728" y="455" on="0"/>
        <pt x="717" y="455" on="1"/>
        <pt x="712" y="455" on="0"/>
        <pt x="700" y="459" on="0"/>
        <pt x="700" y="470" on="1"/>
        <pt x="700" y="473" on="0"/>
        <pt x="702" y="488" on="0"/>
        <pt x="703" y="491" on="1"/>
        <pt x="705" y="511" on="0"/>
        <pt x="706" y="543" on="0"/>
        <pt x="706" y="545" on="1"/>
        <pt x="706" y="570" on="0"/>
        <pt x="698" y="609" on="0"/>
        <pt x="669" y="635" on="0"/>
        <pt x="616" y="649" on="0"/>
        <pt x="571" y="649" on="1"/>
        <pt x="439" y="649" on="1"/>
        <pt x="427" y="649" on="0"/>
        <pt x="411" y="648" on="0"/>
        <pt x="401" y="642" on="0"/>
        <pt x="394" y="628" on="0"/>
        <pt x="391" y="615" on="1"/>
        <pt x="330" y="369" on="1"/>
        <pt x="416" y="369" on="1"/>
        <pt x="446" y="369" on="0"/>
        <pt x="486" y="378" on="0"/>
        <pt x="512" y="399" on="0"/>
        <pt x="529" y="436" on="0"/>
        <pt x="536" y="464" on="1"/>
        <pt x="540" y="478" on="0"/>
        <pt x="545" y="486" on="0"/>
        <pt x="556" y="486" on="1"/>
        <pt x="559" y="486" on="0"/>
        <pt x="573" y="483" on="0"/>
        <pt x="573" y="473" on="1"/>
        <pt x="573" y="471" on="0"/>
        <pt x="572" y="466" on="0"/>
        <pt x="569" y="455" on="1"/>
        <pt x="516" y="241" on="1"/>
        <pt x="512" y="227" on="0"/>
        <pt x="504" y="221" on="0"/>
        <pt x="496" y="221" on="1"/>
        <pt x="493" y="221" on="0"/>
        <pt x="480" y="224" on="0"/>
        <pt x="480" y="234" on="1"/>
        <pt x="480" y="236" on="0"/>
        <pt x="482" y="247" on="0"/>
        <pt x="484" y="252" on="1"/>
        <pt x="489" y="270" on="0"/>
        <pt x="490" y="291" on="0"/>
        <pt x="490" y="296" on="1"/>
        <pt x="490" y="306" on="0"/>
        <pt x="486" y="321" on="0"/>
        <pt x="470" y="332" on="0"/>
        <pt x="440" y="338" on="0"/>
        <pt x="414" y="338" on="1"/>
        <pt x="322" y="338" on="1"/>
        <pt x="253" y="63" on="1"/>
        <pt x="250" y="52" on="0"/>
        <pt x="249" y="42" on="0"/>
        <pt x="249" y="34" on="1"/>
        <pt x="257" y="32" on="0"/>
        <pt x="265" y="31" on="0"/>
        <pt x="278" y="31" on="1"/>
        <pt x="409" y="31" on="1"/>
        <pt x="468" y="31" on="0"/>
        <pt x="545" y="54" on="0"/>
        <pt x="600" y="102" on="0"/>
        <pt x="640" y="177" on="0"/>
        <pt x="662" y="228" on="1"/>
        <pt x="670" y="246" on="0"/>
        <pt x="673" y="254" on="0"/>
        <pt x="675" y="255" on="1"/>
        <pt x="679" y="258" on="0"/>
        <pt x="687" y="258" on="1"/>
        <pt x="690" y="258" on="0"/>
        <pt x="704" y="255" on="0"/>
        <pt x="704" y="245" on="1"/>
        <pt x="704" y="244" on="0"/>
        <pt x="703" y="239" on="0"/>
        <pt x="698" y="229" on="1"/>
      </contour>
    </TTGlyph>
    <TTGlyph name="F" xMin="66" yMin="0" xMax="745" yMax="680">
      <contour>
        <pt x="256" y="74" on="1"/>
        <pt x="253" y="63" on="0"/>
        <pt x="252" y="56" on="0"/>
        <pt x="252" y="52" on="1"/>
        <pt x="252" y="47" on="0"/>
        <pt x="254" y="39" on="0"/>
        <pt x="268" y="34" on="0"/>
        <pt x="297" y="31" on="0"/>
        <pt x="324" y="31" on="1"/>
        <pt x="332" y="31" on="1"/>
        <pt x="344" y="31" on="0"/>
        <pt x="359" y="28" on="0"/>
        <pt x="359" y="18" on="1"/>
        <pt x="359" y="4" on="0"/>
        <pt x="344" y="0" on="0"/>
        <pt x="339" y="0" on="1"/>
        <pt x="306" y="0" on="0"/>
        <pt x="237" y="3" on="0"/>
        <pt x="203" y="3" on="1"/>
        <pt x="173" y="3" on="0"/>
        <pt x="110" y="0" on="0"/>
        <pt x="81" y="0" on="1"/>
        <pt x="75" y="0" on="0"/>
        <pt x="66" y="6" on="0"/>
        <pt x="66" y="13" on="1"/>
        <pt x="66" y="27" on="0"/>
        <pt x="81" y="31" on="0"/>
        <pt x="93" y="31" on="1"/>
        <pt x="118" y="31" on="0"/>
        <pt x="148" y="34" on="0"/>
        <pt x="164" y="43" on="0"/>
        <pt x="172" y="60" on="0"/>
        <pt x="175" y="73" on="1"/>
        <pt x="309" y="611" on="1"/>
        <pt x="312" y="622" on="0"/>
        <pt x="313" y="629" on="0"/>
        <pt x="313" y="632" on="1"/>
        <pt x="313" y="636" on="0"/>
        <pt x="311" y="642" on="0"/>
        <pt x="300" y="647" on="0"/>
        <pt x="277" y="649" on="0"/>
        <pt x="255" y="649" on="1"/>
        <pt x="243" y="649" on="0"/>
        <pt x="229" y="652" on="0"/>
        <pt x="229" y="662" on="1"/>
        <pt x="229" y="676" on="0"/>
        <pt x="245" y="680" on="0"/>
        <pt x="257" y="680" on="1"/>
        <pt x="718" y="680" on="1"/>
        <pt x="730" y="680" on="0"/>
        <pt x="745" y="677" on="0"/>
        <pt x="745" y="666" on="1"/>
        <pt x="722" y="478" on="1"/>
        <pt x="720" y="465" on="0"/>
        <pt x="715" y="455" on="0"/>
        <pt x="704" y="455" on="1"/>
        <pt x="699" y="455" on="0"/>
        <pt x="687" y="459" on="0"/>
        <pt x="687" y="470" on="1"/>
        <pt x="688" y="482" on="1"/>
        <pt x="692" y="507" on="0"/>
        <pt x="693" y="541" on="0"/>
        <pt x="693" y="546" on="1"/>
        <pt x="693" y="569" on="0"/>
        <pt x="686" y="607" on="0"/>
        <pt x="660" y="634" on="0"/>
        <pt x="608" y="649" on="0"/>
        <pt x="563" y="649" on="1"/>
        <pt x="439" y="649" on="1"/>
        <pt x="427" y="649" on="0"/>
        <pt x="411" y="648" on="0"/>
        <pt x="401" y="642" on="0"/>
        <pt x="394" y="628" on="0"/>
        <pt x="391" y="615" on="1"/>
        <pt x="327" y="356" on="1"/>
        <pt x="410" y="356" on="1"/>
        <pt x="438" y="356" on="0"/>
        <pt x="477" y="364" on="0"/>
        <pt x="503" y="385" on="0"/>
        <pt x="520" y="421" on="0"/>
        <pt x="527" y="448" on="1"/>
        <pt x="532" y="464" on="0"/>
        <pt x="537" y="473" on="0"/>
        <pt x="548" y="473" on="1"/>
        <pt x="551" y="473" on="0"/>
        <pt x="565" y="470" on="0"/>
        <pt x="565" y="460" on="1"/>
        <pt x="565" y="458" on="0"/>
        <pt x="563" y="451" on="0"/>
        <pt x="562" y="447" on="1"/>
        <pt x="507" y="228" on="1"/>
        <pt x="504" y="216" on="0"/>
        <pt x="499" y="208" on="0"/>
        <pt x="488" y="208" on="1"/>
        <pt x="485" y="208" on="0"/>
        <pt x="472" y="211" on="0"/>
        <pt x="472" y="221" on="1"/>
        <pt x="472" y="223" on="0"/>
        <pt x="474" y="233" on="0"/>
        <pt x="475" y="236" on="1"/>
        <pt x="477" y="247" on="0"/>
        <pt x="482" y="272" on="0"/>
        <pt x="482" y="283" on="1"/>
        <pt x="482" y="293" on="0"/>
        <pt x="478" y="308" on="0"/>
        <pt x="463" y="319" on="0"/>
        <pt x="434" y="325" on="0"/>
        <pt x="408" y="325" on="1"/>
        <pt x="319" y="325" on="1"/>
      </contour>
    </TTGlyph>
    <TTGlyph name="G" xMin="151" yMin="-22" xMax="828" yMax="705">
      <contour>
        <pt x="765" y="438" on="1"/>
        <pt x="762" y="427" on="0"/>
        <pt x="757" y="419" on="0"/>
        <pt x="746" y="419" on="1"/>
        <pt x="741" y="419" on="0"/>
        <pt x="729" y="422" on="0"/>
        <pt x="729" y="431" on="1"/>
        <pt x="729" y="436" on="0"/>
        <pt x="733" y="461" on="0"/>
        <pt x="733" y="487" on="1"/>
        <pt x="733" y="526" on="0"/>
        <pt x="715" y="594" on="0"/>
        <pt x="679" y="645" on="0"/>
        <pt x="623" y="674" on="0"/>
        <pt x="585" y="674" on="1"/>
        <pt x="566" y="674" on="0"/>
        <pt x="514" y="664" on="0"/>
        <pt x="455" y="638" on="0"/>
        <pt x="392" y="593" on="0"/>
        <pt x="361" y="557" on="1"/>
        <pt x="325" y="516" on="0"/>
        <pt x="278" y="415" on="0"/>
        <pt x="249" y="318" on="0"/>
        <pt x="238" y="235" on="0"/>
        <pt x="238" y="212" on="1"/>
        <pt x="238" y="160" on="0"/>
        <pt x="268" y="83" on="0"/>
        <pt x="318" y="33" on="0"/>
        <pt x="384" y="9" on="0"/>
        <pt x="419" y="9" on="1"/>
        <pt x="438" y="9" on="0"/>
        <pt x="494" y="19" on="0"/>
        <pt x="550" y="45" on="0"/>
        <pt x="597" y="92" on="0"/>
        <pt x="606" y="128" on="1"/>
        <pt x="608" y="134" on="0"/>
        <pt x="615" y="162" on="0"/>
        <pt x="623" y="193" on="0"/>
        <pt x="629" y="220" on="0"/>
        <pt x="629" y="223" on="1"/>
        <pt x="629" y="233" on="0"/>
        <pt x="619" y="239" on="0"/>
        <pt x="600" y="241" on="1"/>
        <pt x="586" y="243" on="0"/>
        <pt x="569" y="243" on="0"/>
        <pt x="557" y="243" on="1"/>
        <pt x="548" y="243" on="1"/>
        <pt x="536" y="243" on="0"/>
        <pt x="521" y="246" on="0"/>
        <pt x="521" y="256" on="1"/>
        <pt x="521" y="270" on="0"/>
        <pt x="536" y="274" on="0"/>
        <pt x="541" y="274" on="1"/>
        <pt x="573" y="274" on="0"/>
        <pt x="639" y="271" on="0"/>
        <pt x="671" y="271" on="1"/>
        <pt x="696" y="271" on="0"/>
        <pt x="748" y="274" on="0"/>
        <pt x="772" y="274" on="1"/>
        <pt x="780" y="274" on="0"/>
        <pt x="786" y="266" on="0"/>
        <pt x="786" y="261" on="1"/>
        <pt x="786" y="254" on="0"/>
        <pt x="778" y="243" on="0"/>
        <pt x="770" y="243" on="1"/>
        <pt x="743" y="242" on="0"/>
        <pt x="718" y="238" on="0"/>
        <pt x="713" y="224" on="1"/>
        <pt x="711" y="219" on="0"/>
        <pt x="703" y="191" on="0"/>
        <pt x="695" y="157" on="0"/>
        <pt x="687" y="124" on="0"/>
        <pt x="684" y="114" on="1"/>
        <pt x="679" y="91" on="0"/>
        <pt x="669" y="51" on="0"/>
        <pt x="662" y="24" on="1"/>
        <pt x="658" y="11" on="0"/>
        <pt x="654" y="1" on="0"/>
        <pt x="647" y="1" on="1"/>
        <pt x="642" y="1" on="0"/>
        <pt x="630" y="14" on="0"/>
        <pt x="619" y="32" on="0"/>
        <pt x="610" y="51" on="0"/>
        <pt x="608" y="58" on="1"/>
        <pt x="587" y="35" on="0"/>
        <pt x="534" y="4" on="0"/>
        <pt x="480" y="-14" on="0"/>
        <pt x="427" y="-22" on="0"/>
        <pt x="405" y="-22" on="1"/>
        <pt x="348" y="-22" on="0"/>
        <pt x="254" y="19" on="0"/>
        <pt x="187" y="91" on="0"/>
        <pt x="151" y="189" on="0"/>
        <pt x="151" y="247" on="1"/>
        <pt x="151" y="305" on="0"/>
        <pt x="185" y="418" on="0"/>
        <pt x="244" y="520" on="0"/>
        <pt x="326" y="606" on="0"/>
        <pt x="421" y="669" on="0"/>
        <pt x="526" y="705" on="0"/>
        <pt x="579" y="705" on="1"/>
        <pt x="628" y="705" on="0"/>
        <pt x="708" y="663" on="0"/>
        <pt x="735" y="618" on="1"/>
        <pt x="810" y="705" on="1"/>
        <pt x="815" y="705" on="0"/>
        <pt x="828" y="702" on="0"/>
        <pt x="828" y="694" on="1"/>
        <pt x="828" y="687" on="0"/>
        <pt x="826" y="681" on="1"/>
      </contour>
    </TTGlyph>
    <TTGlyph name="Gamma" xMin="66" yMin="0" xMax="719" yMax="680">
      <contour>
        <pt x="256" y="74" on="1"/>
        <pt x="253" y="63" on="0"/>
        <pt x="252" y="56" on="0"/>
        <pt x="252" y="52" on="1"/>
        <pt x="252" y="47" on="0"/>
        <pt x="254" y="39" on="0"/>
        <pt x="268" y="34" on="0"/>
        <pt x="297" y="31" on="0"/>
        <pt x="324" y="31" on="1"/>
        <pt x="332" y="31" on="1"/>
        <pt x="344" y="31" on="0"/>
        <pt x="359" y="28" on="0"/>
        <pt x="359" y="18" on="1"/>
        <pt x="359" y="4" on="0"/>
        <pt x="344" y="0" on="0"/>
        <pt x="339" y="0" on="1"/>
        <pt x="306" y="0" on="0"/>
        <pt x="237" y="3" on="0"/>
        <pt x="203" y="3" on="1"/>
        <pt x="173" y="3" on="0"/>
        <pt x="110" y="0" on="0"/>
        <pt x="81" y="0" on="1"/>
        <pt x="75" y="0" on="0"/>
        <pt x="66" y="6" on="0"/>
        <pt x="66" y="13" on="1"/>
        <pt x="66" y="27" on="0"/>
        <pt x="81" y="31" on="0"/>
        <pt x="93" y="31" on="1"/>
        <pt x="118" y="31" on="0"/>
        <pt x="148" y="34" on="0"/>
        <pt x="164" y="43" on="0"/>
        <pt x="172" y="60" on="0"/>
        <pt x="175" y="73" on="1"/>
        <pt x="309" y="611" on="1"/>
        <pt x="312" y="622" on="0"/>
        <pt x="313" y="629" on="0"/>
        <pt x="313" y="632" on="1"/>
        <pt x="313" y="636" on="0"/>
        <pt x="311" y="642" on="0"/>
        <pt x="300" y="647" on="0"/>
        <pt x="277" y="649" on="0"/>
        <pt x="255" y="649" on="1"/>
        <pt x="243" y="649" on="0"/>
        <pt x="229" y="652" on="0"/>
        <pt x="229" y="662" on="1"/>
        <pt x="229" y="676" on="0"/>
        <pt x="245" y="680" on="0"/>
        <pt x="257" y="680" on="1"/>
        <pt x="692" y="680" on="1"/>
        <pt x="704" y="680" on="0"/>
        <pt x="719" y="677" on="0"/>
        <pt x="719" y="666" on="1"/>
        <pt x="696" y="478" on="1"/>
        <pt x="694" y="465" on="0"/>
        <pt x="689" y="455" on="0"/>
        <pt x="678" y="455" on="1"/>
        <pt x="673" y="455" on="0"/>
        <pt x="661" y="459" on="0"/>
        <pt x="661" y="470" on="1"/>
        <pt x="662" y="482" on="1"/>
        <pt x="668" y="517" on="0"/>
        <pt x="668" y="551" on="1"/>
        <pt x="668" y="575" on="0"/>
        <pt x="659" y="612" on="0"/>
        <pt x="633" y="636" on="0"/>
        <pt x="584" y="649" on="0"/>
        <pt x="543" y="649" on="1"/>
        <pt x="439" y="649" on="1"/>
        <pt x="427" y="649" on="0"/>
        <pt x="411" y="648" on="0"/>
        <pt x="401" y="642" on="0"/>
        <pt x="394" y="628" on="0"/>
        <pt x="391" y="615" on="1"/>
      </contour>
    </TTGlyph>
    <TTGlyph name="H" xMin="66" yMin="0" xMax="866" yMax="683">
      <contour>
        <pt x="623" y="72" on="1"/>
        <pt x="621" y="66" on="0"/>
        <pt x="619" y="54" on="0"/>
        <pt x="619" y="48" on="1"/>
        <pt x="619" y="44" on="0"/>
        <pt x="621" y="38" on="0"/>
        <pt x="632" y="33" on="0"/>
        <pt x="655" y="31" on="0"/>
        <pt x="677" y="31" on="1"/>
        <pt x="689" y="31" on="0"/>
        <pt x="703" y="28" on="0"/>
        <pt x="703" y="18" on="1"/>
        <pt x="703" y="4" on="0"/>
        <pt x="688" y="0" on="0"/>
        <pt x="684" y="0" on="1"/>
        <pt x="655" y="0" on="0"/>
        <pt x="595" y="3" on="0"/>
        <pt x="566" y="3" on="1"/>
        <pt x="537" y="3" on="0"/>
        <pt x="478" y="0" on="0"/>
        <pt x="449" y="0" on="1"/>
        <pt x="443" y="0" on="0"/>
        <pt x="434" y="6" on="0"/>
        <pt x="434" y="13" on="1"/>
        <pt x="434" y="27" on="0"/>
        <pt x="449" y="31" on="0"/>
        <pt x="461" y="31" on="1"/>
        <pt x="486" y="31" on="0"/>
        <pt x="516" y="34" on="0"/>
        <pt x="532" y="43" on="0"/>
        <pt x="540" y="60" on="0"/>
        <pt x="543" y="73" on="1"/>
        <pt x="609" y="340" on="1"/>
        <pt x="322" y="340" on="1"/>
        <pt x="255" y="69" on="1"/>
        <pt x="252" y="58" on="0"/>
        <pt x="251" y="51" on="0"/>
        <pt x="251" y="48" on="1"/>
        <pt x="251" y="44" on="0"/>
        <pt x="253" y="38" on="0"/>
        <pt x="264" y="33" on="0"/>
        <pt x="287" y="31" on="0"/>
        <pt x="309" y="31" on="1"/>
        <pt x="321" y="31" on="0"/>
        <pt x="335" y="28" on="0"/>
        <pt x="335" y="18" on="1"/>
        <pt x="335" y="4" on="0"/>
        <pt x="320" y="0" on="0"/>
        <pt x="316" y="0" on="1"/>
        <pt x="287" y="0" on="0"/>
        <pt x="227" y="3" on="0"/>
        <pt x="198" y="3" on="1"/>
        <pt x="169" y="3" on="0"/>
        <pt x="110" y="0" on="0"/>
        <pt x="81" y="0" on="1"/>
        <pt x="75" y="0" on="0"/>
        <pt x="66" y="6" on="0"/>
        <pt x="66" y="13" on="1"/>
        <pt x="66" y="27" on="0"/>
        <pt x="81" y="31" on="0"/>
        <pt x="93" y="31" on="1"/>
        <pt x="118" y="31" on="0"/>
        <pt x="148" y="34" on="0"/>
        <pt x="164" y="43" on="0"/>
        <pt x="172" y="60" on="0"/>
        <pt x="175" y="73" on="1"/>
        <pt x="310" y="615" on="1"/>
        <pt x="313" y="626" on="0"/>
        <pt x="314" y="632" on="0"/>
        <pt x="314" y="635" on="1"/>
        <pt x="314" y="639" on="0"/>
        <pt x="312" y="645" on="0"/>
        <pt x="301" y="650" on="0"/>
        <pt x="278" y="652" on="0"/>
        <pt x="256" y="652" on="1"/>
        <pt x="244" y="652" on="0"/>
        <pt x="229" y="655" on="0"/>
        <pt x="229" y="665" on="1"/>
        <pt x="229" y="679" on="0"/>
        <pt x="243" y="683" on="0"/>
        <pt x="248" y="683" on="1"/>
        <pt x="277" y="683" on="0"/>
        <pt x="338" y="680" on="0"/>
        <pt x="367" y="680" on="1"/>
        <pt x="396" y="680" on="0"/>
        <pt x="455" y="683" on="0"/>
        <pt x="484" y="683" on="1"/>
        <pt x="494" y="683" on="0"/>
        <pt x="498" y="672" on="0"/>
        <pt x="498" y="670" on="1"/>
        <pt x="498" y="656" on="0"/>
        <pt x="483" y="652" on="0"/>
        <pt x="469" y="652" on="1"/>
        <pt x="445" y="652" on="0"/>
        <pt x="416" y="648" on="0"/>
        <pt x="400" y="639" on="0"/>
        <pt x="393" y="623" on="0"/>
        <pt x="390" y="611" on="1"/>
        <pt x="330" y="371" on="1"/>
        <pt x="617" y="371" on="1"/>
        <pt x="678" y="615" on="1"/>
        <pt x="681" y="626" on="0"/>
        <pt x="682" y="632" on="0"/>
        <pt x="682" y="635" on="1"/>
        <pt x="682" y="639" on="0"/>
        <pt x="680" y="645" on="0"/>
        <pt x="669" y="650" on="0"/>
        <pt x="646" y="652" on="0"/>
        <pt x="624" y="652" on="1"/>
        <pt x="612" y="652" on="0"/>
        <pt x="597" y="655" on="0"/>
        <pt x="597" y="665" on="1"/>
        <pt x="597" y="679" on="0"/>
        <pt x="611" y="683" on="0"/>
        <pt x="616" y="683" on="1"/>
        <pt x="645" y="683" on="0"/>
        <pt x="706" y="680" on="0"/>
        <pt x="735" y="680" on="1"/>
        <pt x="764" y="680" on="0"/>
        <pt x="823" y="683" on="0"/>
        <pt x="852" y="683" on="1"/>
        <pt x="862" y="683" on="0"/>
        <pt x="866" y="672" on="0"/>
        <pt x="866" y="670" on="1"/>
        <pt x="866" y="656" on="0"/>
        <pt x="851" y="652" on="0"/>
        <pt x="838" y="652" on="1"/>
        <pt x="813" y="652" on="0"/>
        <pt x="784" y="648" on="0"/>
        <pt x="768" y="639" on="0"/>
        <pt x="760" y="622" on="0"/>
        <pt x="757" y="608" on="1"/>
      </contour>
    </TTGlyph>
    <TTGlyph name="I" xMin="63" yMin="0" xMax="504" yMax="683">
      <contour>
        <pt x="256" y="69" on="1"/>
        <pt x="253" y="58" on="0"/>
        <pt x="252" y="52" on="0"/>
        <pt x="252" y="49" on="1"/>
        <pt x="252" y="45" on="0"/>
        <pt x="254" y="38" on="0"/>
        <pt x="266" y="34" on="0"/>
        <pt x="291" y="31" on="0"/>
        <pt x="314" y="31" on="1"/>
        <pt x="326" y="31" on="0"/>
        <pt x="341" y="28" on="0"/>
        <pt x="341" y="18" on="1"/>
        <pt x="341" y="4" on="0"/>
        <pt x="327" y="0" on="0"/>
        <pt x="322" y="0" on="1"/>
        <pt x="292" y="0" on="0"/>
        <pt x="230" y="3" on="0"/>
        <pt x="199" y="3" on="1"/>
        <pt x="169" y="3" on="0"/>
        <pt x="106" y="0" on="0"/>
        <pt x="77" y="0" on="1"/>
        <pt x="67" y="0" on="0"/>
        <pt x="63" y="11" on="0"/>
        <pt x="63" y="13" on="1"/>
        <pt x="63" y="27" on="0"/>
        <pt x="78" y="31" on="0"/>
        <pt x="95" y="31" on="1"/>
        <pt x="120" y="31" on="0"/>
        <pt x="149" y="35" on="0"/>
        <pt x="166" y="44" on="0"/>
        <pt x="173" y="61" on="0"/>
        <pt x="176" y="73" on="1"/>
        <pt x="311" y="613" on="1"/>
        <pt x="314" y="624" on="0"/>
        <pt x="315" y="634" on="0"/>
        <pt x="315" y="635" on="1"/>
        <pt x="315" y="648" on="0"/>
        <pt x="278" y="652" on="0"/>
        <pt x="252" y="652" on="1"/>
        <pt x="240" y="652" on="0"/>
        <pt x="226" y="655" on="0"/>
        <pt x="226" y="665" on="1"/>
        <pt x="226" y="679" on="0"/>
        <pt x="241" y="683" on="0"/>
        <pt x="245" y="683" on="1"/>
        <pt x="275" y="683" on="0"/>
        <pt x="337" y="680" on="0"/>
        <pt x="368" y="680" on="1"/>
        <pt x="398" y="680" on="0"/>
        <pt x="460" y="683" on="0"/>
        <pt x="489" y="683" on="1"/>
        <pt x="495" y="683" on="0"/>
        <pt x="504" y="677" on="0"/>
        <pt x="504" y="670" on="1"/>
        <pt x="504" y="656" on="0"/>
        <pt x="489" y="652" on="0"/>
        <pt x="475" y="652" on="1"/>
        <pt x="448" y="652" on="0"/>
        <pt x="417" y="648" on="0"/>
        <pt x="401" y="638" on="0"/>
        <pt x="394" y="622" on="0"/>
        <pt x="391" y="610" on="1"/>
      </contour>
    </TTGlyph>
    <TTGlyph name="J" xMin="103" yMin="-22" xMax="631" yMax="683">
      <contour>
        <pt x="428" y="139" on="1"/>
        <pt x="420" y="106" on="0"/>
        <pt x="380" y="48" on="0"/>
        <pt x="324" y="4" on="0"/>
        <pt x="258" y="-22" on="0"/>
        <pt x="223" y="-22" on="1"/>
        <pt x="171" y="-22" on="0"/>
        <pt x="103" y="38" on="0"/>
        <pt x="103" y="86" on="1"/>
        <pt x="103" y="113" on="0"/>
        <pt x="119" y="142" on="0"/>
        <pt x="139" y="157" on="0"/>
        <pt x="158" y="160" on="0"/>
        <pt x="161" y="160" on="1"/>
        <pt x="175" y="160" on="0"/>
        <pt x="200" y="142" on="0"/>
        <pt x="200" y="123" on="1"/>
        <pt x="200" y="122" on="0"/>
        <pt x="197" y="104" on="0"/>
        <pt x="185" y="84" on="0"/>
        <pt x="160" y="68" on="0"/>
        <pt x="138" y="68" on="1"/>
        <pt x="142" y="49" on="0"/>
        <pt x="160" y="24" on="0"/>
        <pt x="183" y="9" on="0"/>
        <pt x="209" y="3" on="0"/>
        <pt x="221" y="3" on="1"/>
        <pt x="242" y="3" on="0"/>
        <pt x="283" y="27" on="0"/>
        <pt x="318" y="67" on="0"/>
        <pt x="345" y="118" on="0"/>
        <pt x="352" y="145" on="1"/>
        <pt x="468" y="611" on="1"/>
        <pt x="471" y="622" on="0"/>
        <pt x="472" y="628" on="0"/>
        <pt x="472" y="631" on="1"/>
        <pt x="472" y="641" on="0"/>
        <pt x="463" y="648" on="0"/>
        <pt x="443" y="650" on="1"/>
        <pt x="428" y="652" on="0"/>
        <pt x="411" y="652" on="0"/>
        <pt x="397" y="652" on="1"/>
        <pt x="387" y="652" on="1"/>
        <pt x="375" y="652" on="0"/>
        <pt x="360" y="655" on="0"/>
        <pt x="360" y="665" on="1"/>
        <pt x="360" y="679" on="0"/>
        <pt x="375" y="683" on="0"/>
        <pt x="380" y="683" on="1"/>
        <pt x="412" y="683" on="0"/>
        <pt x="480" y="680" on="0"/>
        <pt x="513" y="680" on="1"/>
        <pt x="539" y="680" on="0"/>
        <pt x="592" y="683" on="0"/>
        <pt x="617" y="683" on="1"/>
        <pt x="631" y="683" on="0"/>
        <pt x="631" y="670" on="1"/>
        <pt x="631" y="656" on="0"/>
        <pt x="617" y="652" on="0"/>
        <pt x="606" y="652" on="1"/>
        <pt x="589" y="652" on="0"/>
        <pt x="568" y="649" on="0"/>
        <pt x="556" y="640" on="0"/>
        <pt x="549" y="624" on="0"/>
        <pt x="546" y="612" on="1"/>
      </contour>
    </TTGlyph>
    <TTGlyph name="K" xMin="66" yMin="0" xMax="877" yMax="683">
      <contour>
        <pt x="648" y="72" on="1"/>
        <pt x="657" y="49" on="0"/>
        <pt x="679" y="32" on="0"/>
        <pt x="707" y="31" on="1"/>
        <pt x="714" y="31" on="0"/>
        <pt x="727" y="28" on="0"/>
        <pt x="727" y="18" on="1"/>
        <pt x="727" y="4" on="0"/>
        <pt x="713" y="0" on="0"/>
        <pt x="709" y="0" on="1"/>
        <pt x="688" y="0" on="0"/>
        <pt x="641" y="3" on="0"/>
        <pt x="618" y="3" on="1"/>
        <pt x="591" y="3" on="0"/>
        <pt x="536" y="0" on="0"/>
        <pt x="510" y="0" on="1"/>
        <pt x="499" y="0" on="0"/>
        <pt x="496" y="11" on="0"/>
        <pt x="496" y="13" on="1"/>
        <pt x="496" y="27" on="0"/>
        <pt x="510" y="31" on="0"/>
        <pt x="516" y="31" on="1"/>
        <pt x="520" y="31" on="0"/>
        <pt x="536" y="32" on="0"/>
        <pt x="553" y="38" on="0"/>
        <pt x="565" y="51" on="0"/>
        <pt x="565" y="62" on="1"/>
        <pt x="565" y="64" on="0"/>
        <pt x="564" y="72" on="0"/>
        <pt x="559" y="83" on="1"/>
        <pt x="446" y="364" on="1"/>
        <pt x="298" y="244" on="1"/>
        <pt x="264" y="104" on="1"/>
        <pt x="260" y="90" on="0"/>
        <pt x="251" y="53" on="0"/>
        <pt x="251" y="48" on="1"/>
        <pt x="251" y="44" on="0"/>
        <pt x="253" y="38" on="0"/>
        <pt x="264" y="33" on="0"/>
        <pt x="287" y="31" on="0"/>
        <pt x="309" y="31" on="1"/>
        <pt x="321" y="31" on="0"/>
        <pt x="335" y="28" on="0"/>
        <pt x="335" y="18" on="1"/>
        <pt x="335" y="4" on="0"/>
        <pt x="320" y="0" on="0"/>
        <pt x="316" y="0" on="1"/>
        <pt x="287" y="0" on="0"/>
        <pt x="227" y="3" on="0"/>
        <pt x="198" y="3" on="1"/>
        <pt x="169" y="3" on="0"/>
        <pt x="110" y="0" on="0"/>
        <pt x="81" y="0" on="1"/>
        <pt x="75" y="0" on="0"/>
        <pt x="66" y="6" on="0"/>
        <pt x="66" y="13" on="1"/>
        <pt x="66" y="27" on="0"/>
        <pt x="81" y="31" on="0"/>
        <pt x="93" y="31" on="1"/>
        <pt x="118" y="31" on="0"/>
        <pt x="148" y="34" on="0"/>
        <pt x="164" y="43" on="0"/>
        <pt x="172" y="60" on="0"/>
        <pt x="175" y="73" on="1"/>
        <pt x="310" y="615" on="1"/>
        <pt x="313" y="626" on="0"/>
        <pt x="314" y="632" on="0"/>
        <pt x="314" y="635" on="1"/>
        <pt x="314" y="639" on="0"/>
        <pt x="312" y="645" on="0"/>
        <pt x="301" y="650" on="0"/>
        <pt x="278" y="652" on="0"/>
        <pt x="256" y="652" on="1"/>
        <pt x="244" y="652" on="0"/>
        <pt x="229" y="655" on="0"/>
        <pt x="229" y="665" on="1"/>
        <pt x="229" y="679" on="0"/>
        <pt x="243" y="683" on="0"/>
        <pt x="248" y="683" on="1"/>
        <pt x="277" y="683" on="0"/>
        <pt x="338" y="680" on="0"/>
        <pt x="367" y="680" on="1"/>
        <pt x="396" y="680" on="0"/>
        <pt x="455" y="683" on="0"/>
        <pt x="484" y="683" on="1"/>
        <pt x="494" y="683" on="0"/>
        <pt x="498" y="672" on="0"/>
        <pt x="498" y="670" on="1"/>
        <pt x="498" y="656" on="0"/>
        <pt x="483" y="652" on="0"/>
        <pt x="469" y="652" on="1"/>
        <pt x="445" y="652" on="0"/>
        <pt x="416" y="648" on="0"/>
        <pt x="400" y="639" on="0"/>
        <pt x="393" y="623" on="0"/>
        <pt x="390" y="611" on="1"/>
        <pt x="311" y="293" on="1"/>
        <pt x="673" y="585" on="1"/>
        <pt x="678" y="590" on="0"/>
        <pt x="682" y="593" on="1"/>
        <pt x="684" y="597" on="0"/>
        <pt x="688" y="599" on="1"/>
        <pt x="692" y="603" on="0"/>
        <pt x="708" y="622" on="0"/>
        <pt x="708" y="633" on="1"/>
        <pt x="708" y="637" on="0"/>
        <pt x="702" y="650" on="0"/>
        <pt x="684" y="652" on="1"/>
        <pt x="681" y="652" on="0"/>
        <pt x="669" y="656" on="0"/>
        <pt x="669" y="665" on="1"/>
        <pt x="669" y="679" on="0"/>
        <pt x="683" y="683" on="0"/>
        <pt x="688" y="683" on="1"/>
        <pt x="713" y="683" on="0"/>
        <pt x="766" y="680" on="0"/>
        <pt x="792" y="680" on="1"/>
        <pt x="814" y="680" on="0"/>
        <pt x="840" y="681" on="0"/>
        <pt x="855" y="682" on="0"/>
        <pt x="861" y="683" on="0"/>
        <pt x="864" y="683" on="1"/>
        <pt x="877" y="683" on="0"/>
        <pt x="877" y="670" on="1"/>
        <pt x="877" y="658" on="0"/>
        <pt x="865" y="653" on="0"/>
        <pt x="858" y="652" on="1"/>
        <pt x="835" y="650" on="0"/>
        <pt x="787" y="629" on="0"/>
        <pt x="744" y="603" on="0"/>
        <pt x="709" y="576" on="0"/>
        <pt x="698" y="567" on="1"/>
        <pt x="510" y="415" on="1"/>
      </contour>
    </TTGlyph>
    <TTGlyph name="L" xMin="66" yMin="0" xMax="639" yMax="683">
      <contour>
        <pt x="253" y="63" on="1"/>
        <pt x="250" y="52" on="0"/>
        <pt x="249" y="42" on="0"/>
        <pt x="249" y="34" on="1"/>
        <pt x="257" y="32" on="0"/>
        <pt x="265" y="31" on="0"/>
        <pt x="278" y="31" on="1"/>
        <pt x="366" y="31" on="1"/>
        <pt x="426" y="31" on="0"/>
        <pt x="505" y="70" on="0"/>
        <pt x="557" y="131" on="0"/>
        <pt x="589" y="204" on="0"/>
        <pt x="602" y="238" on="1"/>
        <pt x="607" y="250" on="0"/>
        <pt x="612" y="258" on="0"/>
        <pt x="622" y="258" on="1"/>
        <pt x="625" y="258" on="0"/>
        <pt x="639" y="255" on="0"/>
        <pt x="639" y="245" on="1"/>
        <pt x="639" y="243" on="0"/>
        <pt x="638" y="238" on="0"/>
        <pt x="634" y="228" on="1"/>
        <pt x="558" y="19" on="1"/>
        <pt x="553" y="5" on="0"/>
        <pt x="545" y="0" on="0"/>
        <pt x="528" y="0" on="1"/>
        <pt x="93" y="0" on="1"/>
        <pt x="81" y="0" on="0"/>
        <pt x="66" y="3" on="0"/>
        <pt x="66" y="13" on="1"/>
        <pt x="66" y="27" on="0"/>
        <pt x="81" y="31" on="0"/>
        <pt x="93" y="31" on="1"/>
        <pt x="118" y="31" on="0"/>
        <pt x="148" y="34" on="0"/>
        <pt x="164" y="43" on="0"/>
        <pt x="172" y="60" on="0"/>
        <pt x="175" y="73" on="1"/>
        <pt x="310" y="615" on="1"/>
        <pt x="313" y="626" on="0"/>
        <pt x="314" y="632" on="0"/>
        <pt x="314" y="635" on="1"/>
        <pt x="314" y="639" on="0"/>
        <pt x="312" y="645" on="0"/>
        <pt x="301" y="650" on="0"/>
        <pt x="278" y="652" on="0"/>
        <pt x="256" y="652" on="1"/>
        <pt x="244" y="652" on="0"/>
        <pt x="229" y="655" on="0"/>
        <pt x="229" y="665" on="1"/>
        <pt x="229" y="679" on="0"/>
        <pt x="243" y="683" on="0"/>
        <pt x="248" y="683" on="1"/>
        <pt x="278" y="683" on="0"/>
        <pt x="341" y="680" on="0"/>
        <pt x="372" y="680" on="1"/>
        <pt x="406" y="680" on="0"/>
        <pt x="473" y="683" on="0"/>
        <pt x="506" y="683" on="1"/>
        <pt x="511" y="683" on="0"/>
        <pt x="522" y="678" on="0"/>
        <pt x="522" y="670" on="1"/>
        <pt x="522" y="656" on="0"/>
        <pt x="507" y="652" on="0"/>
        <pt x="494" y="652" on="1"/>
        <pt x="485" y="652" on="1"/>
        <pt x="455" y="652" on="0"/>
        <pt x="420" y="648" on="0"/>
        <pt x="401" y="637" on="0"/>
        <pt x="392" y="620" on="0"/>
        <pt x="389" y="607" on="1"/>
      </contour>
    </TTGlyph>
    <TTGlyph name="Lambda" xMin="60" yMin="0" xMax="658" yMax="716">
      <contour>
        <pt x="505" y="697" on="1"/>
        <pt x="513" y="711" on="0"/>
        <pt x="528" y="716" on="0"/>
        <pt x="534" y="716" on="1"/>
        <pt x="548" y="716" on="0"/>
        <pt x="552" y="705" on="0"/>
        <pt x="553" y="690" on="1"/>
        <pt x="588" y="61" on="1"/>
        <pt x="589" y="43" on="0"/>
        <pt x="605" y="31" on="0"/>
        <pt x="635" y="31" on="1"/>
        <pt x="643" y="31" on="0"/>
        <pt x="658" y="28" on="0"/>
        <pt x="658" y="18" on="1"/>
        <pt x="658" y="4" on="0"/>
        <pt x="642" y="0" on="0"/>
        <pt x="639" y="0" on="1"/>
        <pt x="616" y="0" on="0"/>
        <pt x="565" y="3" on="0"/>
        <pt x="540" y="3" on="1"/>
        <pt x="512" y="3" on="0"/>
        <pt x="456" y="0" on="0"/>
        <pt x="429" y="0" on="1"/>
        <pt x="423" y="0" on="0"/>
        <pt x="414" y="6" on="0"/>
        <pt x="414" y="13" on="1"/>
        <pt x="414" y="27" on="0"/>
        <pt x="429" y="31" on="0"/>
        <pt x="437" y="31" on="1"/>
        <pt x="463" y="31" on="0"/>
        <pt x="491" y="41" on="0"/>
        <pt x="503" y="54" on="0"/>
        <pt x="504" y="71" on="0"/>
        <pt x="504" y="79" on="1"/>
        <pt x="476" y="579" on="1"/>
        <pt x="212" y="105" on="1"/>
        <pt x="201" y="86" on="0"/>
        <pt x="198" y="68" on="0"/>
        <pt x="198" y="65" on="1"/>
        <pt x="198" y="48" on="0"/>
        <pt x="222" y="33" on="0"/>
        <pt x="241" y="31" on="1"/>
        <pt x="243" y="31" on="0"/>
        <pt x="255" y="27" on="0"/>
        <pt x="255" y="18" on="1"/>
        <pt x="255" y="4" on="0"/>
        <pt x="240" y="0" on="0"/>
        <pt x="237" y="0" on="1"/>
        <pt x="216" y="0" on="0"/>
        <pt x="170" y="3" on="0"/>
        <pt x="147" y="3" on="1"/>
        <pt x="129" y="3" on="0"/>
        <pt x="90" y="0" on="0"/>
        <pt x="73" y="0" on="1"/>
        <pt x="60" y="0" on="0"/>
        <pt x="60" y="13" on="1"/>
        <pt x="60" y="15" on="0"/>
        <pt x="64" y="30" on="0"/>
        <pt x="73" y="31" on="1"/>
        <pt x="84" y="32" on="0"/>
        <pt x="108" y="36" on="0"/>
        <pt x="136" y="53" on="0"/>
        <pt x="166" y="85" on="0"/>
        <pt x="182" y="114" on="1"/>
      </contour>
    </TTGlyph>
    <TTGlyph name="M" xMin="71" yMin="0" xMax="1018" yMax="683">
      <contour>
        <pt x="775" y="72" on="1"/>
        <pt x="773" y="66" on="0"/>
        <pt x="771" y="54" on="0"/>
        <pt x="771" y="48" on="1"/>
        <pt x="771" y="44" on="0"/>
        <pt x="773" y="38" on="0"/>
        <pt x="784" y="33" on="0"/>
        <pt x="807" y="31" on="0"/>
        <pt x="829" y="31" on="1"/>
        <pt x="841" y="31" on="0"/>
        <pt x="855" y="28" on="0"/>
        <pt x="855" y="18" on="1"/>
        <pt x="855" y="4" on="0"/>
        <pt x="841" y="0" on="0"/>
        <pt x="836" y="0" on="1"/>
        <pt x="809" y="0" on="0"/>
        <pt x="751" y="3" on="0"/>
        <pt x="722" y="3" on="1"/>
        <pt x="694" y="3" on="0"/>
        <pt x="637" y="0" on="0"/>
        <pt x="610" y="0" on="1"/>
        <pt x="604" y="0" on="0"/>
        <pt x="595" y="6" on="0"/>
        <pt x="595" y="13" on="1"/>
        <pt x="595" y="27" on="0"/>
        <pt x="610" y="31" on="0"/>
        <pt x="622" y="31" on="1"/>
        <pt x="647" y="31" on="0"/>
        <pt x="677" y="34" on="0"/>
        <pt x="693" y="43" on="0"/>
        <pt x="701" y="60" on="0"/>
        <pt x="704" y="73" on="1"/>
        <pt x="844" y="635" on="1"/>
        <pt x="843" y="635" on="1"/>
        <pt x="468" y="19" on="1"/>
        <pt x="463" y="12" on="0"/>
        <pt x="453" y="0" on="0"/>
        <pt x="442" y="0" on="1"/>
        <pt x="430" y="0" on="0"/>
        <pt x="425" y="11" on="0"/>
        <pt x="423" y="25" on="1"/>
        <pt x="357" y="627" on="1"/>
        <pt x="356" y="627" on="1"/>
        <pt x="224" y="99" on="1"/>
        <pt x="221" y="87" on="0"/>
        <pt x="220" y="76" on="0"/>
        <pt x="220" y="73" on="1"/>
        <pt x="220" y="66" on="0"/>
        <pt x="223" y="52" on="0"/>
        <pt x="235" y="40" on="0"/>
        <pt x="259" y="32" on="0"/>
        <pt x="279" y="31" on="1"/>
        <pt x="284" y="31" on="0"/>
        <pt x="297" y="27" on="0"/>
        <pt x="297" y="18" on="1"/>
        <pt x="297" y="4" on="0"/>
        <pt x="282" y="0" on="0"/>
        <pt x="279" y="0" on="1"/>
        <pt x="256" y="0" on="0"/>
        <pt x="205" y="3" on="0"/>
        <pt x="181" y="3" on="1"/>
        <pt x="157" y="3" on="0"/>
        <pt x="108" y="0" on="0"/>
        <pt x="85" y="0" on="1"/>
        <pt x="71" y="0" on="0"/>
        <pt x="71" y="13" on="1"/>
        <pt x="71" y="26" on="0"/>
        <pt x="84" y="31" on="0"/>
        <pt x="87" y="31" on="1"/>
        <pt x="101" y="31" on="0"/>
        <pt x="131" y="36" on="0"/>
        <pt x="159" y="50" on="0"/>
        <pt x="181" y="78" on="0"/>
        <pt x="187" y="102" on="1"/>
        <pt x="315" y="615" on="1"/>
        <pt x="318" y="626" on="0"/>
        <pt x="319" y="632" on="0"/>
        <pt x="319" y="635" on="1"/>
        <pt x="319" y="639" on="0"/>
        <pt x="317" y="645" on="0"/>
        <pt x="306" y="650" on="0"/>
        <pt x="283" y="652" on="0"/>
        <pt x="261" y="652" on="1"/>
        <pt x="249" y="652" on="0"/>
        <pt x="234" y="655" on="0"/>
        <pt x="234" y="665" on="1"/>
        <pt x="234" y="679" on="0"/>
        <pt x="249" y="683" on="0"/>
        <pt x="262" y="683" on="1"/>
        <pt x="392" y="683" on="1"/>
        <pt x="402" y="683" on="0"/>
        <pt x="413" y="682" on="0"/>
        <pt x="419" y="677" on="0"/>
        <pt x="421" y="667" on="0"/>
        <pt x="422" y="658" on="1"/>
        <pt x="483" y="95" on="1"/>
        <pt x="830" y="664" on="1"/>
        <pt x="839" y="678" on="0"/>
        <pt x="851" y="683" on="0"/>
        <pt x="868" y="683" on="1"/>
        <pt x="992" y="683" on="1"/>
        <pt x="1004" y="683" on="0"/>
        <pt x="1018" y="680" on="0"/>
        <pt x="1018" y="670" on="1"/>
        <pt x="1018" y="656" on="0"/>
        <pt x="1003" y="652" on="0"/>
        <pt x="990" y="652" on="1"/>
        <pt x="965" y="652" on="0"/>
        <pt x="936" y="648" on="0"/>
        <pt x="920" y="639" on="0"/>
        <pt x="912" y="622" on="0"/>
        <pt x="909" y="608" on="1"/>
      </contour>
    </TTGlyph>
    <TTGlyph name="N" xMin="66" yMin="0" xMax="866" yMax="683">
      <contour>
        <pt x="610" y="20" on="1"/>
        <pt x="607" y="7" on="0"/>
        <pt x="601" y="0" on="0"/>
        <pt x="590" y="0" on="1"/>
        <pt x="579" y="0" on="0"/>
        <pt x="574" y="6" on="0"/>
        <pt x="569" y="17" on="1"/>
        <pt x="347" y="609" on="1"/>
        <pt x="219" y="99" on="1"/>
        <pt x="216" y="87" on="0"/>
        <pt x="215" y="76" on="0"/>
        <pt x="215" y="73" on="1"/>
        <pt x="215" y="66" on="0"/>
        <pt x="218" y="52" on="0"/>
        <pt x="230" y="40" on="0"/>
        <pt x="254" y="32" on="0"/>
        <pt x="274" y="31" on="1"/>
        <pt x="279" y="31" on="0"/>
        <pt x="292" y="27" on="0"/>
        <pt x="292" y="18" on="1"/>
        <pt x="292" y="4" on="0"/>
        <pt x="277" y="0" on="0"/>
        <pt x="274" y="0" on="1"/>
        <pt x="251" y="0" on="0"/>
        <pt x="200" y="3" on="0"/>
        <pt x="176" y="3" on="1"/>
        <pt x="152" y="3" on="0"/>
        <pt x="103" y="0" on="0"/>
        <pt x="80" y="0" on="1"/>
        <pt x="66" y="0" on="0"/>
        <pt x="66" y="13" on="1"/>
        <pt x="66" y="26" on="0"/>
        <pt x="79" y="31" on="0"/>
        <pt x="82" y="31" on="1"/>
        <pt x="96" y="31" on="0"/>
        <pt x="126" y="36" on="0"/>
        <pt x="154" y="50" on="0"/>
        <pt x="176" y="78" on="0"/>
        <pt x="182" y="102" on="1"/>
        <pt x="314" y="631" on="1"/>
        <pt x="316" y="639" on="0"/>
        <pt x="317" y="643" on="0"/>
        <pt x="317" y="644" on="1"/>
        <pt x="317" y="647" on="0"/>
        <pt x="301" y="650" on="0"/>
        <pt x="281" y="652" on="0"/>
        <pt x="262" y="652" on="0"/>
        <pt x="260" y="652" on="1"/>
        <pt x="244" y="652" on="0"/>
        <pt x="229" y="655" on="0"/>
        <pt x="229" y="665" on="1"/>
        <pt x="229" y="679" on="0"/>
        <pt x="244" y="683" on="0"/>
        <pt x="257" y="683" on="1"/>
        <pt x="377" y="683" on="1"/>
        <pt x="394" y="683" on="0"/>
        <pt x="402" y="678" on="0"/>
        <pt x="407" y="664" on="1"/>
        <pt x="603" y="141" on="1"/>
        <pt x="715" y="592" on="1"/>
        <pt x="718" y="603" on="0"/>
        <pt x="718" y="610" on="1"/>
        <pt x="718" y="627" on="0"/>
        <pt x="695" y="650" on="0"/>
        <pt x="660" y="652" on="1"/>
        <pt x="653" y="652" on="0"/>
        <pt x="640" y="656" on="0"/>
        <pt x="640" y="665" on="1"/>
        <pt x="640" y="679" on="0"/>
        <pt x="654" y="683" on="0"/>
        <pt x="658" y="683" on="1"/>
        <pt x="681" y="683" on="0"/>
        <pt x="732" y="680" on="0"/>
        <pt x="757" y="680" on="1"/>
        <pt x="781" y="680" on="0"/>
        <pt x="830" y="683" on="0"/>
        <pt x="853" y="683" on="1"/>
        <pt x="861" y="683" on="0"/>
        <pt x="866" y="674" on="0"/>
        <pt x="866" y="670" on="1"/>
        <pt x="866" y="657" on="0"/>
        <pt x="852" y="652" on="0"/>
        <pt x="847" y="652" on="1"/>
        <pt x="831" y="651" on="0"/>
        <pt x="801" y="645" on="0"/>
        <pt x="775" y="629" on="0"/>
        <pt x="755" y="600" on="0"/>
        <pt x="749" y="577" on="1"/>
      </contour>
    </TTGlyph>
    <TTGlyph name="O" xMin="150" yMin="-22" xMax="806" yMax="705">
      <contour>
        <pt x="806" y="441" on="1"/>
        <pt x="806" y="382" on="0"/>
        <pt x="773" y="268" on="0"/>
        <pt x="714" y="165" on="0"/>
        <pt x="634" y="77" on="0"/>
        <pt x="541" y="14" on="0"/>
        <pt x="440" y="-22" on="0"/>
        <pt x="388" y="-22" on="1"/>
        <pt x="337" y="-22" on="0"/>
        <pt x="249" y="15" on="0"/>
        <pt x="186" y="83" on="0"/>
        <pt x="150" y="179" on="0"/>
        <pt x="150" y="239" on="1"/>
        <pt x="150" y="298" on="0"/>
        <pt x="183" y="412" on="0"/>
        <pt x="242" y="516" on="0"/>
        <pt x="322" y="604" on="0"/>
        <pt x="415" y="668" on="0"/>
        <pt x="517" y="705" on="0"/>
        <pt x="569" y="705" on="1"/>
        <pt x="622" y="705" on="0"/>
        <pt x="709" y="666" on="0"/>
        <pt x="772" y="596" on="0"/>
        <pt x="806" y="499" on="0"/>
      </contour>
      <contour>
        <pt x="395" y="8" on="1"/>
        <pt x="442" y="8" on="0"/>
        <pt x="526" y="51" on="0"/>
        <pt x="599" y="123" on="0"/>
        <pt x="657" y="218" on="0"/>
        <pt x="699" y="323" on="0"/>
        <pt x="721" y="431" on="0"/>
        <pt x="721" y="479" on="1"/>
        <pt x="721" y="531" on="0"/>
        <pt x="694" y="606" on="0"/>
        <pt x="649" y="654" on="0"/>
        <pt x="592" y="677" on="0"/>
        <pt x="562" y="677" on="1"/>
        <pt x="508" y="677" on="0"/>
        <pt x="393" y="610" on="0"/>
        <pt x="347" y="549" on="1"/>
        <pt x="316" y="507" on="0"/>
        <pt x="275" y="412" on="0"/>
        <pt x="250" y="321" on="0"/>
        <pt x="240" y="240" on="0"/>
        <pt x="240" y="213" on="1"/>
        <pt x="240" y="157" on="0"/>
        <pt x="267" y="79" on="0"/>
        <pt x="311" y="30" on="0"/>
        <pt x="367" y="8" on="0"/>
      </contour>
    </TTGlyph>
    <TTGlyph name="OE" xMin="164" yMin="-22" xMax="1073" yMax="705">
      <contour>
        <pt x="926" y="18" on="1"/>
        <pt x="921" y="4" on="0"/>
        <pt x="912" y="0" on="0"/>
        <pt x="895" y="0" on="1"/>
        <pt x="553" y="0" on="1"/>
        <pt x="545" y="0" on="0"/>
        <pt x="530" y="-1" on="0"/>
        <pt x="514" y="-3" on="0"/>
        <pt x="492" y="-7" on="0"/>
        <pt x="477" y="-10" on="1"/>
        <pt x="451" y="-16" on="0"/>
        <pt x="419" y="-22" on="0"/>
        <pt x="399" y="-22" on="1"/>
        <pt x="353" y="-22" on="0"/>
        <pt x="267" y="12" on="0"/>
        <pt x="203" y="79" on="0"/>
        <pt x="164" y="176" on="0"/>
        <pt x="164" y="239" on="1"/>
        <pt x="164" y="298" on="0"/>
        <pt x="198" y="413" on="0"/>
        <pt x="257" y="517" on="0"/>
        <pt x="337" y="605" on="0"/>
        <pt x="430" y="669" on="0"/>
        <pt x="531" y="705" on="0"/>
        <pt x="581" y="705" on="1"/>
        <pt x="589" y="705" on="0"/>
        <pt x="604" y="704" on="0"/>
        <pt x="622" y="701" on="0"/>
        <pt x="645" y="696" on="0"/>
        <pt x="661" y="692" on="1"/>
        <pt x="685" y="685" on="0"/>
        <pt x="711" y="683" on="0"/>
        <pt x="724" y="683" on="1"/>
        <pt x="1047" y="683" on="1"/>
        <pt x="1058" y="683" on="0"/>
        <pt x="1073" y="680" on="0"/>
        <pt x="1073" y="670" on="1"/>
        <pt x="1072" y="655" on="1"/>
        <pt x="1051" y="481" on="1"/>
        <pt x="1049" y="469" on="0"/>
        <pt x="1044" y="458" on="0"/>
        <pt x="1033" y="458" on="1"/>
        <pt x="1027" y="458" on="0"/>
        <pt x="1016" y="462" on="0"/>
        <pt x="1016" y="473" on="1"/>
        <pt x="1016" y="481" on="0"/>
        <pt x="1018" y="487" on="1"/>
        <pt x="1021" y="512" on="0"/>
        <pt x="1022" y="550" on="0"/>
        <pt x="1022" y="552" on="1"/>
        <pt x="1022" y="573" on="0"/>
        <pt x="1016" y="610" on="0"/>
        <pt x="992" y="637" on="0"/>
        <pt x="942" y="652" on="0"/>
        <pt x="897" y="652" on="1"/>
        <pt x="785" y="652" on="1"/>
        <pt x="773" y="652" on="0"/>
        <pt x="758" y="651" on="0"/>
        <pt x="748" y="644" on="0"/>
        <pt x="740" y="630" on="0"/>
        <pt x="737" y="616" on="1"/>
        <pt x="676" y="370" on="1"/>
        <pt x="778" y="370" on="1"/>
        <pt x="808" y="370" on="0"/>
        <pt x="850" y="378" on="0"/>
        <pt x="879" y="398" on="0"/>
        <pt x="897" y="434" on="0"/>
        <pt x="904" y="462" on="1"/>
        <pt x="908" y="478" on="0"/>
        <pt x="914" y="487" on="0"/>
        <pt x="925" y="487" on="1"/>
        <pt x="928" y="487" on="0"/>
        <pt x="941" y="484" on="0"/>
        <pt x="941" y="474" on="1"/>
        <pt x="884" y="242" on="1"/>
        <pt x="881" y="229" on="0"/>
        <pt x="875" y="222" on="0"/>
        <pt x="865" y="222" on="1"/>
        <pt x="861" y="222" on="0"/>
        <pt x="848" y="225" on="0"/>
        <pt x="848" y="236" on="1"/>
        <pt x="848" y="238" on="0"/>
        <pt x="849" y="242" on="0"/>
        <pt x="851" y="252" on="1"/>
        <pt x="858" y="279" on="0"/>
        <pt x="858" y="295" on="1"/>
        <pt x="858" y="306" on="0"/>
        <pt x="853" y="322" on="0"/>
        <pt x="836" y="333" on="0"/>
        <pt x="803" y="339" on="0"/>
        <pt x="776" y="339" on="1"/>
        <pt x="668" y="339" on="1"/>
        <pt x="599" y="63" on="1"/>
        <pt x="596" y="52" on="0"/>
        <pt x="595" y="42" on="0"/>
        <pt x="595" y="34" on="1"/>
        <pt x="603" y="32" on="0"/>
        <pt x="611" y="31" on="0"/>
        <pt x="624" y="31" on="1"/>
        <pt x="735" y="31" on="1"/>
        <pt x="791" y="31" on="0"/>
        <pt x="865" y="55" on="0"/>
        <pt x="917" y="104" on="0"/>
        <pt x="956" y="179" on="0"/>
        <pt x="977" y="229" on="1"/>
        <pt x="985" y="246" on="0"/>
        <pt x="988" y="254" on="0"/>
        <pt x="990" y="255" on="1"/>
        <pt x="994" y="258" on="0"/>
        <pt x="1002" y="258" on="1"/>
        <pt x="1005" y="258" on="0"/>
        <pt x="1019" y="255" on="0"/>
        <pt x="1019" y="245" on="1"/>
        <pt x="1019" y="244" on="0"/>
        <pt x="1018" y="239" on="0"/>
        <pt x="1013" y="229" on="1"/>
      </contour>
      <contour>
        <pt x="643" y="527" on="1"/>
        <pt x="648" y="549" on="0"/>
        <pt x="655" y="585" on="0"/>
        <pt x="655" y="615" on="1"/>
        <pt x="655" y="624" on="0"/>
        <pt x="653" y="646" on="0"/>
        <pt x="638" y="666" on="0"/>
        <pt x="606" y="680" on="0"/>
        <pt x="577" y="680" on="1"/>
        <pt x="540" y="680" on="0"/>
        <pt x="462" y="646" on="0"/>
        <pt x="391" y="585" on="0"/>
        <pt x="328" y="501" on="0"/>
        <pt x="281" y="400" on="0"/>
        <pt x="254" y="287" on="0"/>
        <pt x="254" y="227" on="1"/>
        <pt x="254" y="179" on="0"/>
        <pt x="275" y="97" on="0"/>
        <pt x="315" y="37" on="0"/>
        <pt x="372" y="3" on="0"/>
        <pt x="409" y="3" on="1"/>
        <pt x="442" y="3" on="0"/>
        <pt x="484" y="21" on="0"/>
        <pt x="511" y="51" on="0"/>
        <pt x="528" y="89" on="0"/>
        <pt x="535" y="109" on="1"/>
        <pt x="542" y="127" on="0"/>
        <pt x="550" y="151" on="0"/>
        <pt x="554" y="168" on="1"/>
      </contour>
    </TTGlyph>
    <TTGlyph name="Oslash" xMin="118" yMin="-62" xMax="839" yMax="745">
      <contour>
        <pt x="809" y="734" on="1"/>
        <pt x="815" y="742" on="0"/>
        <pt x="821" y="745" on="0"/>
        <pt x="825" y="745" on="1"/>
        <pt x="831" y="745" on="0"/>
        <pt x="839" y="736" on="0"/>
        <pt x="839" y="731" on="1"/>
        <pt x="839" y="726" on="0"/>
        <pt x="818" y="702" on="0"/>
        <pt x="795" y="676" on="1"/>
        <pt x="791" y="672" on="0"/>
        <pt x="766" y="645" on="0"/>
        <pt x="748" y="622" on="1"/>
        <pt x="784" y="576" on="0"/>
        <pt x="806" y="479" on="0"/>
        <pt x="806" y="441" on="1"/>
        <pt x="806" y="382" on="0"/>
        <pt x="773" y="268" on="0"/>
        <pt x="714" y="165" on="0"/>
        <pt x="634" y="77" on="0"/>
        <pt x="541" y="14" on="0"/>
        <pt x="440" y="-22" on="0"/>
        <pt x="388" y="-22" on="1"/>
        <pt x="356" y="-22" on="0"/>
        <pt x="305" y="-9" on="0"/>
        <pt x="266" y="9" on="0"/>
        <pt x="237" y="30" on="0"/>
        <pt x="227" y="39" on="1"/>
        <pt x="146" y="-52" on="1"/>
        <pt x="140" y="-59" on="0"/>
        <pt x="136" y="-62" on="0"/>
        <pt x="132" y="-62" on="1"/>
        <pt x="126" y="-62" on="0"/>
        <pt x="118" y="-53" on="0"/>
        <pt x="118" y="-48" on="1"/>
        <pt x="118" y="-45" on="0"/>
        <pt x="129" y="-31" on="0"/>
        <pt x="145" y="-11" on="0"/>
        <pt x="166" y="12" on="0"/>
        <pt x="176" y="23" on="1"/>
        <pt x="182" y="29" on="0"/>
        <pt x="188" y="36" on="0"/>
        <pt x="194" y="43" on="0"/>
        <pt x="202" y="53" on="0"/>
        <pt x="208" y="60" on="1"/>
        <pt x="189" y="83" on="0"/>
        <pt x="150" y="171" on="0"/>
        <pt x="150" y="239" on="1"/>
        <pt x="150" y="298" on="0"/>
        <pt x="183" y="412" on="0"/>
        <pt x="242" y="516" on="0"/>
        <pt x="322" y="604" on="0"/>
        <pt x="415" y="668" on="0"/>
        <pt x="517" y="705" on="0"/>
        <pt x="569" y="705" on="1"/>
        <pt x="605" y="705" on="0"/>
        <pt x="691" y="680" on="0"/>
        <pt x="729" y="643" on="1"/>
      </contour>
      <contour>
        <pt x="699" y="611" on="1"/>
        <pt x="691" y="623" on="0"/>
        <pt x="666" y="647" on="0"/>
        <pt x="633" y="667" on="0"/>
        <pt x="590" y="680" on="0"/>
        <pt x="563" y="680" on="1"/>
        <pt x="527" y="680" on="0"/>
        <pt x="457" y="656" on="0"/>
        <pt x="394" y="614" on="0"/>
        <pt x="339" y="558" on="0"/>
        <pt x="318" y="526" on="1"/>
        <pt x="290" y="481" on="0"/>
        <pt x="253" y="383" on="0"/>
        <pt x="231" y="292" on="0"/>
        <pt x="222" y="219" on="0"/>
        <pt x="222" y="200" on="1"/>
        <pt x="222" y="187" on="0"/>
        <pt x="228" y="131" on="0"/>
        <pt x="242" y="97" on="1"/>
      </contour>
      <contour>
        <pt x="257" y="72" on="1"/>
        <pt x="274" y="47" on="0"/>
        <pt x="340" y="3" on="0"/>
        <pt x="394" y="3" on="1"/>
        <pt x="447" y="3" on="0"/>
        <pt x="568" y="63" on="0"/>
        <pt x="619" y="128" on="1"/>
        <pt x="650" y="168" on="0"/>
        <pt x="694" y="267" on="0"/>
        <pt x="721" y="364" on="0"/>
        <pt x="733" y="452" on="0"/>
        <pt x="733" y="480" on="1"/>
        <pt x="733" y="495" on="0"/>
        <pt x="728" y="554" on="0"/>
        <pt x="713" y="585" on="1"/>
      </contour>
    </TTGlyph>
    <TTGlyph name="P" xMin="68" yMin="0" xMax="746" yMax="683">
      <contour>
        <pt x="257" y="69" on="1"/>
        <pt x="254" y="58" on="0"/>
        <pt x="253" y="51" on="0"/>
        <pt x="253" y="48" on="1"/>
        <pt x="253" y="44" on="0"/>
        <pt x="255" y="38" on="0"/>
        <pt x="266" y="33" on="0"/>
        <pt x="289" y="31" on="0"/>
        <pt x="311" y="31" on="1"/>
        <pt x="323" y="31" on="0"/>
        <pt x="337" y="28" on="0"/>
        <pt x="337" y="18" on="1"/>
        <pt x="337" y="4" on="0"/>
        <pt x="322" y="0" on="0"/>
        <pt x="318" y="0" on="1"/>
        <pt x="289" y="0" on="0"/>
        <pt x="229" y="3" on="0"/>
        <pt x="200" y="3" on="1"/>
        <pt x="171" y="3" on="0"/>
        <pt x="112" y="0" on="0"/>
        <pt x="83" y="0" on="1"/>
        <pt x="77" y="0" on="0"/>
        <pt x="68" y="6" on="0"/>
        <pt x="68" y="13" on="1"/>
        <pt x="68" y="27" on="0"/>
        <pt x="83" y="31" on="0"/>
        <pt x="95" y="31" on="1"/>
        <pt x="120" y="31" on="0"/>
        <pt x="150" y="34" on="0"/>
        <pt x="166" y="43" on="0"/>
        <pt x="174" y="60" on="0"/>
        <pt x="177" y="73" on="1"/>
        <pt x="312" y="615" on="1"/>
        <pt x="315" y="626" on="0"/>
        <pt x="316" y="632" on="0"/>
        <pt x="316" y="635" on="1"/>
        <pt x="316" y="639" on="0"/>
        <pt x="314" y="645" on="0"/>
        <pt x="303" y="650" on="0"/>
        <pt x="280" y="652" on="0"/>
        <pt x="258" y="652" on="1"/>
        <pt x="246" y="652" on="0"/>
        <pt x="231" y="655" on="0"/>
        <pt x="231" y="665" on="1"/>
        <pt x="231" y="679" on="0"/>
        <pt x="246" y="683" on="0"/>
        <pt x="259" y="683" on="1"/>
        <pt x="563" y="683" on="1"/>
        <pt x="606" y="683" on="0"/>
        <pt x="674" y="660" on="0"/>
        <pt x="721" y="619" on="0"/>
        <pt x="746" y="565" on="0"/>
        <pt x="746" y="534" on="1"/>
        <pt x="746" y="493" on="0"/>
        <pt x="702" y="414" on="0"/>
        <pt x="626" y="352" on="0"/>
        <pt x="527" y="314" on="0"/>
        <pt x="471" y="314" on="1"/>
        <pt x="318" y="314" on="1"/>
      </contour>
      <contour>
        <pt x="322" y="342" on="1"/>
        <pt x="455" y="342" on="1"/>
        <pt x="489" y="342" on="0"/>
        <pt x="541" y="356" on="0"/>
        <pt x="577" y="374" on="0"/>
        <pt x="598" y="393" on="0"/>
        <pt x="602" y="398" on="1"/>
        <pt x="620" y="419" on="0"/>
        <pt x="642" y="472" on="0"/>
        <pt x="654" y="520" on="0"/>
        <pt x="658" y="556" on="0"/>
        <pt x="658" y="559" on="1"/>
        <pt x="658" y="586" on="0"/>
        <pt x="637" y="621" on="0"/>
        <pt x="603" y="643" on="0"/>
        <pt x="557" y="652" on="0"/>
        <pt x="532" y="652" on="1"/>
        <pt x="438" y="652" on="1"/>
        <pt x="426" y="652" on="0"/>
        <pt x="411" y="651" on="0"/>
        <pt x="401" y="644" on="0"/>
        <pt x="393" y="630" on="0"/>
        <pt x="390" y="616" on="1"/>
      </contour>
    </TTGlyph>
    <TTGlyph name="Phi" xMin="159" yMin="0" xMax="746" yMax="683">
      <contour>
        <pt x="649" y="652" on="1"/>
        <pt x="618" y="652" on="0"/>
        <pt x="582" y="648" on="0"/>
        <pt x="563" y="636" on="0"/>
        <pt x="555" y="613" on="0"/>
        <pt x="550" y="594" on="1"/>
        <pt x="547" y="582" on="0"/>
        <pt x="545" y="574" on="0"/>
        <pt x="544" y="569" on="0"/>
        <pt x="542" y="561" on="0"/>
        <pt x="539" y="549" on="1"/>
        <pt x="590" y="544" on="0"/>
        <pt x="667" y="513" on="0"/>
        <pt x="719" y="467" on="0"/>
        <pt x="746" y="409" on="0"/>
        <pt x="746" y="378" on="1"/>
        <pt x="746" y="335" on="0"/>
        <pt x="697" y="253" on="0"/>
        <pt x="613" y="186" on="0"/>
        <pt x="500" y="140" on="0"/>
        <pt x="435" y="134" on="1"/>
        <pt x="432" y="124" on="0"/>
        <pt x="426" y="98" on="0"/>
        <pt x="420" y="73" on="0"/>
        <pt x="416" y="55" on="0"/>
        <pt x="416" y="52" on="1"/>
        <pt x="416" y="47" on="0"/>
        <pt x="418" y="39" on="0"/>
        <pt x="432" y="34" on="0"/>
        <pt x="461" y="31" on="0"/>
        <pt x="488" y="31" on="1"/>
        <pt x="496" y="31" on="1"/>
        <pt x="508" y="31" on="0"/>
        <pt x="523" y="28" on="0"/>
        <pt x="523" y="18" on="1"/>
        <pt x="523" y="4" on="0"/>
        <pt x="508" y="0" on="0"/>
        <pt x="503" y="0" on="1"/>
        <pt x="469" y="0" on="0"/>
        <pt x="400" y="3" on="0"/>
        <pt x="365" y="3" on="1"/>
        <pt x="331" y="3" on="0"/>
        <pt x="261" y="0" on="0"/>
        <pt x="228" y="0" on="1"/>
        <pt x="223" y="0" on="0"/>
        <pt x="213" y="5" on="0"/>
        <pt x="213" y="13" on="1"/>
        <pt x="213" y="27" on="0"/>
        <pt x="228" y="31" on="0"/>
        <pt x="241" y="31" on="1"/>
        <pt x="250" y="31" on="1"/>
        <pt x="282" y="31" on="0"/>
        <pt x="317" y="35" on="0"/>
        <pt x="336" y="48" on="0"/>
        <pt x="344" y="71" on="0"/>
        <pt x="349" y="90" on="1"/>
        <pt x="352" y="102" on="0"/>
        <pt x="354" y="110" on="0"/>
        <pt x="355" y="115" on="0"/>
        <pt x="357" y="123" on="0"/>
        <pt x="360" y="135" on="1"/>
        <pt x="317" y="139" on="0"/>
        <pt x="243" y="167" on="0"/>
        <pt x="189" y="211" on="0"/>
        <pt x="159" y="270" on="0"/>
        <pt x="159" y="305" on="1"/>
        <pt x="159" y="347" on="0"/>
        <pt x="206" y="429" on="0"/>
        <pt x="288" y="496" on="0"/>
        <pt x="399" y="542" on="0"/>
        <pt x="464" y="548" on="1"/>
        <pt x="466" y="558" on="0"/>
        <pt x="469" y="569" on="0"/>
        <pt x="471" y="577" on="0"/>
        <pt x="473" y="584" on="0"/>
        <pt x="474" y="589" on="1"/>
        <pt x="476" y="600" on="0"/>
        <pt x="483" y="628" on="0"/>
        <pt x="483" y="632" on="1"/>
        <pt x="483" y="643" on="0"/>
        <pt x="471" y="648" on="0"/>
        <pt x="454" y="650" on="1"/>
        <pt x="444" y="651" on="0"/>
        <pt x="421" y="652" on="0"/>
        <pt x="411" y="652" on="1"/>
        <pt x="402" y="652" on="1"/>
        <pt x="390" y="652" on="0"/>
        <pt x="376" y="655" on="0"/>
        <pt x="376" y="665" on="1"/>
        <pt x="376" y="679" on="0"/>
        <pt x="391" y="683" on="0"/>
        <pt x="396" y="683" on="1"/>
        <pt x="430" y="683" on="0"/>
        <pt x="499" y="680" on="0"/>
        <pt x="534" y="680" on="1"/>
        <pt x="568" y="680" on="0"/>
        <pt x="637" y="683" on="0"/>
        <pt x="670" y="683" on="1"/>
        <pt x="675" y="683" on="0"/>
        <pt x="686" y="678" on="0"/>
        <pt x="686" y="670" on="1"/>
        <pt x="686" y="656" on="0"/>
        <pt x="671" y="652" on="0"/>
        <pt x="658" y="652" on="1"/>
      </contour>
      <contour>
        <pt x="457" y="522" on="1"/>
        <pt x="404" y="516" on="0"/>
        <pt x="331" y="476" on="0"/>
        <pt x="284" y="423" on="0"/>
        <pt x="259" y="365" on="0"/>
        <pt x="247" y="316" on="0"/>
        <pt x="245" y="283" on="0"/>
        <pt x="245" y="282" on="1"/>
        <pt x="245" y="252" on="0"/>
        <pt x="266" y="208" on="0"/>
        <pt x="300" y="180" on="0"/>
        <pt x="343" y="164" on="0"/>
        <pt x="366" y="161" on="1"/>
      </contour>
      <contour>
        <pt x="442" y="160" on="1"/>
        <pt x="497" y="167" on="0"/>
        <pt x="571" y="206" on="0"/>
        <pt x="620" y="258" on="0"/>
        <pt x="646" y="316" on="0"/>
        <pt x="658" y="365" on="0"/>
        <pt x="660" y="399" on="0"/>
        <pt x="660" y="401" on="1"/>
        <pt x="660" y="433" on="0"/>
        <pt x="638" y="477" on="0"/>
        <pt x="602" y="505" on="0"/>
        <pt x="556" y="520" on="0"/>
        <pt x="532" y="523" on="1"/>
      </contour>
    </TTGlyph>
    <TTGlyph name="Pi" xMin="66" yMin="0" xMax="866" yMax="680">
      <contour>
        <pt x="623" y="72" on="1"/>
        <pt x="621" y="66" on="0"/>
        <pt x="619" y="54" on="0"/>
        <pt x="619" y="48" on="1"/>
        <pt x="619" y="44" on="0"/>
        <pt x="621" y="38" on="0"/>
        <pt x="632" y="33" on="0"/>
        <pt x="655" y="31" on="0"/>
        <pt x="677" y="31" on="1"/>
        <pt x="689" y="31" on="0"/>
        <pt x="703" y="28" on="0"/>
        <pt x="703" y="18" on="1"/>
        <pt x="703" y="4" on="0"/>
        <pt x="688" y="0" on="0"/>
        <pt x="684" y="0" on="1"/>
        <pt x="655" y="0" on="0"/>
        <pt x="595" y="3" on="0"/>
        <pt x="566" y="3" on="1"/>
        <pt x="537" y="3" on="0"/>
        <pt x="478" y="0" on="0"/>
        <pt x="449" y="0" on="1"/>
        <pt x="443" y="0" on="0"/>
        <pt x="434" y="6" on="0"/>
        <pt x="434" y="13" on="1"/>
        <pt x="434" y="27" on="0"/>
        <pt x="449" y="31" on="0"/>
        <pt x="461" y="31" on="1"/>
        <pt x="486" y="31" on="0"/>
        <pt x="516" y="34" on="0"/>
        <pt x="532" y="43" on="0"/>
        <pt x="540" y="60" on="0"/>
        <pt x="543" y="73" on="1"/>
        <pt x="687" y="649" on="1"/>
        <pt x="400" y="649" on="1"/>
        <pt x="255" y="69" on="1"/>
        <pt x="252" y="58" on="0"/>
        <pt x="251" y="51" on="0"/>
        <pt x="251" y="48" on="1"/>
        <pt x="251" y="44" on="0"/>
        <pt x="253" y="38" on="0"/>
        <pt x="264" y="33" on="0"/>
        <pt x="287" y="31" on="0"/>
        <pt x="309" y="31" on="1"/>
        <pt x="321" y="31" on="0"/>
        <pt x="335" y="28" on="0"/>
        <pt x="335" y="18" on="1"/>
        <pt x="335" y="4" on="0"/>
        <pt x="320" y="0" on="0"/>
        <pt x="316" y="0" on="1"/>
        <pt x="287" y="0" on="0"/>
        <pt x="227" y="3" on="0"/>
        <pt x="198" y="3" on="1"/>
        <pt x="169" y="3" on="0"/>
        <pt x="110" y="0" on="0"/>
        <pt x="81" y="0" on="1"/>
        <pt x="75" y="0" on="0"/>
        <pt x="66" y="6" on="0"/>
        <pt x="66" y="13" on="1"/>
        <pt x="66" y="27" on="0"/>
        <pt x="81" y="31" on="0"/>
        <pt x="93" y="31" on="1"/>
        <pt x="118" y="31" on="0"/>
        <pt x="148" y="34" on="0"/>
        <pt x="164" y="43" on="0"/>
        <pt x="172" y="60" on="0"/>
        <pt x="175" y="73" on="1"/>
        <pt x="309" y="611" on="1"/>
        <pt x="312" y="622" on="0"/>
        <pt x="313" y="629" on="0"/>
        <pt x="313" y="632" on="1"/>
        <pt x="313" y="636" on="0"/>
        <pt x="311" y="642" on="0"/>
        <pt x="300" y="647" on="0"/>
        <pt x="277" y="649" on="0"/>
        <pt x="255" y="649" on="1"/>
        <pt x="243" y="649" on="0"/>
        <pt x="229" y="652" on="0"/>
        <pt x="229" y="662" on="1"/>
        <pt x="229" y="676" on="0"/>
        <pt x="245" y="680" on="0"/>
        <pt x="257" y="680" on="1"/>
        <pt x="839" y="680" on="1"/>
        <pt x="851" y="680" on="0"/>
        <pt x="866" y="677" on="0"/>
        <pt x="866" y="667" on="1"/>
        <pt x="866" y="653" on="0"/>
        <pt x="851" y="649" on="0"/>
        <pt x="837" y="649" on="1"/>
        <pt x="812" y="649" on="0"/>
        <pt x="783" y="645" on="0"/>
        <pt x="767" y="635" on="0"/>
        <pt x="759" y="618" on="0"/>
        <pt x="756" y="604" on="1"/>
      </contour>
    </TTGlyph>
    <TTGlyph name="Psi" xMin="214" yMin="0" xMax="843" yMax="683">
      <contour>
        <pt x="468" y="163" on="1"/>
        <pt x="522" y="176" on="0"/>
        <pt x="593" y="240" on="0"/>
        <pt x="639" y="316" on="0"/>
        <pt x="662" y="389" on="0"/>
        <pt x="668" y="411" on="1"/>
        <pt x="689" y="488" on="0"/>
        <pt x="744" y="555" on="0"/>
        <pt x="791" y="555" on="1"/>
        <pt x="817" y="555" on="1"/>
        <pt x="829" y="555" on="0"/>
        <pt x="843" y="552" on="0"/>
        <pt x="843" y="542" on="1"/>
        <pt x="843" y="540" on="0"/>
        <pt x="838" y="532" on="0"/>
        <pt x="833" y="531" on="1"/>
        <pt x="825" y="530" on="0"/>
        <pt x="803" y="523" on="0"/>
        <pt x="779" y="501" on="0"/>
        <pt x="756" y="458" on="0"/>
        <pt x="745" y="420" on="1"/>
        <pt x="738" y="393" on="0"/>
        <pt x="708" y="304" on="0"/>
        <pt x="645" y="215" on="0"/>
        <pt x="541" y="144" on="0"/>
        <pt x="461" y="135" on="1"/>
        <pt x="458" y="125" on="0"/>
        <pt x="452" y="98" on="0"/>
        <pt x="446" y="73" on="0"/>
        <pt x="442" y="54" on="0"/>
        <pt x="442" y="52" on="1"/>
        <pt x="442" y="47" on="0"/>
        <pt x="444" y="39" on="0"/>
        <pt x="458" y="34" on="0"/>
        <pt x="487" y="31" on="0"/>
        <pt x="514" y="31" on="1"/>
        <pt x="522" y="31" on="1"/>
        <pt x="534" y="31" on="0"/>
        <pt x="549" y="28" on="0"/>
        <pt x="549" y="18" on="1"/>
        <pt x="549" y="4" on="0"/>
        <pt x="534" y="0" on="0"/>
        <pt x="529" y="0" on="1"/>
        <pt x="495" y="0" on="0"/>
        <pt x="426" y="3" on="0"/>
        <pt x="391" y="3" on="1"/>
        <pt x="357" y="3" on="0"/>
        <pt x="287" y="0" on="0"/>
        <pt x="254" y="0" on="1"/>
        <pt x="249" y="0" on="0"/>
        <pt x="239" y="5" on="0"/>
        <pt x="239" y="13" on="1"/>
        <pt x="239" y="27" on="0"/>
        <pt x="254" y="31" on="0"/>
        <pt x="267" y="31" on="1"/>
        <pt x="276" y="31" on="1"/>
        <pt x="303" y="31" on="0"/>
        <pt x="335" y="35" on="0"/>
        <pt x="353" y="40" on="0"/>
        <pt x="360" y="47" on="0"/>
        <pt x="362" y="50" on="1"/>
        <pt x="364" y="54" on="0"/>
        <pt x="370" y="73" on="0"/>
        <pt x="377" y="98" on="0"/>
        <pt x="383" y="125" on="0"/>
        <pt x="386" y="136" on="1"/>
        <pt x="307" y="147" on="0"/>
        <pt x="235" y="245" on="0"/>
        <pt x="235" y="315" on="1"/>
        <pt x="235" y="325" on="0"/>
        <pt x="240" y="374" on="0"/>
        <pt x="248" y="407" on="1"/>
        <pt x="252" y="425" on="0"/>
        <pt x="259" y="464" on="0"/>
        <pt x="259" y="480" on="1"/>
        <pt x="259" y="497" on="0"/>
        <pt x="253" y="516" on="0"/>
        <pt x="244" y="527" on="0"/>
        <pt x="234" y="530" on="0"/>
        <pt x="230" y="530" on="1"/>
        <pt x="225" y="531" on="0"/>
        <pt x="214" y="534" on="0"/>
        <pt x="214" y="542" on="1"/>
        <pt x="214" y="552" on="0"/>
        <pt x="229" y="555" on="0"/>
        <pt x="241" y="555" on="1"/>
        <pt x="266" y="555" on="1"/>
        <pt x="274" y="555" on="0"/>
        <pt x="297" y="553" on="0"/>
        <pt x="318" y="539" on="0"/>
        <pt x="333" y="508" on="0"/>
        <pt x="333" y="480" on="1"/>
        <pt x="333" y="458" on="0"/>
        <pt x="324" y="412" on="0"/>
        <pt x="319" y="393" on="1"/>
        <pt x="312" y="367" on="0"/>
        <pt x="306" y="316" on="0"/>
        <pt x="306" y="297" on="1"/>
        <pt x="306" y="264" on="0"/>
        <pt x="320" y="216" on="0"/>
        <pt x="343" y="185" on="0"/>
        <pt x="375" y="167" on="0"/>
        <pt x="393" y="162" on="1"/>
        <pt x="505" y="611" on="1"/>
        <pt x="508" y="622" on="0"/>
        <pt x="509" y="629" on="0"/>
        <pt x="509" y="632" on="1"/>
        <pt x="509" y="643" on="0"/>
        <pt x="497" y="648" on="0"/>
        <pt x="480" y="650" on="1"/>
        <pt x="470" y="651" on="0"/>
        <pt x="447" y="652" on="0"/>
        <pt x="437" y="652" on="1"/>
        <pt x="428" y="652" on="1"/>
        <pt x="416" y="652" on="0"/>
        <pt x="402" y="655" on="0"/>
        <pt x="402" y="665" on="1"/>
        <pt x="402" y="679" on="0"/>
        <pt x="417" y="683" on="0"/>
        <pt x="422" y="683" on="1"/>
        <pt x="456" y="683" on="0"/>
        <pt x="525" y="680" on="0"/>
        <pt x="560" y="680" on="1"/>
        <pt x="594" y="680" on="0"/>
        <pt x="663" y="683" on="0"/>
        <pt x="696" y="683" on="1"/>
        <pt x="701" y="683" on="0"/>
        <pt x="712" y="678" on="0"/>
        <pt x="712" y="670" on="1"/>
        <pt x="712" y="656" on="0"/>
        <pt x="697" y="652" on="0"/>
        <pt x="684" y="652" on="1"/>
        <pt x="675" y="652" on="1"/>
        <pt x="645" y="652" on="0"/>
        <pt x="610" y="648" on="0"/>
        <pt x="591" y="637" on="0"/>
        <pt x="582" y="620" on="0"/>
        <pt x="579" y="607" on="1"/>
      </contour>
    </TTGlyph>
    <TTGlyph name="Q" xMin="150" yMin="-194" xMax="806" yMax="705">
      <contour>
        <pt x="514" y="5" on="1"/>
        <pt x="516" y="-28" on="0"/>
        <pt x="525" y="-70" on="0"/>
        <pt x="541" y="-93" on="0"/>
        <pt x="562" y="-101" on="0"/>
        <pt x="575" y="-101" on="1"/>
        <pt x="594" y="-101" on="0"/>
        <pt x="629" y="-85" on="0"/>
        <pt x="658" y="-58" on="0"/>
        <pt x="681" y="-23" on="0"/>
        <pt x="687" y="-4" on="1"/>
        <pt x="689" y="3" on="0"/>
        <pt x="694" y="12" on="0"/>
        <pt x="700" y="12" on="1"/>
        <pt x="705" y="12" on="0"/>
        <pt x="713" y="6" on="0"/>
        <pt x="713" y="0" on="1"/>
        <pt x="713" y="-2" on="0"/>
        <pt x="706" y="-31" on="0"/>
        <pt x="689" y="-75" on="0"/>
        <pt x="664" y="-124" on="0"/>
        <pt x="628" y="-166" on="0"/>
        <pt x="582" y="-194" on="0"/>
        <pt x="552" y="-194" on="1"/>
        <pt x="525" y="-194" on="0"/>
        <pt x="493" y="-175" on="0"/>
        <pt x="476" y="-146" on="0"/>
        <pt x="471" y="-112" on="0"/>
        <pt x="471" y="-96" on="1"/>
        <pt x="471" y="-79" on="0"/>
        <pt x="477" y="-26" on="0"/>
        <pt x="479" y="-8" on="1"/>
        <pt x="458" y="-14" on="0"/>
        <pt x="411" y="-22" on="0"/>
        <pt x="388" y="-22" on="1"/>
        <pt x="337" y="-22" on="0"/>
        <pt x="249" y="15" on="0"/>
        <pt x="186" y="83" on="0"/>
        <pt x="150" y="179" on="0"/>
        <pt x="150" y="239" on="1"/>
        <pt x="150" y="298" on="0"/>
        <pt x="183" y="412" on="0"/>
        <pt x="242" y="516" on="0"/>
        <pt x="322" y="604" on="0"/>
        <pt x="415" y="668" on="0"/>
        <pt x="517" y="705" on="0"/>
        <pt x="569" y="705" on="1"/>
        <pt x="622" y="705" on="0"/>
        <pt x="709" y="666" on="0"/>
        <pt x="772" y="596" on="0"/>
        <pt x="806" y="499" on="0"/>
        <pt x="806" y="441" on="1"/>
        <pt x="806" y="384" on="0"/>
        <pt x="769" y="257" on="0"/>
        <pt x="696" y="139" on="0"/>
        <pt x="587" y="37" on="0"/>
      </contour>
      <contour>
        <pt x="333" y="19" on="1"/>
        <pt x="331" y="24" on="0"/>
        <pt x="329" y="38" on="0"/>
        <pt x="329" y="45" on="1"/>
        <pt x="329" y="65" on="0"/>
        <pt x="346" y="103" on="0"/>
        <pt x="373" y="132" on="0"/>
        <pt x="409" y="149" on="0"/>
        <pt x="428" y="149" on="1"/>
        <pt x="465" y="149" on="0"/>
        <pt x="507" y="100" on="0"/>
        <pt x="512" y="43" on="1"/>
        <pt x="575" y="83" on="0"/>
        <pt x="657" y="202" on="0"/>
        <pt x="703" y="327" on="0"/>
        <pt x="721" y="439" on="0"/>
        <pt x="721" y="472" on="1"/>
        <pt x="721" y="529" on="0"/>
        <pt x="692" y="607" on="0"/>
        <pt x="646" y="656" on="0"/>
        <pt x="590" y="677" on="0"/>
        <pt x="562" y="677" on="1"/>
        <pt x="505" y="677" on="0"/>
        <pt x="383" y="601" on="0"/>
        <pt x="334" y="529" on="1"/>
        <pt x="306" y="487" on="0"/>
        <pt x="267" y="394" on="0"/>
        <pt x="244" y="306" on="0"/>
        <pt x="234" y="231" on="0"/>
        <pt x="234" y="208" on="1"/>
        <pt x="234" y="188" on="0"/>
        <pt x="241" y="134" on="0"/>
        <pt x="263" y="80" on="0"/>
        <pt x="302" y="33" on="0"/>
      </contour>
      <contour>
        <pt x="483" y="27" on="1"/>
        <pt x="483" y="48" on="0"/>
        <pt x="481" y="84" on="0"/>
        <pt x="471" y="110" on="0"/>
        <pt x="449" y="124" on="0"/>
        <pt x="429" y="124" on="1"/>
        <pt x="414" y="124" on="0"/>
        <pt x="387" y="110" on="0"/>
        <pt x="366" y="88" on="0"/>
        <pt x="354" y="60" on="0"/>
        <pt x="354" y="45" on="1"/>
        <pt x="354" y="30" on="0"/>
        <pt x="363" y="15" on="0"/>
        <pt x="376" y="7" on="0"/>
        <pt x="390" y="6" on="0"/>
        <pt x="395" y="6" on="1"/>
        <pt x="424" y="6" on="0"/>
        <pt x="472" y="22" on="0"/>
      </contour>
    </TTGlyph>
    <TTGlyph name="R" xMin="68" yMin="-22" xMax="742" yMax="683">
      <contour>
        <pt x="525" y="339" on="1"/>
        <pt x="563" y="322" on="0"/>
        <pt x="609" y="266" on="0"/>
        <pt x="609" y="222" on="1"/>
        <pt x="609" y="215" on="0"/>
        <pt x="607" y="192" on="0"/>
        <pt x="605" y="167" on="0"/>
        <pt x="602" y="143" on="0"/>
        <pt x="601" y="135" on="1"/>
        <pt x="600" y="129" on="0"/>
        <pt x="598" y="110" on="0"/>
        <pt x="596" y="88" on="0"/>
        <pt x="595" y="67" on="0"/>
        <pt x="595" y="60" on="1"/>
        <pt x="595" y="28" on="0"/>
        <pt x="612" y="3" on="0"/>
        <pt x="629" y="3" on="1"/>
        <pt x="651" y="3" on="0"/>
        <pt x="694" y="46" on="0"/>
        <pt x="708" y="92" on="1"/>
        <pt x="710" y="101" on="0"/>
        <pt x="716" y="107" on="0"/>
        <pt x="726" y="107" on="1"/>
        <pt x="728" y="107" on="0"/>
        <pt x="742" y="104" on="0"/>
        <pt x="742" y="95" on="1"/>
        <pt x="742" y="91" on="0"/>
        <pt x="730" y="53" on="0"/>
        <pt x="702" y="11" on="0"/>
        <pt x="657" y="-22" on="0"/>
        <pt x="625" y="-22" on="1"/>
        <pt x="618" y="-22" on="0"/>
        <pt x="578" y="-18" on="0"/>
        <pt x="535" y="3" on="0"/>
        <pt x="502" y="46" on="0"/>
        <pt x="502" y="85" on="1"/>
        <pt x="502" y="105" on="0"/>
        <pt x="516" y="163" on="0"/>
        <pt x="527" y="205" on="1"/>
        <pt x="530" y="216" on="0"/>
        <pt x="532" y="231" on="0"/>
        <pt x="532" y="241" on="1"/>
        <pt x="532" y="253" on="0"/>
        <pt x="525" y="284" on="0"/>
        <pt x="503" y="311" on="0"/>
        <pt x="465" y="329" on="0"/>
        <pt x="433" y="329" on="1"/>
        <pt x="319" y="329" on="1"/>
        <pt x="254" y="69" on="1"/>
        <pt x="251" y="58" on="0"/>
        <pt x="250" y="51" on="0"/>
        <pt x="250" y="48" on="1"/>
        <pt x="250" y="44" on="0"/>
        <pt x="252" y="38" on="0"/>
        <pt x="263" y="33" on="0"/>
        <pt x="286" y="31" on="0"/>
        <pt x="308" y="31" on="1"/>
        <pt x="320" y="31" on="0"/>
        <pt x="334" y="28" on="0"/>
        <pt x="334" y="18" on="1"/>
        <pt x="334" y="4" on="0"/>
        <pt x="320" y="0" on="0"/>
        <pt x="315" y="0" on="1"/>
        <pt x="287" y="0" on="0"/>
        <pt x="227" y="3" on="0"/>
        <pt x="198" y="3" on="1"/>
        <pt x="169" y="3" on="0"/>
        <pt x="111" y="0" on="0"/>
        <pt x="83" y="0" on="1"/>
        <pt x="77" y="0" on="0"/>
        <pt x="68" y="6" on="0"/>
        <pt x="68" y="13" on="1"/>
        <pt x="68" y="27" on="0"/>
        <pt x="83" y="31" on="0"/>
        <pt x="95" y="31" on="1"/>
        <pt x="120" y="31" on="0"/>
        <pt x="150" y="34" on="0"/>
        <pt x="166" y="43" on="0"/>
        <pt x="174" y="60" on="0"/>
        <pt x="177" y="73" on="1"/>
        <pt x="312" y="615" on="1"/>
        <pt x="315" y="626" on="0"/>
        <pt x="316" y="632" on="0"/>
        <pt x="316" y="635" on="1"/>
        <pt x="316" y="639" on="0"/>
        <pt x="314" y="645" on="0"/>
        <pt x="303" y="650" on="0"/>
        <pt x="280" y="652" on="0"/>
        <pt x="258" y="652" on="1"/>
        <pt x="246" y="652" on="0"/>
        <pt x="231" y="655" on="0"/>
        <pt x="231" y="665" on="1"/>
        <pt x="231" y="679" on="0"/>
        <pt x="246" y="683" on="0"/>
        <pt x="259" y="683" on="1"/>
        <pt x="527" y="683" on="1"/>
        <pt x="574" y="683" on="0"/>
        <pt x="650" y="660" on="0"/>
        <pt x="704" y="619" on="0"/>
        <pt x="734" y="565" on="0"/>
        <pt x="734" y="534" on="1"/>
        <pt x="734" y="501" on="0"/>
        <pt x="700" y="439" on="0"/>
        <pt x="643" y="387" on="0"/>
        <pt x="567" y="349" on="0"/>
      </contour>
      <contour>
        <pt x="432" y="354" on="1"/>
        <pt x="466" y="354" on="0"/>
        <pt x="545" y="372" on="0"/>
        <pt x="581" y="401" on="1"/>
        <pt x="598" y="415" on="0"/>
        <pt x="621" y="455" on="0"/>
        <pt x="637" y="498" on="0"/>
        <pt x="644" y="540" on="0"/>
        <pt x="644" y="555" on="1"/>
        <pt x="644" y="585" on="0"/>
        <pt x="620" y="622" on="0"/>
        <pt x="581" y="644" on="0"/>
        <pt x="532" y="652" on="0"/>
        <pt x="507" y="652" on="1"/>
        <pt x="438" y="652" on="1"/>
        <pt x="426" y="652" on="0"/>
        <pt x="411" y="651" on="0"/>
        <pt x="401" y="644" on="0"/>
        <pt x="393" y="630" on="0"/>
        <pt x="390" y="616" on="1"/>
        <pt x="325" y="354" on="1"/>
      </contour>
    </TTGlyph>
    <TTGlyph name="S" xMin="75" yMin="-22" xMax="644" yMax="705">
      <contour>
        <pt x="591" y="476" on="1"/>
        <pt x="587" y="462" on="0"/>
        <pt x="579" y="456" on="0"/>
        <pt x="571" y="456" on="1"/>
        <pt x="566" y="456" on="0"/>
        <pt x="554" y="459" on="0"/>
        <pt x="554" y="469" on="1"/>
        <pt x="554" y="471" on="0"/>
        <pt x="554" y="474" on="0"/>
        <pt x="556" y="480" on="1"/>
        <pt x="557" y="489" on="0"/>
        <pt x="559" y="500" on="0"/>
        <pt x="560" y="510" on="0"/>
        <pt x="560" y="524" on="0"/>
        <pt x="560" y="534" on="1"/>
        <pt x="560" y="561" on="0"/>
        <pt x="549" y="612" on="0"/>
        <pt x="520" y="653" on="0"/>
        <pt x="472" y="677" on="0"/>
        <pt x="435" y="677" on="1"/>
        <pt x="402" y="677" on="0"/>
        <pt x="341" y="647" on="0"/>
        <pt x="294" y="599" on="0"/>
        <pt x="266" y="538" on="0"/>
        <pt x="266" y="506" on="1"/>
        <pt x="266" y="474" on="0"/>
        <pt x="298" y="424" on="0"/>
        <pt x="327" y="414" on="1"/>
        <pt x="391" y="396" on="1"/>
        <pt x="421" y="388" on="0"/>
        <pt x="461" y="376" on="0"/>
        <pt x="488" y="364" on="0"/>
        <pt x="506" y="350" on="0"/>
        <pt x="516" y="338" on="1"/>
        <pt x="529" y="323" on="0"/>
        <pt x="543" y="291" on="0"/>
        <pt x="549" y="262" on="0"/>
        <pt x="550" y="240" on="0"/>
        <pt x="550" y="234" on="1"/>
        <pt x="550" y="186" on="0"/>
        <pt x="510" y="94" on="0"/>
        <pt x="443" y="22" on="0"/>
        <pt x="356" y="-22" on="0"/>
        <pt x="309" y="-22" on="1"/>
        <pt x="297" y="-22" on="0"/>
        <pt x="258" y="-18" on="0"/>
        <pt x="213" y="-4" on="0"/>
        <pt x="167" y="24" on="0"/>
        <pt x="150" y="48" on="1"/>
        <pt x="147" y="43" on="0"/>
        <pt x="122" y="11" on="0"/>
        <pt x="104" y="-10" on="1"/>
        <pt x="99" y="-17" on="0"/>
        <pt x="93" y="-22" on="0"/>
        <pt x="88" y="-22" on="1"/>
        <pt x="75" y="-22" on="0"/>
        <pt x="75" y="-10" on="1"/>
        <pt x="75" y="-8" on="0"/>
        <pt x="77" y="1" on="0"/>
        <pt x="78" y="3" on="1"/>
        <pt x="129" y="207" on="1"/>
        <pt x="132" y="221" on="0"/>
        <pt x="139" y="227" on="0"/>
        <pt x="149" y="227" on="1"/>
        <pt x="154" y="227" on="0"/>
        <pt x="166" y="224" on="0"/>
        <pt x="166" y="215" on="1"/>
        <pt x="166" y="213" on="0"/>
        <pt x="165" y="212" on="0"/>
        <pt x="165" y="210" on="1"/>
        <pt x="163" y="198" on="0"/>
        <pt x="157" y="166" on="0"/>
        <pt x="157" y="149" on="1"/>
        <pt x="157" y="109" on="0"/>
        <pt x="184" y="56" on="0"/>
        <pt x="227" y="23" on="0"/>
        <pt x="283" y="9" on="0"/>
        <pt x="311" y="9" on="1"/>
        <pt x="344" y="9" on="0"/>
        <pt x="407" y="42" on="0"/>
        <pt x="456" y="95" on="0"/>
        <pt x="485" y="163" on="0"/>
        <pt x="485" y="199" on="1"/>
        <pt x="485" y="226" on="0"/>
        <pt x="471" y="262" on="0"/>
        <pt x="450" y="285" on="0"/>
        <pt x="428" y="296" on="0"/>
        <pt x="420" y="298" on="1"/>
        <pt x="299" y="331" on="1"/>
        <pt x="294" y="333" on="0"/>
        <pt x="262" y="347" on="0"/>
        <pt x="228" y="378" on="0"/>
        <pt x="201" y="431" on="0"/>
        <pt x="201" y="470" on="1"/>
        <pt x="201" y="514" on="0"/>
        <pt x="240" y="598" on="0"/>
        <pt x="305" y="664" on="0"/>
        <pt x="391" y="705" on="0"/>
        <pt x="437" y="705" on="1"/>
        <pt x="472" y="705" on="0"/>
        <pt x="545" y="678" on="0"/>
        <pt x="570" y="637" on="1"/>
        <pt x="616" y="694" on="1"/>
        <pt x="622" y="702" on="0"/>
        <pt x="627" y="705" on="0"/>
        <pt x="632" y="705" on="1"/>
        <pt x="641" y="705" on="0"/>
        <pt x="644" y="695" on="0"/>
        <pt x="644" y="694" on="1"/>
        <pt x="644" y="687" on="0"/>
        <pt x="642" y="681" on="1"/>
      </contour>
    </TTGlyph>
    <TTGlyph name="Sigma" xMin="82" yMin="0" xMax="797" yMax="683">
      <contour>
        <pt x="153" y="41" on="1"/>
        <pt x="403" y="41" on="1"/>
        <pt x="469" y="41" on="0"/>
        <pt x="555" y="59" on="0"/>
        <pt x="615" y="101" on="0"/>
        <pt x="657" y="172" on="0"/>
        <pt x="678" y="225" on="1"/>
        <pt x="681" y="233" on="0"/>
        <pt x="691" y="235" on="0"/>
        <pt x="695" y="235" on="1"/>
        <pt x="698" y="235" on="0"/>
        <pt x="711" y="232" on="0"/>
        <pt x="711" y="222" on="1"/>
        <pt x="711" y="220" on="0"/>
        <pt x="707" y="209" on="1"/>
        <pt x="636" y="19" on="1"/>
        <pt x="631" y="5" on="0"/>
        <pt x="623" y="0" on="0"/>
        <pt x="606" y="0" on="1"/>
        <pt x="108" y="0" on="1"/>
        <pt x="96" y="0" on="0"/>
        <pt x="82" y="3" on="0"/>
        <pt x="82" y="13" on="1"/>
        <pt x="82" y="17" on="0"/>
        <pt x="86" y="23" on="0"/>
        <pt x="93" y="29" on="1"/>
        <pt x="386" y="307" on="1"/>
        <pt x="244" y="663" on="1"/>
        <pt x="244" y="678" on="0"/>
        <pt x="260" y="683" on="0"/>
        <pt x="273" y="683" on="1"/>
        <pt x="771" y="683" on="1"/>
        <pt x="782" y="683" on="0"/>
        <pt x="797" y="680" on="0"/>
        <pt x="797" y="670" on="1"/>
        <pt x="796" y="655" on="1"/>
        <pt x="775" y="481" on="1"/>
        <pt x="773" y="469" on="0"/>
        <pt x="768" y="458" on="0"/>
        <pt x="757" y="458" on="1"/>
        <pt x="751" y="458" on="0"/>
        <pt x="740" y="462" on="0"/>
        <pt x="740" y="473" on="1"/>
        <pt x="740" y="479" on="0"/>
        <pt x="744" y="509" on="0"/>
        <pt x="744" y="532" on="1"/>
        <pt x="744" y="566" on="0"/>
        <pt x="729" y="612" on="0"/>
        <pt x="690" y="640" on="0"/>
        <pt x="621" y="652" on="0"/>
        <pt x="567" y="652" on="1"/>
        <pt x="341" y="652" on="1"/>
        <pt x="459" y="355" on="1"/>
        <pt x="462" y="347" on="0"/>
        <pt x="463" y="343" on="0"/>
        <pt x="463" y="342" on="1"/>
        <pt x="463" y="337" on="0"/>
        <pt x="459" y="332" on="0"/>
        <pt x="452" y="325" on="1"/>
      </contour>
    </TTGlyph>
    <TTGlyph name="T" xMin="177" yMin="0" xMax="822" yMax="677">
      <contour>
        <pt x="426" y="73" on="1"/>
        <pt x="423" y="62" on="0"/>
        <pt x="422" y="56" on="0"/>
        <pt x="422" y="53" on="1"/>
        <pt x="422" y="41" on="0"/>
        <pt x="436" y="35" on="0"/>
        <pt x="453" y="33" on="1"/>
        <pt x="464" y="32" on="0"/>
        <pt x="492" y="31" on="0"/>
        <pt x="503" y="31" on="1"/>
        <pt x="518" y="31" on="1"/>
        <pt x="530" y="31" on="0"/>
        <pt x="544" y="28" on="0"/>
        <pt x="544" y="18" on="1"/>
        <pt x="544" y="4" on="0"/>
        <pt x="529" y="0" on="0"/>
        <pt x="523" y="0" on="1"/>
        <pt x="485" y="0" on="0"/>
        <pt x="406" y="3" on="0"/>
        <pt x="368" y="3" on="1"/>
        <pt x="330" y="3" on="0"/>
        <pt x="252" y="0" on="0"/>
        <pt x="214" y="0" on="1"/>
        <pt x="212" y="0" on="0"/>
        <pt x="197" y="3" on="0"/>
        <pt x="197" y="13" on="1"/>
        <pt x="197" y="27" on="0"/>
        <pt x="214" y="31" on="0"/>
        <pt x="226" y="31" on="1"/>
        <pt x="240" y="31" on="1"/>
        <pt x="274" y="31" on="0"/>
        <pt x="313" y="36" on="0"/>
        <pt x="334" y="46" on="0"/>
        <pt x="343" y="64" on="0"/>
        <pt x="346" y="77" on="1"/>
        <pt x="480" y="615" on="1"/>
        <pt x="483" y="626" on="0"/>
        <pt x="484" y="635" on="0"/>
        <pt x="484" y="643" on="1"/>
        <pt x="472" y="645" on="0"/>
        <pt x="440" y="646" on="0"/>
        <pt x="426" y="646" on="1"/>
        <pt x="376" y="646" on="0"/>
        <pt x="312" y="635" on="0"/>
        <pt x="268" y="601" on="0"/>
        <pt x="236" y="537" on="0"/>
        <pt x="217" y="483" on="1"/>
        <pt x="210" y="465" on="0"/>
        <pt x="207" y="457" on="0"/>
        <pt x="205" y="455" on="1"/>
        <pt x="203" y="453" on="0"/>
        <pt x="196" y="452" on="0"/>
        <pt x="193" y="452" on="1"/>
        <pt x="190" y="452" on="0"/>
        <pt x="177" y="455" on="0"/>
        <pt x="177" y="465" on="1"/>
        <pt x="177" y="466" on="0"/>
        <pt x="181" y="478" on="0"/>
        <pt x="181" y="479" on="1"/>
        <pt x="241" y="659" on="1"/>
        <pt x="246" y="673" on="0"/>
        <pt x="255" y="677" on="0"/>
        <pt x="271" y="677" on="1"/>
        <pt x="795" y="677" on="1"/>
        <pt x="808" y="677" on="0"/>
        <pt x="822" y="674" on="0"/>
        <pt x="822" y="663" on="1"/>
        <pt x="822" y="662" on="0"/>
        <pt x="820" y="653" on="0"/>
        <pt x="820" y="651" on="1"/>
        <pt x="792" y="473" on="1"/>
        <pt x="790" y="459" on="0"/>
        <pt x="782" y="452" on="0"/>
        <pt x="773" y="452" on="1"/>
        <pt x="771" y="452" on="0"/>
        <pt x="756" y="455" on="0"/>
        <pt x="756" y="465" on="1"/>
        <pt x="756" y="468" on="0"/>
        <pt x="759" y="486" on="0"/>
        <pt x="760" y="490" on="1"/>
        <pt x="760" y="493" on="0"/>
        <pt x="763" y="511" on="0"/>
        <pt x="766" y="535" on="0"/>
        <pt x="768" y="560" on="0"/>
        <pt x="768" y="570" on="1"/>
        <pt x="768" y="596" on="0"/>
        <pt x="754" y="626" on="0"/>
        <pt x="723" y="641" on="0"/>
        <pt x="673" y="646" on="0"/>
        <pt x="637" y="646" on="1"/>
        <pt x="623" y="646" on="0"/>
        <pt x="588" y="646" on="0"/>
        <pt x="583" y="644" on="1"/>
        <pt x="576" y="643" on="0"/>
        <pt x="565" y="633" on="0"/>
        <pt x="560" y="611" on="1"/>
      </contour>
    </TTGlyph>
    <TTGlyph name="Theta" xMin="150" yMin="-22" xMax="806" yMax="705">
      <contour>
        <pt x="806" y="441" on="1"/>
        <pt x="806" y="382" on="0"/>
        <pt x="773" y="268" on="0"/>
        <pt x="714" y="165" on="0"/>
        <pt x="634" y="77" on="0"/>
        <pt x="541" y="14" on="0"/>
        <pt x="440" y="-22" on="0"/>
        <pt x="388" y="-22" on="1"/>
        <pt x="337" y="-22" on="0"/>
        <pt x="249" y="15" on="0"/>
        <pt x="186" y="83" on="0"/>
        <pt x="150" y="179" on="0"/>
        <pt x="150" y="239" on="1"/>
        <pt x="150" y="298" on="0"/>
        <pt x="183" y="412" on="0"/>
        <pt x="242" y="516" on="0"/>
        <pt x="322" y="604" on="0"/>
        <pt x="415" y="668" on="0"/>
        <pt x="517" y="705" on="0"/>
        <pt x="569" y="705" on="1"/>
        <pt x="622" y="705" on="0"/>
        <pt x="709" y="666" on="0"/>
        <pt x="772" y="596" on="0"/>
        <pt x="806" y="499" on="0"/>
      </contour>
      <contour>
        <pt x="395" y="5" on="1"/>
        <pt x="427" y="5" on="0"/>
        <pt x="491" y="28" on="0"/>
        <pt x="549" y="66" on="0"/>
        <pt x="601" y="118" on="0"/>
        <pt x="621" y="146" on="1"/>
        <pt x="653" y="192" on="0"/>
        <pt x="693" y="288" on="0"/>
        <pt x="716" y="375" on="0"/>
        <pt x="724" y="449" on="0"/>
        <pt x="724" y="472" on="1"/>
        <pt x="724" y="529" on="0"/>
        <pt x="695" y="608" on="0"/>
        <pt x="649" y="658" on="0"/>
        <pt x="592" y="680" on="0"/>
        <pt x="563" y="680" on="1"/>
        <pt x="517" y="680" on="0"/>
        <pt x="432" y="640" on="0"/>
        <pt x="359" y="570" on="0"/>
        <pt x="298" y="478" on="0"/>
        <pt x="255" y="373" on="0"/>
        <pt x="232" y="263" on="0"/>
        <pt x="232" y="210" on="1"/>
        <pt x="232" y="155" on="0"/>
        <pt x="260" y="78" on="0"/>
        <pt x="306" y="28" on="0"/>
        <pt x="364" y="5" on="0"/>
      </contour>
      <contour>
        <pt x="642" y="294" on="1"/>
        <pt x="639" y="283" on="0"/>
        <pt x="634" y="274" on="0"/>
        <pt x="623" y="274" on="1"/>
        <pt x="619" y="274" on="0"/>
        <pt x="606" y="277" on="0"/>
        <pt x="606" y="288" on="1"/>
        <pt x="606" y="293" on="0"/>
        <pt x="609" y="304" on="0"/>
        <pt x="610" y="308" on="1"/>
        <pt x="329" y="308" on="1"/>
        <pt x="328" y="297" on="0"/>
        <pt x="320" y="274" on="0"/>
        <pt x="307" y="274" on="1"/>
        <pt x="304" y="274" on="0"/>
        <pt x="290" y="277" on="0"/>
        <pt x="290" y="287" on="1"/>
        <pt x="290" y="289" on="0"/>
        <pt x="291" y="294" on="0"/>
        <pt x="294" y="305" on="1"/>
        <pt x="315" y="391" on="1"/>
        <pt x="319" y="405" on="0"/>
        <pt x="327" y="411" on="0"/>
        <pt x="335" y="411" on="1"/>
        <pt x="338" y="411" on="0"/>
        <pt x="351" y="408" on="0"/>
        <pt x="351" y="398" on="1"/>
        <pt x="351" y="387" on="0"/>
        <pt x="347" y="377" on="1"/>
        <pt x="628" y="377" on="1"/>
        <pt x="629" y="388" on="0"/>
        <pt x="638" y="411" on="0"/>
        <pt x="651" y="411" on="1"/>
        <pt x="653" y="411" on="0"/>
        <pt x="667" y="408" on="0"/>
        <pt x="667" y="398" on="1"/>
        <pt x="665" y="384" on="1"/>
      </contour>
    </TTGlyph>
    <TTGlyph name="U" xMin="206" yMin="-22" xMax="866" yMax="683">
      <contour>
        <pt x="661" y="221" on="1"/>
        <pt x="650" y="177" on="0"/>
        <pt x="598" y="90" on="0"/>
        <pt x="526" y="21" on="0"/>
        <pt x="437" y="-22" on="0"/>
        <pt x="389" y="-22" on="1"/>
        <pt x="351" y="-22" on="0"/>
        <pt x="284" y="5" on="0"/>
        <pt x="235" y="54" on="0"/>
        <pt x="206" y="124" on="0"/>
        <pt x="206" y="167" on="1"/>
        <pt x="206" y="183" on="0"/>
        <pt x="211" y="218" on="0"/>
        <pt x="215" y="234" on="1"/>
        <pt x="310" y="615" on="1"/>
        <pt x="313" y="626" on="0"/>
        <pt x="314" y="632" on="0"/>
        <pt x="314" y="635" on="1"/>
        <pt x="314" y="639" on="0"/>
        <pt x="312" y="645" on="0"/>
        <pt x="301" y="650" on="0"/>
        <pt x="278" y="652" on="0"/>
        <pt x="256" y="652" on="1"/>
        <pt x="244" y="652" on="0"/>
        <pt x="229" y="655" on="0"/>
        <pt x="229" y="665" on="1"/>
        <pt x="229" y="679" on="0"/>
        <pt x="243" y="683" on="0"/>
        <pt x="248" y="683" on="1"/>
        <pt x="277" y="683" on="0"/>
        <pt x="338" y="680" on="0"/>
        <pt x="367" y="680" on="1"/>
        <pt x="396" y="680" on="0"/>
        <pt x="455" y="683" on="0"/>
        <pt x="484" y="683" on="1"/>
        <pt x="494" y="683" on="0"/>
        <pt x="498" y="672" on="0"/>
        <pt x="498" y="670" on="1"/>
        <pt x="498" y="656" on="0"/>
        <pt x="483" y="652" on="0"/>
        <pt x="469" y="652" on="1"/>
        <pt x="445" y="652" on="0"/>
        <pt x="416" y="648" on="0"/>
        <pt x="400" y="639" on="0"/>
        <pt x="393" y="623" on="0"/>
        <pt x="390" y="611" on="1"/>
        <pt x="291" y="214" on="1"/>
        <pt x="287" y="200" on="0"/>
        <pt x="281" y="158" on="0"/>
        <pt x="281" y="137" on="1"/>
        <pt x="281" y="101" on="0"/>
        <pt x="301" y="52" on="0"/>
        <pt x="332" y="22" on="0"/>
        <pt x="372" y="9" on="0"/>
        <pt x="392" y="9" on="1"/>
        <pt x="430" y="9" on="0"/>
        <pt x="504" y="43" on="0"/>
        <pt x="568" y="103" on="0"/>
        <pt x="617" y="183" on="0"/>
        <pt x="628" y="229" on="1"/>
        <pt x="718" y="592" on="1"/>
        <pt x="721" y="603" on="0"/>
        <pt x="721" y="610" on="1"/>
        <pt x="721" y="627" on="0"/>
        <pt x="698" y="650" on="0"/>
        <pt x="663" y="652" on="1"/>
        <pt x="656" y="652" on="0"/>
        <pt x="643" y="656" on="0"/>
        <pt x="643" y="665" on="1"/>
        <pt x="643" y="679" on="0"/>
        <pt x="657" y="683" on="0"/>
        <pt x="661" y="683" on="1"/>
        <pt x="684" y="683" on="0"/>
        <pt x="734" y="680" on="0"/>
        <pt x="758" y="680" on="1"/>
        <pt x="781" y="680" on="0"/>
        <pt x="830" y="683" on="0"/>
        <pt x="853" y="683" on="1"/>
        <pt x="861" y="683" on="0"/>
        <pt x="866" y="674" on="0"/>
        <pt x="866" y="670" on="1"/>
        <pt x="866" y="657" on="0"/>
        <pt x="852" y="652" on="0"/>
        <pt x="847" y="652" on="1"/>
        <pt x="832" y="651" on="0"/>
        <pt x="802" y="646" on="0"/>
        <pt x="776" y="630" on="0"/>
        <pt x="755" y="601" on="0"/>
        <pt x="749" y="577" on="1"/>
      </contour>
    </TTGlyph>
    <TTGlyph name="Upsilon" xMin="215" yMin="0" xMax="851" yMax="705">
      <contour>
        <pt x="452" y="74" on="1"/>
        <pt x="449" y="63" on="0"/>
        <pt x="448" y="56" on="0"/>
        <pt x="448" y="52" on="1"/>
        <pt x="448" y="47" on="0"/>
        <pt x="450" y="39" on="0"/>
        <pt x="464" y="34" on="0"/>
        <pt x="493" y="31" on="0"/>
        <pt x="520" y="31" on="1"/>
        <pt x="528" y="31" on="1"/>
        <pt x="540" y="31" on="0"/>
        <pt x="555" y="28" on="0"/>
        <pt x="555" y="18" on="1"/>
        <pt x="555" y="4" on="0"/>
        <pt x="540" y="0" on="0"/>
        <pt x="535" y="0" on="1"/>
        <pt x="500" y="0" on="0"/>
        <pt x="428" y="3" on="0"/>
        <pt x="393" y="3" on="1"/>
        <pt x="358" y="3" on="0"/>
        <pt x="288" y="0" on="0"/>
        <pt x="254" y="0" on="1"/>
        <pt x="249" y="0" on="0"/>
        <pt x="239" y="5" on="0"/>
        <pt x="239" y="13" on="1"/>
        <pt x="239" y="27" on="0"/>
        <pt x="254" y="31" on="0"/>
        <pt x="267" y="31" on="1"/>
        <pt x="276" y="31" on="1"/>
        <pt x="306" y="31" on="0"/>
        <pt x="341" y="35" on="0"/>
        <pt x="361" y="46" on="0"/>
        <pt x="369" y="64" on="0"/>
        <pt x="372" y="77" on="1"/>
        <pt x="445" y="370" on="1"/>
        <pt x="447" y="377" on="0"/>
        <pt x="453" y="406" on="0"/>
        <pt x="458" y="442" on="0"/>
        <pt x="462" y="482" on="0"/>
        <pt x="462" y="500" on="1"/>
        <pt x="462" y="524" on="0"/>
        <pt x="454" y="572" on="0"/>
        <pt x="433" y="611" on="0"/>
        <pt x="395" y="635" on="0"/>
        <pt x="364" y="635" on="1"/>
        <pt x="348" y="635" on="0"/>
        <pt x="314" y="625" on="0"/>
        <pt x="282" y="604" on="0"/>
        <pt x="257" y="572" on="0"/>
        <pt x="249" y="549" on="1"/>
        <pt x="247" y="543" on="0"/>
        <pt x="240" y="534" on="0"/>
        <pt x="229" y="534" on="1"/>
        <pt x="224" y="534" on="0"/>
        <pt x="215" y="536" on="0"/>
        <pt x="215" y="544" on="1"/>
        <pt x="215" y="553" on="0"/>
        <pt x="236" y="606" on="0"/>
        <pt x="278" y="661" on="0"/>
        <pt x="340" y="705" on="0"/>
        <pt x="382" y="705" on="1"/>
        <pt x="431" y="705" on="0"/>
        <pt x="484" y="659" on="0"/>
        <pt x="508" y="597" on="0"/>
        <pt x="512" y="537" on="0"/>
        <pt x="512" y="523" on="1"/>
        <pt x="512" y="509" on="0"/>
        <pt x="511" y="488" on="0"/>
        <pt x="509" y="468" on="1"/>
        <pt x="510" y="468" on="1"/>
        <pt x="520" y="491" on="0"/>
        <pt x="559" y="571" on="0"/>
        <pt x="619" y="648" on="0"/>
        <pt x="703" y="705" on="0"/>
        <pt x="757" y="705" on="1"/>
        <pt x="784" y="705" on="0"/>
        <pt x="820" y="684" on="0"/>
        <pt x="842" y="652" on="0"/>
        <pt x="851" y="613" on="0"/>
        <pt x="851" y="595" on="1"/>
        <pt x="851" y="566" on="0"/>
        <pt x="840" y="534" on="0"/>
        <pt x="825" y="534" on="1"/>
        <pt x="821" y="534" on="0"/>
        <pt x="811" y="536" on="0"/>
        <pt x="811" y="544" on="1"/>
        <pt x="811" y="548" on="0"/>
        <pt x="813" y="556" on="0"/>
        <pt x="813" y="567" on="1"/>
        <pt x="813" y="596" on="0"/>
        <pt x="775" y="635" on="0"/>
        <pt x="739" y="635" on="1"/>
        <pt x="703" y="635" on="0"/>
        <pt x="644" y="601" on="0"/>
        <pt x="598" y="546" on="0"/>
        <pt x="563" y="477" on="0"/>
        <pt x="537" y="408" on="0"/>
        <pt x="520" y="346" on="0"/>
        <pt x="515" y="325" on="1"/>
      </contour>
    </TTGlyph>
    <TTGlyph name="V" xMin="211" yMin="-22" xMax="885" yMax="683">
      <contour>
        <pt x="405" y="-3" on="1"/>
        <pt x="400" y="-11" on="0"/>
        <pt x="389" y="-22" on="0"/>
        <pt x="376" y="-22" on="1"/>
        <pt x="362" y="-22" on="0"/>
        <pt x="357" y="-11" on="0"/>
        <pt x="355" y="3" on="1"/>
        <pt x="287" y="621" on="1"/>
        <pt x="286" y="630" on="0"/>
        <pt x="284" y="641" on="0"/>
        <pt x="273" y="649" on="0"/>
        <pt x="253" y="652" on="0"/>
        <pt x="234" y="652" on="1"/>
        <pt x="225" y="652" on="0"/>
        <pt x="211" y="655" on="0"/>
        <pt x="211" y="665" on="1"/>
        <pt x="211" y="679" on="0"/>
        <pt x="225" y="683" on="0"/>
        <pt x="229" y="683" on="1"/>
        <pt x="253" y="683" on="0"/>
        <pt x="305" y="680" on="0"/>
        <pt x="330" y="680" on="1"/>
        <pt x="358" y="680" on="0"/>
        <pt x="415" y="683" on="0"/>
        <pt x="442" y="683" on="1"/>
        <pt x="451" y="683" on="0"/>
        <pt x="457" y="674" on="0"/>
        <pt x="457" y="670" on="1"/>
        <pt x="457" y="656" on="0"/>
        <pt x="441" y="652" on="0"/>
        <pt x="431" y="652" on="1"/>
        <pt x="408" y="652" on="0"/>
        <pt x="383" y="644" on="0"/>
        <pt x="371" y="632" on="0"/>
        <pt x="369" y="616" on="0"/>
        <pt x="370" y="608" on="1"/>
        <pt x="427" y="92" on="1"/>
        <pt x="724" y="579" on="1"/>
        <pt x="729" y="587" on="0"/>
        <pt x="740" y="609" on="0"/>
        <pt x="740" y="621" on="1"/>
        <pt x="740" y="632" on="0"/>
        <pt x="730" y="644" on="0"/>
        <pt x="716" y="650" on="0"/>
        <pt x="702" y="652" on="0"/>
        <pt x="699" y="652" on="1"/>
        <pt x="697" y="652" on="0"/>
        <pt x="685" y="656" on="0"/>
        <pt x="685" y="665" on="1"/>
        <pt x="685" y="679" on="0"/>
        <pt x="700" y="683" on="0"/>
        <pt x="703" y="683" on="1"/>
        <pt x="725" y="683" on="0"/>
        <pt x="772" y="680" on="0"/>
        <pt x="795" y="680" on="1"/>
        <pt x="833" y="680" on="0"/>
        <pt x="869" y="683" on="0"/>
        <pt x="872" y="683" on="1"/>
        <pt x="885" y="683" on="0"/>
        <pt x="885" y="670" on="1"/>
        <pt x="885" y="658" on="0"/>
        <pt x="873" y="653" on="0"/>
        <pt x="865" y="652" on="1"/>
        <pt x="850" y="651" on="0"/>
        <pt x="823" y="642" on="0"/>
        <pt x="796" y="624" on="0"/>
        <pt x="768" y="592" on="0"/>
        <pt x="753" y="568" on="1"/>
      </contour>
    </TTGlyph>
    <TTGlyph name="W" xMin="210" yMin="-22" xMax="1148" yMax="683">
      <contour>
        <pt x="712" y="-3" on="1"/>
        <pt x="704" y="-17" on="0"/>
        <pt x="690" y="-22" on="0"/>
        <pt x="683" y="-22" on="1"/>
        <pt x="669" y="-22" on="0"/>
        <pt x="665" y="-10" on="0"/>
        <pt x="664" y="5" on="1"/>
        <pt x="638" y="505" on="1"/>
        <pt x="358" y="-3" on="1"/>
        <pt x="353" y="-11" on="0"/>
        <pt x="343" y="-22" on="0"/>
        <pt x="330" y="-22" on="1"/>
        <pt x="316" y="-22" on="0"/>
        <pt x="312" y="-11" on="0"/>
        <pt x="311" y="3" on="1"/>
        <pt x="279" y="618" on="1"/>
        <pt x="279" y="628" on="0"/>
        <pt x="277" y="641" on="0"/>
        <pt x="268" y="649" on="0"/>
        <pt x="250" y="652" on="0"/>
        <pt x="233" y="652" on="1"/>
        <pt x="224" y="652" on="0"/>
        <pt x="210" y="655" on="0"/>
        <pt x="210" y="665" on="1"/>
        <pt x="210" y="679" on="0"/>
        <pt x="224" y="683" on="0"/>
        <pt x="228" y="683" on="1"/>
        <pt x="251" y="683" on="0"/>
        <pt x="302" y="680" on="0"/>
        <pt x="326" y="680" on="1"/>
        <pt x="353" y="680" on="0"/>
        <pt x="409" y="683" on="0"/>
        <pt x="435" y="683" on="1"/>
        <pt x="441" y="683" on="0"/>
        <pt x="450" y="677" on="0"/>
        <pt x="450" y="670" on="1"/>
        <pt x="450" y="656" on="0"/>
        <pt x="436" y="652" on="0"/>
        <pt x="425" y="652" on="1"/>
        <pt x="400" y="652" on="0"/>
        <pt x="373" y="642" on="0"/>
        <pt x="361" y="628" on="0"/>
        <pt x="360" y="612" on="0"/>
        <pt x="360" y="604" on="1"/>
        <pt x="386" y="111" on="1"/>
        <pt x="629" y="552" on="1"/>
        <pt x="634" y="560" on="0"/>
        <pt x="635" y="567" on="0"/>
        <pt x="635" y="572" on="1"/>
        <pt x="635" y="575" on="0"/>
        <pt x="634" y="594" on="0"/>
        <pt x="633" y="615" on="0"/>
        <pt x="631" y="633" on="0"/>
        <pt x="631" y="635" on="1"/>
        <pt x="629" y="643" on="0"/>
        <pt x="615" y="652" on="0"/>
        <pt x="585" y="652" on="1"/>
        <pt x="577" y="652" on="0"/>
        <pt x="563" y="655" on="0"/>
        <pt x="563" y="665" on="1"/>
        <pt x="563" y="679" on="0"/>
        <pt x="579" y="683" on="0"/>
        <pt x="582" y="683" on="1"/>
        <pt x="605" y="683" on="0"/>
        <pt x="655" y="680" on="0"/>
        <pt x="679" y="680" on="1"/>
        <pt x="706" y="680" on="0"/>
        <pt x="763" y="683" on="0"/>
        <pt x="789" y="683" on="1"/>
        <pt x="799" y="683" on="0"/>
        <pt x="803" y="672" on="0"/>
        <pt x="803" y="670" on="1"/>
        <pt x="803" y="656" on="0"/>
        <pt x="788" y="652" on="0"/>
        <pt x="780" y="652" on="1"/>
        <pt x="754" y="652" on="0"/>
        <pt x="726" y="642" on="0"/>
        <pt x="714" y="628" on="0"/>
        <pt x="713" y="612" on="0"/>
        <pt x="713" y="606" on="1"/>
        <pt x="739" y="111" on="1"/>
        <pt x="996" y="578" on="1"/>
        <pt x="1000" y="585" on="0"/>
        <pt x="1010" y="606" on="0"/>
        <pt x="1010" y="615" on="1"/>
        <pt x="1010" y="628" on="0"/>
        <pt x="997" y="642" on="0"/>
        <pt x="979" y="650" on="0"/>
        <pt x="962" y="652" on="0"/>
        <pt x="958" y="652" on="1"/>
        <pt x="955" y="652" on="0"/>
        <pt x="943" y="656" on="0"/>
        <pt x="943" y="665" on="1"/>
        <pt x="943" y="679" on="0"/>
        <pt x="957" y="683" on="0"/>
        <pt x="962" y="683" on="1"/>
        <pt x="985" y="683" on="0"/>
        <pt x="1035" y="680" on="0"/>
        <pt x="1059" y="680" on="1"/>
        <pt x="1098" y="680" on="0"/>
        <pt x="1131" y="683" on="0"/>
        <pt x="1135" y="683" on="1"/>
        <pt x="1148" y="683" on="0"/>
        <pt x="1148" y="670" on="1"/>
        <pt x="1148" y="663" on="0"/>
        <pt x="1142" y="653" on="0"/>
        <pt x="1134" y="652" on="1"/>
        <pt x="1118" y="651" on="0"/>
        <pt x="1090" y="643" on="0"/>
        <pt x="1065" y="624" on="0"/>
        <pt x="1040" y="591" on="0"/>
        <pt x="1025" y="565" on="1"/>
      </contour>
    </TTGlyph>
    <TTGlyph name="X" xMin="53" yMin="0" xMax="840" yMax="683">
      <contour>
        <pt x="629" y="60" on="1"/>
        <pt x="632" y="53" on="0"/>
        <pt x="637" y="43" on="0"/>
        <pt x="650" y="35" on="0"/>
        <pt x="673" y="31" on="0"/>
        <pt x="692" y="31" on="1"/>
        <pt x="703" y="31" on="0"/>
        <pt x="717" y="28" on="0"/>
        <pt x="717" y="18" on="1"/>
        <pt x="717" y="4" on="0"/>
        <pt x="703" y="0" on="0"/>
        <pt x="699" y="0" on="1"/>
        <pt x="674" y="0" on="0"/>
        <pt x="621" y="3" on="0"/>
        <pt x="595" y="3" on="1"/>
        <pt x="567" y="3" on="0"/>
        <pt x="510" y="0" on="0"/>
        <pt x="483" y="0" on="1"/>
        <pt x="477" y="0" on="0"/>
        <pt x="468" y="6" on="0"/>
        <pt x="468" y="13" on="1"/>
        <pt x="468" y="26" on="0"/>
        <pt x="480" y="30" on="0"/>
        <pt x="487" y="31" on="1"/>
        <pt x="509" y="33" on="0"/>
        <pt x="539" y="53" on="0"/>
        <pt x="539" y="61" on="1"/>
        <pt x="539" y="64" on="0"/>
        <pt x="537" y="71" on="0"/>
        <pt x="536" y="73" on="1"/>
        <pt x="441" y="312" on="1"/>
        <pt x="251" y="101" on="1"/>
        <pt x="247" y="97" on="0"/>
        <pt x="228" y="72" on="0"/>
        <pt x="228" y="59" on="1"/>
        <pt x="228" y="50" on="0"/>
        <pt x="237" y="39" on="0"/>
        <pt x="248" y="33" on="0"/>
        <pt x="259" y="31" on="0"/>
        <pt x="261" y="31" on="1"/>
        <pt x="263" y="31" on="0"/>
        <pt x="274" y="27" on="0"/>
        <pt x="274" y="18" on="1"/>
        <pt x="274" y="4" on="0"/>
        <pt x="260" y="0" on="0"/>
        <pt x="255" y="0" on="1"/>
        <pt x="231" y="0" on="0"/>
        <pt x="179" y="3" on="0"/>
        <pt x="154" y="3" on="1"/>
        <pt x="132" y="3" on="0"/>
        <pt x="87" y="0" on="0"/>
        <pt x="67" y="0" on="1"/>
        <pt x="53" y="0" on="0"/>
        <pt x="53" y="13" on="1"/>
        <pt x="53" y="25" on="0"/>
        <pt x="65" y="30" on="0"/>
        <pt x="74" y="31" on="1"/>
        <pt x="84" y="32" on="0"/>
        <pt x="114" y="36" on="0"/>
        <pt x="151" y="53" on="0"/>
        <pt x="197" y="86" on="0"/>
        <pt x="224" y="116" on="1"/>
        <pt x="428" y="343" on="1"/>
        <pt x="317" y="623" on="1"/>
        <pt x="314" y="630" on="0"/>
        <pt x="309" y="641" on="0"/>
        <pt x="296" y="648" on="0"/>
        <pt x="274" y="652" on="0"/>
        <pt x="254" y="652" on="1"/>
        <pt x="243" y="652" on="0"/>
        <pt x="229" y="655" on="0"/>
        <pt x="229" y="665" on="1"/>
        <pt x="229" y="679" on="0"/>
        <pt x="243" y="683" on="0"/>
        <pt x="247" y="683" on="1"/>
        <pt x="272" y="683" on="0"/>
        <pt x="325" y="680" on="0"/>
        <pt x="351" y="680" on="1"/>
        <pt x="379" y="680" on="0"/>
        <pt x="436" y="683" on="0"/>
        <pt x="463" y="683" on="1"/>
        <pt x="469" y="683" on="0"/>
        <pt x="478" y="677" on="0"/>
        <pt x="478" y="670" on="1"/>
        <pt x="478" y="657" on="0"/>
        <pt x="466" y="653" on="0"/>
        <pt x="459" y="652" on="1"/>
        <pt x="435" y="650" on="0"/>
        <pt x="406" y="629" on="0"/>
        <pt x="406" y="622" on="1"/>
        <pt x="406" y="621" on="0"/>
        <pt x="409" y="611" on="0"/>
        <pt x="410" y="610" on="1"/>
        <pt x="489" y="411" on="1"/>
        <pt x="642" y="581" on="1"/>
        <pt x="643" y="582" on="0"/>
        <pt x="650" y="590" on="0"/>
        <pt x="658" y="603" on="0"/>
        <pt x="665" y="617" on="0"/>
        <pt x="665" y="624" on="1"/>
        <pt x="665" y="633" on="0"/>
        <pt x="657" y="644" on="0"/>
        <pt x="646" y="650" on="0"/>
        <pt x="636" y="652" on="0"/>
        <pt x="633" y="652" on="1"/>
        <pt x="631" y="652" on="0"/>
        <pt x="619" y="656" on="0"/>
        <pt x="619" y="665" on="1"/>
        <pt x="619" y="679" on="0"/>
        <pt x="633" y="683" on="0"/>
        <pt x="638" y="683" on="1"/>
        <pt x="662" y="683" on="0"/>
        <pt x="713" y="680" on="0"/>
        <pt x="739" y="680" on="1"/>
        <pt x="761" y="680" on="0"/>
        <pt x="807" y="683" on="0"/>
        <pt x="827" y="683" on="1"/>
        <pt x="835" y="683" on="0"/>
        <pt x="840" y="673" on="0"/>
        <pt x="840" y="670" on="1"/>
        <pt x="840" y="658" on="0"/>
        <pt x="828" y="653" on="0"/>
        <pt x="818" y="652" on="1"/>
        <pt x="807" y="651" on="0"/>
        <pt x="777" y="646" on="0"/>
        <pt x="741" y="630" on="0"/>
        <pt x="702" y="601" on="0"/>
        <pt x="681" y="577" on="1"/>
        <pt x="675" y="573" on="0"/>
        <pt x="669" y="567" on="1"/>
        <pt x="502" y="380" on="1"/>
      </contour>
    </TTGlyph>
    <TTGlyph name="Xi" xMin="77" yMin="0" xMax="768" yMax="677">
      <contour>
        <pt x="746" y="547" on="1"/>
        <pt x="744" y="535" on="0"/>
        <pt x="739" y="527" on="0"/>
        <pt x="728" y="527" on="1"/>
        <pt x="724" y="527" on="0"/>
        <pt x="711" y="530" on="0"/>
        <pt x="711" y="541" on="1"/>
        <pt x="711" y="543" on="0"/>
        <pt x="714" y="557" on="0"/>
        <pt x="715" y="562" on="1"/>
        <pt x="718" y="579" on="0"/>
        <pt x="719" y="598" on="0"/>
        <pt x="719" y="610" on="1"/>
        <pt x="718" y="610" on="0"/>
        <pt x="707" y="611" on="0"/>
        <pt x="689" y="612" on="0"/>
        <pt x="668" y="613" on="0"/>
        <pt x="658" y="613" on="1"/>
        <pt x="335" y="613" on="1"/>
        <pt x="330" y="613" on="0"/>
        <pt x="313" y="613" on="0"/>
        <pt x="294" y="612" on="0"/>
        <pt x="277" y="611" on="0"/>
        <pt x="272" y="610" on="1"/>
        <pt x="265" y="608" on="0"/>
        <pt x="250" y="570" on="0"/>
        <pt x="241" y="542" on="1"/>
        <pt x="239" y="534" on="0"/>
        <pt x="233" y="527" on="0"/>
        <pt x="223" y="527" on="1"/>
        <pt x="220" y="527" on="0"/>
        <pt x="206" y="530" on="0"/>
        <pt x="206" y="540" on="1"/>
        <pt x="206" y="543" on="0"/>
        <pt x="210" y="553" on="1"/>
        <pt x="243" y="658" on="1"/>
        <pt x="248" y="672" on="0"/>
        <pt x="255" y="677" on="0"/>
        <pt x="272" y="677" on="1"/>
        <pt x="741" y="677" on="1"/>
        <pt x="754" y="677" on="0"/>
        <pt x="768" y="674" on="0"/>
        <pt x="768" y="663" on="1"/>
        <pt x="768" y="661" on="0"/>
        <pt x="766" y="653" on="0"/>
        <pt x="766" y="651" on="1"/>
      </contour>
      <contour>
        <pt x="101" y="141" on="1"/>
        <pt x="103" y="153" on="0"/>
        <pt x="108" y="161" on="0"/>
        <pt x="119" y="161" on="1"/>
        <pt x="123" y="161" on="0"/>
        <pt x="136" y="158" on="0"/>
        <pt x="136" y="147" on="1"/>
        <pt x="136" y="145" on="0"/>
        <pt x="135" y="142" on="0"/>
        <pt x="134" y="137" on="1"/>
        <pt x="131" y="120" on="0"/>
        <pt x="126" y="84" on="0"/>
        <pt x="126" y="74" on="1"/>
        <pt x="126" y="66" on="0"/>
        <pt x="161" y="64" on="0"/>
        <pt x="190" y="64" on="1"/>
        <pt x="517" y="64" on="1"/>
        <pt x="521" y="64" on="0"/>
        <pt x="543" y="64" on="0"/>
        <pt x="567" y="66" on="0"/>
        <pt x="587" y="68" on="0"/>
        <pt x="589" y="71" on="1"/>
        <pt x="593" y="76" on="0"/>
        <pt x="601" y="96" on="0"/>
        <pt x="608" y="115" on="0"/>
        <pt x="613" y="131" on="0"/>
        <pt x="614" y="133" on="1"/>
        <pt x="620" y="153" on="0"/>
        <pt x="626" y="161" on="0"/>
        <pt x="636" y="161" on="1"/>
        <pt x="639" y="161" on="0"/>
        <pt x="653" y="158" on="0"/>
        <pt x="653" y="148" on="1"/>
        <pt x="653" y="146" on="0"/>
        <pt x="642" y="107" on="0"/>
        <pt x="627" y="61" on="0"/>
        <pt x="614" y="19" on="0"/>
        <pt x="612" y="14" on="1"/>
        <pt x="608" y="3" on="0"/>
        <pt x="600" y="0" on="0"/>
        <pt x="584" y="0" on="1"/>
        <pt x="103" y="0" on="1"/>
        <pt x="91" y="0" on="0"/>
        <pt x="77" y="3" on="0"/>
        <pt x="77" y="13" on="1"/>
      </contour>
      <contour>
        <pt x="598" y="293" on="1"/>
        <pt x="594" y="278" on="0"/>
        <pt x="586" y="273" on="0"/>
        <pt x="578" y="273" on="1"/>
        <pt x="575" y="273" on="0"/>
        <pt x="562" y="276" on="0"/>
        <pt x="562" y="286" on="1"/>
        <pt x="562" y="287" on="0"/>
        <pt x="564" y="296" on="0"/>
        <pt x="566" y="308" on="0"/>
        <pt x="569" y="319" on="0"/>
        <pt x="569" y="320" on="1"/>
        <pt x="271" y="320" on="1"/>
        <pt x="267" y="303" on="0"/>
        <pt x="265" y="292" on="0"/>
        <pt x="264" y="290" on="1"/>
        <pt x="261" y="279" on="0"/>
        <pt x="254" y="273" on="0"/>
        <pt x="245" y="273" on="1"/>
        <pt x="242" y="273" on="0"/>
        <pt x="229" y="276" on="0"/>
        <pt x="229" y="286" on="1"/>
        <pt x="229" y="288" on="0"/>
        <pt x="229" y="293" on="0"/>
        <pt x="231" y="299" on="1"/>
        <pt x="259" y="411" on="1"/>
        <pt x="263" y="425" on="0"/>
        <pt x="271" y="431" on="0"/>
        <pt x="279" y="431" on="1"/>
        <pt x="282" y="431" on="0"/>
        <pt x="295" y="428" on="0"/>
        <pt x="295" y="418" on="1"/>
        <pt x="295" y="417" on="0"/>
        <pt x="293" y="408" on="0"/>
        <pt x="291" y="396" on="0"/>
        <pt x="288" y="386" on="0"/>
        <pt x="288" y="384" on="1"/>
        <pt x="586" y="384" on="1"/>
        <pt x="590" y="401" on="0"/>
        <pt x="592" y="412" on="0"/>
        <pt x="593" y="414" on="1"/>
        <pt x="596" y="425" on="0"/>
        <pt x="603" y="431" on="0"/>
        <pt x="612" y="431" on="1"/>
        <pt x="615" y="431" on="0"/>
        <pt x="628" y="428" on="0"/>
        <pt x="628" y="418" on="1"/>
        <pt x="626" y="405" on="1"/>
      </contour>
    </TTGlyph>
    <TTGlyph name="Y" xMin="205" yMin="0" xMax="891" yMax="683">
      <contour>
        <pt x="488" y="272" on="1"/>
        <pt x="445" y="99" on="1"/>
        <pt x="442" y="87" on="0"/>
        <pt x="434" y="54" on="0"/>
        <pt x="434" y="49" on="1"/>
        <pt x="434" y="45" on="0"/>
        <pt x="436" y="38" on="0"/>
        <pt x="447" y="33" on="0"/>
        <pt x="470" y="31" on="0"/>
        <pt x="492" y="31" on="1"/>
        <pt x="504" y="31" on="0"/>
        <pt x="518" y="28" on="0"/>
        <pt x="518" y="18" on="1"/>
        <pt x="518" y="4" on="0"/>
        <pt x="504" y="0" on="0"/>
        <pt x="499" y="0" on="1"/>
        <pt x="471" y="0" on="0"/>
        <pt x="411" y="3" on="0"/>
        <pt x="382" y="3" on="1"/>
        <pt x="353" y="3" on="0"/>
        <pt x="295" y="0" on="0"/>
        <pt x="267" y="0" on="1"/>
        <pt x="261" y="0" on="0"/>
        <pt x="252" y="6" on="0"/>
        <pt x="252" y="13" on="1"/>
        <pt x="252" y="27" on="0"/>
        <pt x="267" y="31" on="0"/>
        <pt x="278" y="31" on="1"/>
        <pt x="305" y="31" on="0"/>
        <pt x="336" y="34" on="0"/>
        <pt x="352" y="46" on="0"/>
        <pt x="360" y="69" on="0"/>
        <pt x="365" y="90" on="1"/>
        <pt x="366" y="95" on="0"/>
        <pt x="374" y="125" on="0"/>
        <pt x="384" y="165" on="0"/>
        <pt x="395" y="209" on="0"/>
        <pt x="405" y="246" on="0"/>
        <pt x="411" y="272" on="0"/>
        <pt x="411" y="273" on="1"/>
        <pt x="411" y="274" on="0"/>
        <pt x="407" y="285" on="0"/>
        <pt x="406" y="287" on="1"/>
        <pt x="291" y="623" on="1"/>
        <pt x="288" y="631" on="0"/>
        <pt x="282" y="642" on="0"/>
        <pt x="269" y="649" on="0"/>
        <pt x="246" y="652" on="0"/>
        <pt x="228" y="652" on="1"/>
        <pt x="219" y="652" on="0"/>
        <pt x="205" y="655" on="0"/>
        <pt x="205" y="665" on="1"/>
        <pt x="205" y="679" on="0"/>
        <pt x="220" y="683" on="0"/>
        <pt x="223" y="683" on="1"/>
        <pt x="248" y="683" on="0"/>
        <pt x="301" y="680" on="0"/>
        <pt x="327" y="680" on="1"/>
        <pt x="356" y="680" on="0"/>
        <pt x="413" y="683" on="0"/>
        <pt x="441" y="683" on="1"/>
        <pt x="451" y="683" on="0"/>
        <pt x="455" y="672" on="0"/>
        <pt x="455" y="670" on="1"/>
        <pt x="455" y="656" on="0"/>
        <pt x="440" y="652" on="0"/>
        <pt x="432" y="652" on="1"/>
        <pt x="427" y="652" on="0"/>
        <pt x="409" y="651" on="0"/>
        <pt x="392" y="647" on="0"/>
        <pt x="379" y="637" on="0"/>
        <pt x="379" y="629" on="1"/>
        <pt x="379" y="627" on="0"/>
        <pt x="380" y="622" on="0"/>
        <pt x="384" y="612" on="1"/>
        <pt x="486" y="317" on="1"/>
        <pt x="708" y="581" on="1"/>
        <pt x="710" y="583" on="0"/>
        <pt x="718" y="593" on="0"/>
        <pt x="728" y="608" on="0"/>
        <pt x="735" y="624" on="0"/>
        <pt x="735" y="631" on="1"/>
        <pt x="735" y="642" on="0"/>
        <pt x="719" y="651" on="0"/>
        <pt x="707" y="652" on="1"/>
        <pt x="702" y="652" on="0"/>
        <pt x="690" y="656" on="0"/>
        <pt x="690" y="665" on="1"/>
        <pt x="690" y="679" on="0"/>
        <pt x="704" y="683" on="0"/>
        <pt x="708" y="683" on="1"/>
        <pt x="709" y="683" on="0"/>
        <pt x="766" y="680" on="0"/>
        <pt x="800" y="680" on="1"/>
        <pt x="838" y="680" on="0"/>
        <pt x="875" y="683" on="0"/>
        <pt x="879" y="683" on="1"/>
        <pt x="885" y="683" on="0"/>
        <pt x="891" y="675" on="0"/>
        <pt x="891" y="670" on="1"/>
        <pt x="891" y="658" on="0"/>
        <pt x="879" y="653" on="0"/>
        <pt x="871" y="652" on="1"/>
        <pt x="864" y="651" on="0"/>
        <pt x="839" y="647" on="0"/>
        <pt x="806" y="632" on="0"/>
        <pt x="766" y="602" on="0"/>
        <pt x="743" y="575" on="1"/>
      </contour>
    </TTGlyph>
    <TTGlyph name="Z" xMin="81" yMin="0" xMax="719" yMax="683">
      <contour>
        <pt x="179" y="34" on="1"/>
        <pt x="332" y="34" on="1"/>
        <pt x="394" y="34" on="0"/>
        <pt x="476" y="63" on="0"/>
        <pt x="530" y="116" on="0"/>
        <pt x="564" y="190" on="0"/>
        <pt x="579" y="236" on="1"/>
        <pt x="585" y="254" on="0"/>
        <pt x="589" y="262" on="0"/>
        <pt x="591" y="264" on="1"/>
        <pt x="593" y="266" on="0"/>
        <pt x="600" y="267" on="0"/>
        <pt x="603" y="267" on="1"/>
        <pt x="606" y="267" on="0"/>
        <pt x="619" y="264" on="0"/>
        <pt x="619" y="254" on="1"/>
        <pt x="619" y="253" on="0"/>
        <pt x="618" y="249" on="0"/>
        <pt x="616" y="241" on="1"/>
        <pt x="546" y="19" on="1"/>
        <pt x="541" y="5" on="0"/>
        <pt x="533" y="0" on="0"/>
        <pt x="516" y="0" on="1"/>
        <pt x="105" y="0" on="1"/>
        <pt x="92" y="0" on="0"/>
        <pt x="81" y="3" on="0"/>
        <pt x="81" y="11" on="1"/>
        <pt x="81" y="12" on="0"/>
        <pt x="84" y="26" on="0"/>
        <pt x="93" y="37" on="1"/>
        <pt x="623" y="652" on="1"/>
        <pt x="476" y="652" on="1"/>
        <pt x="419" y="652" on="0"/>
        <pt x="342" y="626" on="0"/>
        <pt x="291" y="579" on="0"/>
        <pt x="259" y="516" on="0"/>
        <pt x="247" y="479" on="1"/>
        <pt x="242" y="465" on="0"/>
        <pt x="237" y="458" on="0"/>
        <pt x="227" y="458" on="1"/>
        <pt x="224" y="458" on="0"/>
        <pt x="210" y="461" on="0"/>
        <pt x="210" y="471" on="1"/>
        <pt x="210" y="475" on="0"/>
        <pt x="211" y="481" on="0"/>
        <pt x="214" y="489" on="1"/>
        <pt x="267" y="663" on="1"/>
        <pt x="272" y="677" on="0"/>
        <pt x="280" y="683" on="0"/>
        <pt x="297" y="683" on="1"/>
        <pt x="695" y="683" on="1"/>
        <pt x="707" y="683" on="0"/>
        <pt x="719" y="681" on="0"/>
        <pt x="719" y="673" on="1"/>
        <pt x="719" y="665" on="0"/>
        <pt x="712" y="655" on="0"/>
        <pt x="707" y="649" on="1"/>
      </contour>
    </TTGlyph>
    <TTGlyph name="a" xMin="110" yMin="-11" xMax="551" yMax="442">
      <contour>
        <pt x="428" y="106" on="1"/>
        <pt x="424" y="91" on="0"/>
        <pt x="420" y="62" on="0"/>
        <pt x="420" y="55" on="1"/>
        <pt x="420" y="36" on="0"/>
        <pt x="432" y="14" on="0"/>
        <pt x="446" y="14" on="1"/>
        <pt x="458" y="14" on="0"/>
        <pt x="478" y="32" on="0"/>
        <pt x="494" y="64" on="0"/>
        <pt x="508" y="107" on="0"/>
        <pt x="514" y="132" on="1"/>
        <pt x="517" y="146" on="0"/>
        <pt x="523" y="155" on="0"/>
        <pt x="534" y="155" on="1"/>
        <pt x="537" y="155" on="0"/>
        <pt x="551" y="152" on="0"/>
        <pt x="551" y="143" on="1"/>
        <pt x="551" y="142" on="0"/>
        <pt x="546" y="122" on="0"/>
        <pt x="538" y="93" on="0"/>
        <pt x="527" y="60" on="0"/>
        <pt x="520" y="46" on="1"/>
        <pt x="517" y="40" on="0"/>
        <pt x="506" y="20" on="0"/>
        <pt x="488" y="2" on="0"/>
        <pt x="462" y="-11" on="0"/>
        <pt x="445" y="-11" on="1"/>
        <pt x="414" y="-11" on="0"/>
        <pt x="366" y="25" on="0"/>
        <pt x="358" y="58" on="1"/>
        <pt x="351" y="50" on="0"/>
        <pt x="328" y="27" on="0"/>
        <pt x="296" y="5" on="0"/>
        <pt x="258" y="-11" on="0"/>
        <pt x="235" y="-11" on="1"/>
        <pt x="210" y="-11" on="0"/>
        <pt x="165" y="9" on="0"/>
        <pt x="131" y="49" on="0"/>
        <pt x="110" y="108" on="0"/>
        <pt x="110" y="146" on="1"/>
        <pt x="110" y="203" on="0"/>
        <pt x="151" y="309" on="0"/>
        <pt x="218" y="392" on="0"/>
        <pt x="301" y="442" on="0"/>
        <pt x="343" y="442" on="1"/>
        <pt x="362" y="442" on="0"/>
        <pt x="391" y="430" on="0"/>
        <pt x="412" y="413" on="0"/>
        <pt x="425" y="394" on="0"/>
        <pt x="429" y="386" on="1"/>
        <pt x="434" y="407" on="0"/>
        <pt x="460" y="422" on="0"/>
        <pt x="470" y="422" on="1"/>
        <pt x="482" y="422" on="0"/>
        <pt x="499" y="407" on="0"/>
        <pt x="499" y="394" on="1"/>
        <pt x="499" y="391" on="0"/>
        <pt x="498" y="385" on="0"/>
        <pt x="495" y="374" on="1"/>
      </contour>
      <contour>
        <pt x="410" y="310" on="1"/>
        <pt x="412" y="318" on="0"/>
        <pt x="413" y="322" on="0"/>
        <pt x="413" y="326" on="1"/>
        <pt x="413" y="329" on="0"/>
        <pt x="408" y="358" on="0"/>
        <pt x="393" y="391" on="0"/>
        <pt x="366" y="417" on="0"/>
        <pt x="343" y="417" on="1"/>
        <pt x="327" y="417" on="0"/>
        <pt x="293" y="399" on="0"/>
        <pt x="262" y="367" on="0"/>
        <pt x="235" y="326" on="0"/>
        <pt x="225" y="302" on="1"/>
        <pt x="219" y="288" on="0"/>
        <pt x="204" y="236" on="0"/>
        <pt x="190" y="178" on="0"/>
        <pt x="180" y="122" on="0"/>
        <pt x="180" y="103" on="1"/>
        <pt x="180" y="97" on="0"/>
        <pt x="183" y="68" on="0"/>
        <pt x="194" y="38" on="0"/>
        <pt x="217" y="14" on="0"/>
        <pt x="238" y="14" on="1"/>
        <pt x="258" y="14" on="0"/>
        <pt x="300" y="39" on="0"/>
        <pt x="336" y="74" on="0"/>
        <pt x="361" y="112" on="0"/>
        <pt x="364" y="125" on="1"/>
      </contour>
    </TTGlyph>
    <TTGlyph name="acute" xMin="345" yMin="504" xMax="561" yMax="696">
      <contour>
        <pt x="376" y="510" on="1"/>
        <pt x="375" y="509" on="0"/>
        <pt x="366" y="504" on="0"/>
        <pt x="362" y="504" on="1"/>
        <pt x="356" y="504" on="0"/>
        <pt x="345" y="516" on="0"/>
        <pt x="345" y="522" on="1"/>
        <pt x="345" y="526" on="0"/>
        <pt x="348" y="530" on="0"/>
        <pt x="356" y="538" on="1"/>
        <pt x="499" y="679" on="1"/>
        <pt x="506" y="686" on="0"/>
        <pt x="519" y="696" on="0"/>
        <pt x="530" y="696" on="1"/>
        <pt x="546" y="696" on="0"/>
        <pt x="561" y="677" on="0"/>
        <pt x="561" y="666" on="1"/>
        <pt x="561" y="654" on="0"/>
        <pt x="546" y="637" on="0"/>
        <pt x="538" y="631" on="1"/>
      </contour>
    </TTGlyph>
    <TTGlyph name="ae" xMin="93" yMin="-11" xMax="737" yMax="442">
      <contour>
        <pt x="455" y="229" on="1"/>
        <pt x="448" y="202" on="0"/>
        <pt x="442" y="155" on="0"/>
        <pt x="442" y="137" on="1"/>
        <pt x="442" y="113" on="0"/>
        <pt x="451" y="69" on="0"/>
        <pt x="472" y="35" on="0"/>
        <pt x="504" y="14" on="0"/>
        <pt x="527" y="14" on="1"/>
        <pt x="538" y="14" on="0"/>
        <pt x="574" y="21" on="0"/>
        <pt x="617" y="42" on="0"/>
        <pt x="665" y="80" on="0"/>
        <pt x="687" y="110" on="1"/>
        <pt x="695" y="120" on="0"/>
        <pt x="700" y="120" on="1"/>
        <pt x="706" y="120" on="0"/>
        <pt x="718" y="107" on="0"/>
        <pt x="718" y="102" on="1"/>
        <pt x="718" y="97" on="0"/>
        <pt x="690" y="61" on="0"/>
        <pt x="639" y="21" on="0"/>
        <pt x="569" y="-11" on="0"/>
        <pt x="526" y="-11" on="1"/>
        <pt x="487" y="-11" on="0"/>
        <pt x="430" y="25" on="0"/>
        <pt x="413" y="56" on="1"/>
        <pt x="407" y="36" on="0"/>
        <pt x="398" y="10" on="0"/>
        <pt x="389" y="-5" on="0"/>
        <pt x="377" y="-11" on="0"/>
        <pt x="367" y="-11" on="1"/>
        <pt x="354" y="-11" on="0"/>
        <pt x="341" y="4" on="0"/>
        <pt x="341" y="14" on="1"/>
        <pt x="341" y="22" on="0"/>
        <pt x="347" y="44" on="0"/>
        <pt x="349" y="51" on="1"/>
        <pt x="313" y="13" on="0"/>
        <pt x="256" y="-11" on="0"/>
        <pt x="233" y="-11" on="1"/>
        <pt x="205" y="-11" on="0"/>
        <pt x="154" y="5" on="0"/>
        <pt x="116" y="34" on="0"/>
        <pt x="93" y="76" on="0"/>
        <pt x="93" y="102" on="1"/>
        <pt x="93" y="119" on="0"/>
        <pt x="116" y="191" on="0"/>
        <pt x="189" y="281" on="0"/>
        <pt x="326" y="375" on="0"/>
        <pt x="440" y="414" on="1"/>
        <pt x="445" y="431" on="0"/>
        <pt x="467" y="442" on="0"/>
        <pt x="474" y="442" on="1"/>
        <pt x="490" y="442" on="0"/>
        <pt x="501" y="424" on="0"/>
        <pt x="501" y="417" on="1"/>
        <pt x="501" y="411" on="0"/>
        <pt x="498" y="397" on="0"/>
        <pt x="496" y="392" on="1"/>
        <pt x="563" y="442" on="0"/>
        <pt x="631" y="442" on="1"/>
        <pt x="682" y="442" on="0"/>
        <pt x="737" y="390" on="0"/>
        <pt x="737" y="356" on="1"/>
        <pt x="737" y="352" on="0"/>
        <pt x="734" y="326" on="0"/>
        <pt x="717" y="294" on="0"/>
        <pt x="684" y="261" on="0"/>
        <pt x="654" y="250" on="1"/>
        <pt x="624" y="239" on="0"/>
        <pt x="540" y="229" on="0"/>
        <pt x="492" y="229" on="1"/>
      </contour>
      <contour>
        <pt x="481" y="254" on="1"/>
        <pt x="502" y="254" on="0"/>
        <pt x="575" y="257" on="0"/>
        <pt x="645" y="277" on="0"/>
        <pt x="696" y="318" on="0"/>
        <pt x="696" y="357" on="1"/>
        <pt x="696" y="383" on="0"/>
        <pt x="661" y="417" on="0"/>
        <pt x="631" y="417" on="1"/>
        <pt x="613" y="417" on="0"/>
        <pt x="566" y="401" on="0"/>
        <pt x="518" y="364" on="0"/>
        <pt x="475" y="301" on="0"/>
        <pt x="461" y="254" on="1"/>
      </contour>
      <contour>
        <pt x="432" y="384" on="1"/>
        <pt x="374" y="361" on="0"/>
        <pt x="277" y="289" on="0"/>
        <pt x="207" y="205" on="0"/>
        <pt x="169" y="116" on="0"/>
        <pt x="169" y="76" on="1"/>
        <pt x="169" y="54" on="0"/>
        <pt x="187" y="29" on="0"/>
        <pt x="209" y="17" on="0"/>
        <pt x="231" y="14" on="0"/>
        <pt x="235" y="14" on="1"/>
        <pt x="261" y="14" on="0"/>
        <pt x="308" y="47" on="0"/>
        <pt x="345" y="90" on="0"/>
        <pt x="370" y="134" on="0"/>
        <pt x="373" y="146" on="1"/>
      </contour>
    </TTGlyph>
    <TTGlyph name="ampersand" xMin="128" yMin="-22" xMax="820" yMax="716">
      <contour>
        <pt x="692" y="466" on="1"/>
        <pt x="722" y="426" on="0"/>
        <pt x="750" y="354" on="0"/>
        <pt x="750" y="309" on="1"/>
        <pt x="750" y="281" on="0"/>
        <pt x="735" y="210" on="0"/>
        <pt x="701" y="136" on="0"/>
        <pt x="647" y="66" on="0"/>
        <pt x="567" y="11" on="0"/>
        <pt x="461" y="-22" on="0"/>
        <pt x="392" y="-22" on="1"/>
        <pt x="331" y="-22" on="0"/>
        <pt x="233" y="9" on="0"/>
        <pt x="165" y="63" on="0"/>
        <pt x="128" y="136" on="0"/>
        <pt x="128" y="177" on="1"/>
        <pt x="128" y="205" on="0"/>
        <pt x="145" y="264" on="0"/>
        <pt x="172" y="321" on="0"/>
        <pt x="207" y="370" on="0"/>
        <pt x="225" y="387" on="1"/>
        <pt x="216" y="409" on="0"/>
        <pt x="213" y="442" on="0"/>
        <pt x="213" y="455" on="1"/>
        <pt x="213" y="505" on="0"/>
        <pt x="251" y="599" on="0"/>
        <pt x="313" y="672" on="0"/>
        <pt x="390" y="716" on="0"/>
        <pt x="429" y="716" on="1"/>
        <pt x="450" y="716" on="0"/>
        <pt x="490" y="701" on="0"/>
        <pt x="520" y="672" on="0"/>
        <pt x="538" y="629" on="0"/>
        <pt x="538" y="600" on="1"/>
        <pt x="538" y="595" on="0"/>
        <pt x="536" y="569" on="0"/>
        <pt x="527" y="543" on="0"/>
        <pt x="506" y="523" on="0"/>
        <pt x="487" y="523" on="1"/>
        <pt x="484" y="523" on="0"/>
        <pt x="473" y="525" on="0"/>
        <pt x="461" y="531" on="0"/>
        <pt x="453" y="544" on="0"/>
        <pt x="453" y="555" on="1"/>
        <pt x="453" y="560" on="0"/>
        <pt x="457" y="576" on="0"/>
        <pt x="469" y="591" on="0"/>
        <pt x="489" y="602" on="0"/>
        <pt x="505" y="602" on="1"/>
        <pt x="504" y="630" on="0"/>
        <pt x="489" y="665" on="0"/>
        <pt x="466" y="684" on="0"/>
        <pt x="441" y="691" on="0"/>
        <pt x="430" y="691" on="1"/>
        <pt x="394" y="691" on="0"/>
        <pt x="338" y="636" on="0"/>
        <pt x="298" y="555" on="0"/>
        <pt x="277" y="465" on="0"/>
        <pt x="275" y="429" on="1"/>
        <pt x="299" y="444" on="0"/>
        <pt x="349" y="461" on="0"/>
        <pt x="373" y="461" on="1"/>
        <pt x="405" y="461" on="0"/>
        <pt x="439" y="425" on="0"/>
        <pt x="439" y="399" on="1"/>
        <pt x="439" y="383" on="0"/>
        <pt x="424" y="350" on="0"/>
        <pt x="397" y="324" on="0"/>
        <pt x="361" y="307" on="0"/>
        <pt x="340" y="307" on="1"/>
        <pt x="319" y="307" on="0"/>
        <pt x="276" y="322" on="0"/>
        <pt x="256" y="340" on="1"/>
        <pt x="246" y="321" on="0"/>
        <pt x="227" y="272" on="0"/>
        <pt x="213" y="222" on="0"/>
        <pt x="205" y="176" on="0"/>
        <pt x="205" y="159" on="1"/>
        <pt x="205" y="117" on="0"/>
        <pt x="237" y="58" on="0"/>
        <pt x="289" y="21" on="0"/>
        <pt x="357" y="3" on="0"/>
        <pt x="393" y="3" on="1"/>
        <pt x="461" y="3" on="0"/>
        <pt x="562" y="38" on="0"/>
        <pt x="634" y="94" on="0"/>
        <pt x="680" y="164" on="0"/>
        <pt x="706" y="231" on="0"/>
        <pt x="716" y="289" on="0"/>
        <pt x="716" y="306" on="1"/>
        <pt x="716" y="346" on="0"/>
        <pt x="687" y="416" on="0"/>
        <pt x="663" y="446" on="1"/>
        <pt x="631" y="427" on="0"/>
        <pt x="582" y="396" on="0"/>
        <pt x="550" y="366" on="0"/>
        <pt x="534" y="333" on="0"/>
        <pt x="534" y="312" on="1"/>
        <pt x="534" y="302" on="0"/>
        <pt x="535" y="294" on="0"/>
        <pt x="537" y="290" on="1"/>
        <pt x="543" y="304" on="0"/>
        <pt x="568" y="322" on="0"/>
        <pt x="583" y="322" on="1"/>
        <pt x="600" y="322" on="0"/>
        <pt x="617" y="302" on="0"/>
        <pt x="617" y="290" on="1"/>
        <pt x="617" y="283" on="0"/>
        <pt x="611" y="266" on="0"/>
        <pt x="599" y="252" on="0"/>
        <pt x="580" y="242" on="0"/>
        <pt x="567" y="242" on="1"/>
        <pt x="540" y="242" on="0"/>
        <pt x="500" y="281" on="0"/>
        <pt x="500" y="315" on="1"/>
        <pt x="500" y="341" on="0"/>
        <pt x="524" y="384" on="0"/>
        <pt x="560" y="419" on="0"/>
        <pt x="602" y="447" on="0"/>
        <pt x="619" y="458" on="1"/>
        <pt x="640" y="470" on="0"/>
        <pt x="681" y="497" on="0"/>
        <pt x="719" y="532" on="0"/>
        <pt x="754" y="579" on="0"/>
        <pt x="770" y="613" on="1"/>
        <pt x="756" y="615" on="0"/>
        <pt x="737" y="632" on="0"/>
        <pt x="737" y="646" on="1"/>
        <pt x="737" y="663" on="0"/>
        <pt x="765" y="694" on="0"/>
        <pt x="785" y="694" on="1"/>
        <pt x="796" y="694" on="0"/>
        <pt x="810" y="687" on="0"/>
        <pt x="817" y="676" on="0"/>
        <pt x="820" y="665" on="0"/>
        <pt x="820" y="662" on="1"/>
        <pt x="820" y="655" on="0"/>
        <pt x="806" y="610" on="0"/>
        <pt x="776" y="553" on="0"/>
        <pt x="727" y="491" on="0"/>
      </contour>
      <contour>
        <pt x="341" y="332" on="1"/>
        <pt x="357" y="332" on="0"/>
        <pt x="381" y="346" on="0"/>
        <pt x="398" y="367" on="0"/>
        <pt x="406" y="393" on="0"/>
        <pt x="406" y="404" on="1"/>
        <pt x="406" y="418" on="0"/>
        <pt x="390" y="436" on="0"/>
        <pt x="373" y="436" on="1"/>
        <pt x="356" y="436" on="0"/>
        <pt x="323" y="420" on="0"/>
        <pt x="298" y="399" on="0"/>
        <pt x="283" y="380" on="0"/>
        <pt x="283" y="378" on="1"/>
        <pt x="283" y="376" on="0"/>
        <pt x="290" y="361" on="0"/>
        <pt x="304" y="345" on="0"/>
        <pt x="326" y="332" on="0"/>
      </contour>
    </TTGlyph>
    <TTGlyph name="asterisk" xMin="197" yMin="319" xMax="594" yMax="750">
      <contour>
        <pt x="377" y="354" on="1"/>
        <pt x="373" y="331" on="0"/>
        <pt x="350" y="319" on="0"/>
        <pt x="342" y="319" on="1"/>
        <pt x="333" y="319" on="0"/>
        <pt x="320" y="330" on="0"/>
        <pt x="320" y="339" on="1"/>
        <pt x="320" y="343" on="0"/>
        <pt x="323" y="352" on="0"/>
        <pt x="324" y="355" on="1"/>
        <pt x="377" y="511" on="1"/>
        <pt x="225" y="414" on="1"/>
        <pt x="217" y="414" on="0"/>
        <pt x="197" y="419" on="0"/>
        <pt x="197" y="436" on="1"/>
        <pt x="197" y="450" on="0"/>
        <pt x="215" y="462" on="0"/>
        <pt x="224" y="467" on="1"/>
        <pt x="372" y="535" on="1"/>
        <pt x="259" y="600" on="1"/>
        <pt x="243" y="609" on="0"/>
        <pt x="243" y="621" on="1"/>
        <pt x="243" y="632" on="0"/>
        <pt x="263" y="655" on="0"/>
        <pt x="278" y="655" on="1"/>
        <pt x="284" y="655" on="0"/>
        <pt x="290" y="652" on="0"/>
        <pt x="298" y="644" on="1"/>
        <pt x="389" y="558" on="1"/>
        <pt x="414" y="714" on="1"/>
        <pt x="416" y="728" on="0"/>
        <pt x="433" y="750" on="0"/>
        <pt x="449" y="750" on="1"/>
        <pt x="471" y="750" on="0"/>
        <pt x="471" y="730" on="1"/>
        <pt x="471" y="728" on="0"/>
        <pt x="470" y="723" on="0"/>
        <pt x="466" y="713" on="1"/>
        <pt x="414" y="558" on="1"/>
        <pt x="566" y="655" on="1"/>
        <pt x="574" y="655" on="0"/>
        <pt x="594" y="650" on="0"/>
        <pt x="594" y="633" on="1"/>
        <pt x="594" y="619" on="0"/>
        <pt x="577" y="606" on="0"/>
        <pt x="569" y="602" on="1"/>
        <pt x="420" y="534" on="1"/>
        <pt x="532" y="469" on="1"/>
        <pt x="543" y="463" on="0"/>
        <pt x="548" y="455" on="0"/>
        <pt x="548" y="448" on="1"/>
        <pt x="548" y="437" on="0"/>
        <pt x="527" y="414" on="0"/>
        <pt x="513" y="414" on="1"/>
        <pt x="506" y="414" on="0"/>
        <pt x="501" y="417" on="0"/>
        <pt x="493" y="425" on="1"/>
        <pt x="403" y="511" on="1"/>
      </contour>
    </TTGlyph>
    <TTGlyph name="at" xMin="152" yMin="-11" xMax="807" yMax="705">
      <contour>
        <pt x="634" y="205" on="1"/>
        <pt x="630" y="190" on="0"/>
        <pt x="630" y="177" on="1"/>
        <pt x="630" y="160" on="0"/>
        <pt x="639" y="152" on="0"/>
        <pt x="647" y="152" on="1"/>
        <pt x="669" y="152" on="0"/>
        <pt x="705" y="188" on="0"/>
        <pt x="733" y="245" on="0"/>
        <pt x="753" y="313" on="0"/>
        <pt x="767" y="378" on="0"/>
        <pt x="773" y="431" on="0"/>
        <pt x="773" y="444" on="1"/>
        <pt x="773" y="499" on="0"/>
        <pt x="741" y="587" on="0"/>
        <pt x="685" y="648" on="0"/>
        <pt x="609" y="680" on="0"/>
        <pt x="565" y="680" on="1"/>
        <pt x="519" y="680" on="0"/>
        <pt x="426" y="646" on="0"/>
        <pt x="342" y="586" on="0"/>
        <pt x="270" y="505" on="0"/>
        <pt x="216" y="409" on="0"/>
        <pt x="186" y="304" on="0"/>
        <pt x="186" y="250" on="1"/>
        <pt x="186" y="204" on="0"/>
        <pt x="212" y="119" on="0"/>
        <pt x="264" y="53" on="0"/>
        <pt x="344" y="14" on="0"/>
        <pt x="398" y="14" on="1"/>
        <pt x="452" y="14" on="0"/>
        <pt x="590" y="41" on="0"/>
        <pt x="665" y="74" on="1"/>
        <pt x="677" y="79" on="0"/>
        <pt x="687" y="81" on="0"/>
        <pt x="699" y="81" on="1"/>
        <pt x="711" y="81" on="0"/>
        <pt x="725" y="78" on="0"/>
        <pt x="725" y="70" on="1"/>
        <pt x="725" y="65" on="0"/>
        <pt x="718" y="60" on="0"/>
        <pt x="715" y="58" on="1"/>
        <pt x="632" y="22" on="0"/>
        <pt x="467" y="-11" on="0"/>
        <pt x="398" y="-11" on="1"/>
        <pt x="335" y="-11" on="0"/>
        <pt x="242" y="34" on="0"/>
        <pt x="182" y="108" on="0"/>
        <pt x="152" y="202" on="0"/>
        <pt x="152" y="251" on="1"/>
        <pt x="152" y="337" on="0"/>
        <pt x="223" y="500" on="0"/>
        <pt x="340" y="627" on="0"/>
        <pt x="489" y="705" on="0"/>
        <pt x="566" y="705" on="1"/>
        <pt x="618" y="705" on="0"/>
        <pt x="706" y="668" on="0"/>
        <pt x="771" y="599" on="0"/>
        <pt x="807" y="502" on="0"/>
        <pt x="807" y="442" on="1"/>
        <pt x="807" y="408" on="0"/>
        <pt x="793" y="336" on="0"/>
        <pt x="776" y="276" on="0"/>
        <pt x="761" y="234" on="0"/>
        <pt x="759" y="230" on="1"/>
        <pt x="752" y="213" on="0"/>
        <pt x="732" y="176" on="0"/>
        <pt x="704" y="146" on="0"/>
        <pt x="666" y="127" on="0"/>
        <pt x="642" y="127" on="1"/>
        <pt x="635" y="127" on="0"/>
        <pt x="610" y="131" on="0"/>
        <pt x="586" y="145" on="0"/>
        <pt x="566" y="170" on="0"/>
        <pt x="564" y="191" on="1"/>
        <pt x="557" y="184" on="0"/>
        <pt x="531" y="163" on="0"/>
        <pt x="496" y="142" on="0"/>
        <pt x="452" y="127" on="0"/>
        <pt x="427" y="127" on="1"/>
        <pt x="396" y="127" on="0"/>
        <pt x="344" y="150" on="0"/>
        <pt x="305" y="193" on="0"/>
        <pt x="283" y="252" on="0"/>
        <pt x="283" y="288" on="1"/>
        <pt x="283" y="341" on="0"/>
        <pt x="326" y="441" on="0"/>
        <pt x="396" y="519" on="0"/>
        <pt x="485" y="567" on="0"/>
        <pt x="531" y="567" on="1"/>
        <pt x="575" y="567" on="0"/>
        <pt x="634" y="519" on="0"/>
        <pt x="648" y="483" on="1"/>
        <pt x="672" y="483" on="1"/>
        <pt x="684" y="483" on="0"/>
        <pt x="700" y="480" on="0"/>
        <pt x="700" y="471" on="1"/>
        <pt x="700" y="469" on="0"/>
        <pt x="697" y="458" on="1"/>
      </contour>
      <contour>
        <pt x="621" y="430" on="1"/>
        <pt x="623" y="437" on="0"/>
        <pt x="624" y="442" on="0"/>
        <pt x="624" y="445" on="1"/>
        <pt x="624" y="451" on="0"/>
        <pt x="616" y="483" on="0"/>
        <pt x="595" y="516" on="0"/>
        <pt x="559" y="542" on="0"/>
        <pt x="532" y="542" on="1"/>
        <pt x="500" y="542" on="0"/>
        <pt x="435" y="494" on="0"/>
        <pt x="382" y="418" on="0"/>
        <pt x="349" y="321" on="0"/>
        <pt x="349" y="272" on="1"/>
        <pt x="349" y="248" on="0"/>
        <pt x="359" y="205" on="0"/>
        <pt x="379" y="172" on="0"/>
        <pt x="409" y="152" on="0"/>
        <pt x="429" y="152" on="1"/>
        <pt x="455" y="152" on="0"/>
        <pt x="506" y="178" on="0"/>
        <pt x="548" y="214" on="0"/>
        <pt x="577" y="254" on="0"/>
        <pt x="581" y="269" on="1"/>
      </contour>
    </TTGlyph>
    <TTGlyph name="b" xMin="115" yMin="-11" xMax="469" yMax="695">
      <contour>
        <pt x="238" y="392" on="1"/>
        <pt x="241" y="395" on="0"/>
        <pt x="260" y="411" on="0"/>
        <pt x="288" y="428" on="0"/>
        <pt x="324" y="442" on="0"/>
        <pt x="344" y="442" on="1"/>
        <pt x="370" y="442" on="0"/>
        <pt x="416" y="420" on="0"/>
        <pt x="450" y="380" on="0"/>
        <pt x="469" y="321" on="0"/>
        <pt x="469" y="285" on="1"/>
        <pt x="469" y="230" on="0"/>
        <pt x="428" y="124" on="0"/>
        <pt x="362" y="40" on="0"/>
        <pt x="279" y="-11" on="0"/>
        <pt x="236" y="-11" on="1"/>
        <pt x="207" y="-11" on="0"/>
        <pt x="162" y="14" on="0"/>
        <pt x="131" y="56" on="0"/>
        <pt x="115" y="113" on="0"/>
        <pt x="115" y="144" on="1"/>
        <pt x="115" y="156" on="0"/>
        <pt x="119" y="196" on="0"/>
        <pt x="124" y="214" on="1"/>
        <pt x="224" y="613" on="1"/>
        <pt x="226" y="618" on="0"/>
        <pt x="228" y="630" on="0"/>
        <pt x="228" y="635" on="1"/>
        <pt x="228" y="638" on="0"/>
        <pt x="227" y="645" on="0"/>
        <pt x="218" y="649" on="0"/>
        <pt x="199" y="652" on="0"/>
        <pt x="181" y="652" on="1"/>
        <pt x="168" y="652" on="0"/>
        <pt x="154" y="655" on="0"/>
        <pt x="154" y="665" on="1"/>
        <pt x="154" y="678" on="0"/>
        <pt x="168" y="683" on="0"/>
        <pt x="179" y="684" on="1"/>
        <pt x="283" y="693" on="1"/>
        <pt x="296" y="695" on="0"/>
        <pt x="309" y="690" on="0"/>
        <pt x="309" y="680" on="1"/>
        <pt x="309" y="678" on="0"/>
        <pt x="307" y="673" on="0"/>
        <pt x="305" y="662" on="1"/>
      </contour>
      <contour>
        <pt x="236" y="14" on="1"/>
        <pt x="262" y="14" on="0"/>
        <pt x="328" y="68" on="0"/>
        <pt x="354" y="130" on="1"/>
        <pt x="359" y="142" on="0"/>
        <pt x="374" y="192" on="0"/>
        <pt x="389" y="251" on="0"/>
        <pt x="399" y="309" on="0"/>
        <pt x="399" y="328" on="1"/>
        <pt x="399" y="330" on="0"/>
        <pt x="397" y="359" on="0"/>
        <pt x="387" y="391" on="0"/>
        <pt x="363" y="417" on="0"/>
        <pt x="342" y="417" on="1"/>
        <pt x="319" y="417" on="0"/>
        <pt x="256" y="377" on="0"/>
        <pt x="222" y="323" on="1"/>
        <pt x="221" y="322" on="0"/>
        <pt x="217" y="309" on="0"/>
        <pt x="212" y="291" on="0"/>
        <pt x="207" y="272" on="0"/>
        <pt x="205" y="264" on="1"/>
        <pt x="198" y="234" on="0"/>
        <pt x="187" y="189" on="0"/>
        <pt x="180" y="153" on="0"/>
        <pt x="176" y="123" on="0"/>
        <pt x="176" y="109" on="1"/>
        <pt x="176" y="95" on="0"/>
        <pt x="182" y="62" on="0"/>
        <pt x="195" y="33" on="0"/>
        <pt x="218" y="14" on="0"/>
      </contour>
    </TTGlyph>
    <TTGlyph name="bracketleft" xMin="76" yMin="-250" xMax="452" yMax="750">
      <contour>
        <pt x="127" y="-207" on="1"/>
        <pt x="186" y="-207" on="1"/>
        <pt x="198" y="-207" on="0"/>
        <pt x="213" y="-210" on="0"/>
        <pt x="213" y="-220" on="1"/>
        <pt x="213" y="-243" on="0"/>
        <pt x="195" y="-250" on="0"/>
        <pt x="182" y="-250" on="1"/>
        <pt x="103" y="-250" on="1"/>
        <pt x="90" y="-250" on="0"/>
        <pt x="76" y="-247" on="0"/>
        <pt x="76" y="-236" on="1"/>
        <pt x="76" y="-234" on="0"/>
        <pt x="78" y="-228" on="0"/>
        <pt x="80" y="-218" on="1"/>
        <pt x="317" y="730" on="1"/>
        <pt x="321" y="745" on="0"/>
        <pt x="329" y="750" on="0"/>
        <pt x="346" y="750" on="1"/>
        <pt x="425" y="750" on="1"/>
        <pt x="438" y="750" on="0"/>
        <pt x="452" y="747" on="0"/>
        <pt x="452" y="736" on="1"/>
        <pt x="452" y="714" on="0"/>
        <pt x="434" y="707" on="0"/>
        <pt x="421" y="707" on="1"/>
        <pt x="355" y="707" on="1"/>
      </contour>
    </TTGlyph>
    <TTGlyph name="bracketright" xMin="-13" yMin="-250" xMax="363" yMax="750">
      <contour>
        <pt x="122" y="-230" on="1"/>
        <pt x="118" y="-245" on="0"/>
        <pt x="110" y="-250" on="0"/>
        <pt x="93" y="-250" on="1"/>
        <pt x="14" y="-250" on="1"/>
        <pt x="1" y="-250" on="0"/>
        <pt x="-13" y="-247" on="0"/>
        <pt x="-13" y="-236" on="1"/>
        <pt x="-13" y="-214" on="0"/>
        <pt x="5" y="-207" on="0"/>
        <pt x="18" y="-207" on="1"/>
        <pt x="84" y="-207" on="1"/>
        <pt x="312" y="707" on="1"/>
        <pt x="253" y="707" on="1"/>
        <pt x="241" y="707" on="0"/>
        <pt x="226" y="710" on="0"/>
        <pt x="226" y="720" on="1"/>
        <pt x="226" y="743" on="0"/>
        <pt x="244" y="750" on="0"/>
        <pt x="257" y="750" on="1"/>
        <pt x="336" y="750" on="1"/>
        <pt x="349" y="750" on="0"/>
        <pt x="363" y="747" on="0"/>
        <pt x="363" y="736" on="1"/>
        <pt x="363" y="734" on="0"/>
        <pt x="361" y="728" on="0"/>
        <pt x="359" y="718" on="1"/>
      </contour>
    </TTGlyph>
    <TTGlyph name="breve" xMin="283" yMin="521" xMax="576" yMax="694">
      <contour>
        <pt x="576" y="681" on="1"/>
        <pt x="576" y="668" on="0"/>
        <pt x="551" y="615" on="0"/>
        <pt x="505" y="561" on="0"/>
        <pt x="438" y="521" on="0"/>
        <pt x="396" y="521" on="1"/>
        <pt x="369" y="521" on="0"/>
        <pt x="326" y="541" on="0"/>
        <pt x="298" y="574" on="0"/>
        <pt x="283" y="618" on="0"/>
        <pt x="283" y="642" on="1"/>
        <pt x="283" y="644" on="0"/>
        <pt x="284" y="661" on="0"/>
        <pt x="287" y="679" on="0"/>
        <pt x="294" y="694" on="0"/>
        <pt x="301" y="694" on="1"/>
        <pt x="303" y="694" on="0"/>
        <pt x="313" y="689" on="0"/>
        <pt x="313" y="680" on="1"/>
        <pt x="313" y="677" on="0"/>
        <pt x="309" y="659" on="0"/>
        <pt x="309" y="649" on="1"/>
        <pt x="309" y="611" on="0"/>
        <pt x="357" y="560" on="0"/>
        <pt x="399" y="560" on="1"/>
        <pt x="416" y="560" on="0"/>
        <pt x="460" y="573" on="0"/>
        <pt x="503" y="601" on="0"/>
        <pt x="540" y="648" on="0"/>
        <pt x="551" y="681" on="1"/>
        <pt x="553" y="686" on="0"/>
        <pt x="557" y="694" on="0"/>
        <pt x="564" y="694" on="1"/>
        <pt x="567" y="694" on="0"/>
        <pt x="576" y="688" on="0"/>
      </contour>
    </TTGlyph>
    <TTGlyph name="c" xMin="111" yMin="-11" xMax="482" yMax="442">
      <contour>
        <pt x="482" y="101" on="1"/>
        <pt x="468" y="78" on="0"/>
        <pt x="422" y="37" on="0"/>
        <pt x="365" y="7" on="0"/>
        <pt x="299" y="-11" on="0"/>
        <pt x="264" y="-11" on="1"/>
        <pt x="227" y="-11" on="0"/>
        <pt x="169" y="16" on="0"/>
        <pt x="131" y="62" on="0"/>
        <pt x="111" y="122" on="0"/>
        <pt x="111" y="155" on="1"/>
        <pt x="111" y="209" on="0"/>
        <pt x="156" y="313" on="0"/>
        <pt x="228" y="393" on="0"/>
        <pt x="321" y="442" on="0"/>
        <pt x="369" y="442" on="1"/>
        <pt x="420" y="442" on="0"/>
        <pt x="480" y="391" on="0"/>
        <pt x="480" y="356" on="1"/>
        <pt x="480" y="339" on="0"/>
        <pt x="470" y="316" on="0"/>
        <pt x="455" y="302" on="0"/>
        <pt x="437" y="296" on="0"/>
        <pt x="430" y="296" on="1"/>
        <pt x="427" y="296" on="0"/>
        <pt x="416" y="298" on="0"/>
        <pt x="405" y="305" on="0"/>
        <pt x="396" y="318" on="0"/>
        <pt x="396" y="329" on="1"/>
        <pt x="396" y="331" on="0"/>
        <pt x="398" y="344" on="0"/>
        <pt x="407" y="360" on="0"/>
        <pt x="426" y="374" on="0"/>
        <pt x="442" y="376" on="1"/>
        <pt x="436" y="391" on="0"/>
        <pt x="415" y="407" on="0"/>
        <pt x="393" y="415" on="0"/>
        <pt x="375" y="417" on="0"/>
        <pt x="370" y="417" on="1"/>
        <pt x="332" y="417" on="0"/>
        <pt x="262" y="362" on="0"/>
        <pt x="240" y="324" on="1"/>
        <pt x="227" y="300" on="0"/>
        <pt x="206" y="241" on="0"/>
        <pt x="191" y="184" on="0"/>
        <pt x="184" y="134" on="0"/>
        <pt x="184" y="118" on="1"/>
        <pt x="184" y="68" on="0"/>
        <pt x="227" y="14" on="0"/>
        <pt x="265" y="14" on="1"/>
        <pt x="282" y="14" on="0"/>
        <pt x="328" y="23" on="0"/>
        <pt x="378" y="45" on="0"/>
        <pt x="428" y="82" on="0"/>
        <pt x="449" y="109" on="1"/>
        <pt x="454" y="116" on="0"/>
        <pt x="459" y="120" on="0"/>
        <pt x="463" y="120" on="1"/>
        <pt x="468" y="120" on="0"/>
        <pt x="479" y="111" on="0"/>
      </contour>
    </TTGlyph>
    <TTGlyph name="caron" xMin="283" yMin="504" xMax="547" yMax="632">
      <contour>
        <pt x="406" y="511" on="1"/>
        <pt x="398" y="506" on="0"/>
        <pt x="393" y="504" on="0"/>
        <pt x="391" y="504" on="1"/>
        <pt x="389" y="504" on="0"/>
        <pt x="382" y="507" on="0"/>
        <pt x="374" y="515" on="1"/>
        <pt x="292" y="598" on="1"/>
        <pt x="285" y="604" on="0"/>
        <pt x="283" y="609" on="0"/>
        <pt x="283" y="612" on="1"/>
        <pt x="283" y="617" on="0"/>
        <pt x="297" y="631" on="0"/>
        <pt x="302" y="631" on="1"/>
        <pt x="307" y="631" on="0"/>
        <pt x="315" y="626" on="0"/>
        <pt x="317" y="624" on="1"/>
        <pt x="399" y="559" on="1"/>
        <pt x="530" y="632" on="1"/>
        <pt x="537" y="630" on="0"/>
        <pt x="547" y="621" on="0"/>
        <pt x="547" y="612" on="1"/>
        <pt x="547" y="607" on="0"/>
        <pt x="542" y="602" on="0"/>
        <pt x="533" y="596" on="1"/>
      </contour>
    </TTGlyph>
    <TTGlyph name="cedilla" xMin="105" yMin="-192" xMax="346" yMax="3">
      <contour>
        <pt x="266" y="3" on="1"/>
        <pt x="278" y="3" on="0"/>
        <pt x="293" y="0" on="0"/>
        <pt x="293" y="-10" on="1"/>
        <pt x="293" y="-12" on="0"/>
        <pt x="286" y="-40" on="0"/>
        <pt x="283" y="-51" on="1"/>
        <pt x="309" y="-56" on="0"/>
        <pt x="346" y="-81" on="0"/>
        <pt x="346" y="-107" on="1"/>
        <pt x="346" y="-137" on="0"/>
        <pt x="304" y="-172" on="0"/>
        <pt x="242" y="-188" on="0"/>
        <pt x="172" y="-192" on="0"/>
        <pt x="144" y="-192" on="1"/>
        <pt x="117" y="-192" on="1"/>
        <pt x="109" y="-191" on="0"/>
        <pt x="105" y="-182" on="0"/>
        <pt x="105" y="-179" on="1"/>
        <pt x="105" y="-170" on="0"/>
        <pt x="120" y="-167" on="0"/>
        <pt x="131" y="-167" on="1"/>
        <pt x="143" y="-167" on="1"/>
        <pt x="155" y="-167" on="0"/>
        <pt x="200" y="-165" on="0"/>
        <pt x="245" y="-154" on="0"/>
        <pt x="278" y="-130" on="0"/>
        <pt x="278" y="-107" on="1"/>
        <pt x="278" y="-89" on="0"/>
        <pt x="248" y="-73" on="0"/>
        <pt x="228" y="-71" on="1"/>
        <pt x="226" y="-71" on="0"/>
        <pt x="214" y="-67" on="0"/>
        <pt x="214" y="-58" on="1"/>
        <pt x="214" y="-57" on="0"/>
        <pt x="216" y="-46" on="0"/>
        <pt x="219" y="-33" on="0"/>
        <pt x="222" y="-20" on="0"/>
        <pt x="223" y="-16" on="1"/>
        <pt x="227" y="-2" on="0"/>
        <pt x="235" y="3" on="0"/>
        <pt x="252" y="3" on="1"/>
      </contour>
    </TTGlyph>
    <TTGlyph name="circumflex" xMin="267" yMin="534" xMax="533" yMax="694">
      <contour>
        <pt x="526" y="568" on="1"/>
        <pt x="531" y="560" on="0"/>
        <pt x="533" y="554" on="0"/>
        <pt x="533" y="553" on="1"/>
        <pt x="533" y="545" on="0"/>
        <pt x="518" y="534" on="0"/>
        <pt x="513" y="534" on="1"/>
        <pt x="508" y="534" on="0"/>
        <pt x="504" y="537" on="0"/>
        <pt x="498" y="545" on="1"/>
        <pt x="423" y="637" on="1"/>
        <pt x="299" y="542" on="1"/>
        <pt x="292" y="536" on="0"/>
        <pt x="287" y="534" on="0"/>
        <pt x="284" y="534" on="1"/>
        <pt x="276" y="534" on="0"/>
        <pt x="267" y="548" on="0"/>
        <pt x="267" y="552" on="1"/>
        <pt x="267" y="555" on="0"/>
        <pt x="270" y="562" on="0"/>
        <pt x="278" y="568" on="1"/>
        <pt x="419" y="686" on="1"/>
        <pt x="426" y="691" on="0"/>
        <pt x="429" y="694" on="0"/>
        <pt x="432" y="694" on="1"/>
        <pt x="434" y="694" on="0"/>
        <pt x="442" y="691" on="0"/>
        <pt x="448" y="682" on="1"/>
      </contour>
    </TTGlyph>
    <TTGlyph name="colon" xMin="115" yMin="0" xMax="307" yMax="431">
      <contour>
        <pt x="307" y="387" on="1"/>
        <pt x="307" y="375" on="0"/>
        <pt x="296" y="352" on="0"/>
        <pt x="278" y="334" on="0"/>
        <pt x="254" y="323" on="0"/>
        <pt x="241" y="323" on="1"/>
        <pt x="222" y="323" on="0"/>
        <pt x="196" y="347" on="0"/>
        <pt x="196" y="367" on="1"/>
        <pt x="196" y="392" on="0"/>
        <pt x="236" y="431" on="0"/>
        <pt x="262" y="431" on="1"/>
        <pt x="285" y="431" on="0"/>
        <pt x="307" y="403" on="0"/>
      </contour>
      <contour>
        <pt x="226" y="64" on="1"/>
        <pt x="226" y="53" on="0"/>
        <pt x="216" y="30" on="0"/>
        <pt x="198" y="12" on="0"/>
        <pt x="174" y="0" on="0"/>
        <pt x="160" y="0" on="1"/>
        <pt x="139" y="0" on="0"/>
        <pt x="115" y="27" on="0"/>
        <pt x="115" y="44" on="1"/>
        <pt x="115" y="55" on="0"/>
        <pt x="126" y="78" on="0"/>
        <pt x="144" y="96" on="0"/>
        <pt x="168" y="108" on="0"/>
        <pt x="181" y="108" on="1"/>
        <pt x="202" y="108" on="0"/>
        <pt x="226" y="81" on="0"/>
      </contour>
    </TTGlyph>
    <TTGlyph name="comma" xMin="73" yMin="-194" xMax="228" yMax="108">
      <contour>
        <pt x="198" y="12" on="1"/>
        <pt x="192" y="7" on="0"/>
        <pt x="177" y="0" on="0"/>
        <pt x="160" y="0" on="1"/>
        <pt x="140" y="0" on="0"/>
        <pt x="115" y="23" on="0"/>
        <pt x="115" y="43" on="1"/>
        <pt x="115" y="54" on="0"/>
        <pt x="124" y="76" on="0"/>
        <pt x="141" y="96" on="0"/>
        <pt x="166" y="108" on="0"/>
        <pt x="181" y="108" on="1"/>
        <pt x="208" y="108" on="0"/>
        <pt x="228" y="70" on="0"/>
        <pt x="228" y="47" on="1"/>
        <pt x="228" y="2" on="0"/>
        <pt x="189" y="-84" on="0"/>
        <pt x="139" y="-152" on="0"/>
        <pt x="93" y="-194" on="0"/>
        <pt x="86" y="-194" on="1"/>
        <pt x="81" y="-194" on="0"/>
        <pt x="75" y="-187" on="0"/>
        <pt x="73" y="-182" on="1"/>
        <pt x="74" y="-181" on="0"/>
        <pt x="74" y="-178" on="0"/>
        <pt x="75" y="-177" on="1"/>
        <pt x="76" y="-175" on="0"/>
        <pt x="78" y="-173" on="0"/>
        <pt x="83" y="-168" on="1"/>
        <pt x="118" y="-139" on="0"/>
        <pt x="184" y="-51" on="0"/>
      </contour>
    </TTGlyph>
    <TTGlyph name="d" xMin="110" yMin="-11" xMax="571" yMax="695">
      <contour>
        <pt x="428" y="106" on="1"/>
        <pt x="424" y="91" on="0"/>
        <pt x="420" y="62" on="0"/>
        <pt x="420" y="55" on="1"/>
        <pt x="420" y="36" on="0"/>
        <pt x="432" y="14" on="0"/>
        <pt x="446" y="14" on="1"/>
        <pt x="458" y="14" on="0"/>
        <pt x="478" y="32" on="0"/>
        <pt x="494" y="64" on="0"/>
        <pt x="508" y="107" on="0"/>
        <pt x="514" y="132" on="1"/>
        <pt x="517" y="146" on="0"/>
        <pt x="523" y="155" on="0"/>
        <pt x="534" y="155" on="1"/>
        <pt x="537" y="155" on="0"/>
        <pt x="551" y="152" on="0"/>
        <pt x="551" y="143" on="1"/>
        <pt x="551" y="142" on="0"/>
        <pt x="546" y="122" on="0"/>
        <pt x="538" y="93" on="0"/>
        <pt x="527" y="60" on="0"/>
        <pt x="520" y="46" on="1"/>
        <pt x="517" y="40" on="0"/>
        <pt x="506" y="20" on="0"/>
        <pt x="488" y="2" on="0"/>
        <pt x="462" y="-11" on="0"/>
        <pt x="445" y="-11" on="1"/>
        <pt x="414" y="-11" on="0"/>
        <pt x="366" y="25" on="0"/>
        <pt x="358" y="58" on="1"/>
        <pt x="351" y="50" on="0"/>
        <pt x="328" y="27" on="0"/>
        <pt x="296" y="5" on="0"/>
        <pt x="258" y="-11" on="0"/>
        <pt x="235" y="-11" on="1"/>
        <pt x="210" y="-11" on="0"/>
        <pt x="165" y="9" on="0"/>
        <pt x="131" y="49" on="0"/>
        <pt x="110" y="108" on="0"/>
        <pt x="110" y="146" on="1"/>
        <pt x="110" y="203" on="0"/>
        <pt x="151" y="309" on="0"/>
        <pt x="218" y="392" on="0"/>
        <pt x="301" y="442" on="0"/>
        <pt x="343" y="442" on="1"/>
        <pt x="362" y="442" on="0"/>
        <pt x="391" y="430" on="0"/>
        <pt x="412" y="413" on="0"/>
        <pt x="425" y="394" on="0"/>
        <pt x="429" y="386" on="1"/>
        <pt x="486" y="613" on="1"/>
        <pt x="489" y="624" on="0"/>
        <pt x="490" y="630" on="0"/>
        <pt x="490" y="635" on="1"/>
        <pt x="490" y="638" on="0"/>
        <pt x="489" y="645" on="0"/>
        <pt x="480" y="649" on="0"/>
        <pt x="461" y="652" on="0"/>
        <pt x="443" y="652" on="1"/>
        <pt x="430" y="652" on="0"/>
        <pt x="416" y="655" on="0"/>
        <pt x="416" y="665" on="1"/>
        <pt x="416" y="678" on="0"/>
        <pt x="430" y="683" on="0"/>
        <pt x="441" y="684" on="1"/>
        <pt x="545" y="693" on="1"/>
        <pt x="558" y="695" on="0"/>
        <pt x="571" y="690" on="0"/>
        <pt x="571" y="680" on="1"/>
        <pt x="571" y="678" on="0"/>
        <pt x="569" y="672" on="0"/>
        <pt x="567" y="662" on="1"/>
      </contour>
      <contour>
        <pt x="410" y="310" on="1"/>
        <pt x="412" y="318" on="0"/>
        <pt x="413" y="322" on="0"/>
        <pt x="413" y="326" on="1"/>
        <pt x="413" y="329" on="0"/>
        <pt x="408" y="358" on="0"/>
        <pt x="393" y="391" on="0"/>
        <pt x="366" y="417" on="0"/>
        <pt x="343" y="417" on="1"/>
        <pt x="327" y="417" on="0"/>
        <pt x="293" y="399" on="0"/>
        <pt x="262" y="367" on="0"/>
        <pt x="235" y="326" on="0"/>
        <pt x="225" y="302" on="1"/>
        <pt x="219" y="288" on="0"/>
        <pt x="204" y="236" on="0"/>
        <pt x="190" y="178" on="0"/>
        <pt x="180" y="122" on="0"/>
        <pt x="180" y="103" on="1"/>
        <pt x="180" y="97" on="0"/>
        <pt x="183" y="68" on="0"/>
        <pt x="194" y="38" on="0"/>
        <pt x="217" y="14" on="0"/>
        <pt x="238" y="14" on="1"/>
        <pt x="258" y="14" on="0"/>
        <pt x="300" y="39" on="0"/>
        <pt x="336" y="74" on="0"/>
        <pt x="361" y="112" on="0"/>
        <pt x="364" y="125" on="1"/>
      </contour>
    </TTGlyph>
    <TTGlyph name="dieresis" xMin="273" yMin="568" xMax="561" yMax="670">
      <contour>
        <pt x="377" y="628" on="1"/>
        <pt x="377" y="604" on="0"/>
        <pt x="339" y="568" on="0"/>
        <pt x="316" y="568" on="1"/>
        <pt x="297" y="568" on="0"/>
        <pt x="273" y="591" on="0"/>
        <pt x="273" y="610" on="1"/>
        <pt x="273" y="634" on="0"/>
        <pt x="311" y="670" on="0"/>
        <pt x="334" y="670" on="1"/>
        <pt x="353" y="670" on="0"/>
        <pt x="377" y="647" on="0"/>
      </contour>
      <contour>
        <pt x="561" y="628" on="1"/>
        <pt x="561" y="607" on="0"/>
        <pt x="525" y="568" on="0"/>
        <pt x="499" y="568" on="1"/>
        <pt x="479" y="568" on="0"/>
        <pt x="456" y="593" on="0"/>
        <pt x="456" y="610" on="1"/>
        <pt x="456" y="631" on="0"/>
        <pt x="492" y="670" on="0"/>
        <pt x="518" y="670" on="1"/>
        <pt x="538" y="670" on="0"/>
        <pt x="561" y="644" on="0"/>
      </contour>
    </TTGlyph>
    <TTGlyph name="dotaccent" xMin="256" yMin="562" xMax="366" yMax="670">
      <contour>
        <pt x="366" y="626" on="1"/>
        <pt x="366" y="613" on="0"/>
        <pt x="354" y="589" on="0"/>
        <pt x="336" y="572" on="0"/>
        <pt x="313" y="562" on="0"/>
        <pt x="301" y="562" on="1"/>
        <pt x="284" y="562" on="0"/>
        <pt x="256" y="585" on="0"/>
        <pt x="256" y="606" on="1"/>
        <pt x="256" y="620" on="0"/>
        <pt x="268" y="643" on="0"/>
        <pt x="286" y="660" on="0"/>
        <pt x="309" y="670" on="0"/>
        <pt x="321" y="670" on="1"/>
        <pt x="338" y="670" on="0"/>
        <pt x="366" y="647" on="0"/>
      </contour>
    </TTGlyph>
    <TTGlyph name="dotlessi" xMin="81" yMin="-11" xMax="341" yMax="442">
      <contour>
        <pt x="341" y="143" on="1"/>
        <pt x="341" y="140" on="0"/>
        <pt x="326" y="92" on="0"/>
        <pt x="295" y="35" on="0"/>
        <pt x="245" y="-11" on="0"/>
        <pt x="209" y="-11" on="1"/>
        <pt x="178" y="-11" on="0"/>
        <pt x="130" y="30" on="0"/>
        <pt x="130" y="71" on="1"/>
        <pt x="130" y="86" on="0"/>
        <pt x="141" y="120" on="0"/>
        <pt x="147" y="136" on="1"/>
        <pt x="148" y="139" on="0"/>
        <pt x="155" y="157" on="0"/>
        <pt x="162" y="178" on="0"/>
        <pt x="170" y="198" on="0"/>
        <pt x="172" y="205" on="1"/>
        <pt x="207" y="298" on="1"/>
        <pt x="220" y="333" on="0"/>
        <pt x="231" y="371" on="0"/>
        <pt x="231" y="389" on="1"/>
        <pt x="231" y="409" on="0"/>
        <pt x="218" y="417" on="0"/>
        <pt x="210" y="417" on="1"/>
        <pt x="188" y="417" on="0"/>
        <pt x="155" y="386" on="0"/>
        <pt x="133" y="344" on="0"/>
        <pt x="120" y="303" on="0"/>
        <pt x="117" y="293" on="1"/>
        <pt x="114" y="284" on="0"/>
        <pt x="109" y="276" on="0"/>
        <pt x="98" y="276" on="1"/>
        <pt x="94" y="276" on="0"/>
        <pt x="81" y="279" on="0"/>
        <pt x="81" y="288" on="1"/>
        <pt x="81" y="290" on="0"/>
        <pt x="87" y="315" on="0"/>
        <pt x="101" y="349" on="0"/>
        <pt x="122" y="388" on="0"/>
        <pt x="151" y="420" on="0"/>
        <pt x="189" y="442" on="0"/>
        <pt x="213" y="442" on="1"/>
        <pt x="247" y="442" on="0"/>
        <pt x="292" y="397" on="0"/>
        <pt x="292" y="360" on="1"/>
        <pt x="292" y="346" on="0"/>
        <pt x="279" y="305" on="0"/>
        <pt x="272" y="288" on="1"/>
        <pt x="238" y="194" on="1"/>
        <pt x="232" y="178" on="0"/>
        <pt x="224" y="159" on="0"/>
        <pt x="218" y="144" on="0"/>
        <pt x="212" y="127" on="0"/>
        <pt x="207" y="113" on="1"/>
        <pt x="190" y="65" on="0"/>
        <pt x="190" y="42" on="1"/>
        <pt x="190" y="22" on="0"/>
        <pt x="205" y="14" on="0"/>
        <pt x="211" y="14" on="1"/>
        <pt x="231" y="14" on="0"/>
        <pt x="262" y="40" on="0"/>
        <pt x="285" y="78" on="0"/>
        <pt x="299" y="118" on="0"/>
        <pt x="303" y="131" on="1"/>
        <pt x="308" y="147" on="0"/>
        <pt x="313" y="155" on="0"/>
        <pt x="324" y="155" on="1"/>
        <pt x="327" y="155" on="0"/>
        <pt x="341" y="152" on="0"/>
      </contour>
    </TTGlyph>
    <TTGlyph name="e" xMin="116" yMin="-11" xMax="482" yMax="442">
      <contour>
        <pt x="203" y="229" on="1"/>
        <pt x="191" y="181" on="0"/>
        <pt x="187" y="131" on="0"/>
        <pt x="187" y="125" on="1"/>
        <pt x="187" y="112" on="0"/>
        <pt x="192" y="74" on="0"/>
        <pt x="209" y="39" on="0"/>
        <pt x="240" y="14" on="0"/>
        <pt x="265" y="14" on="1"/>
        <pt x="282" y="14" on="0"/>
        <pt x="328" y="23" on="0"/>
        <pt x="378" y="45" on="0"/>
        <pt x="428" y="82" on="0"/>
        <pt x="449" y="109" on="1"/>
        <pt x="454" y="116" on="0"/>
        <pt x="459" y="120" on="0"/>
        <pt x="463" y="120" on="1"/>
        <pt x="468" y="120" on="0"/>
        <pt x="479" y="111" on="0"/>
        <pt x="482" y="101" on="1"/>
        <pt x="468" y="78" on="0"/>
        <pt x="422" y="37" on="0"/>
        <pt x="365" y="7" on="0"/>
        <pt x="299" y="-11" on="0"/>
        <pt x="264" y="-11" on="1"/>
        <pt x="200" y="-11" on="0"/>
        <pt x="116" y="82" on="0"/>
        <pt x="116" y="167" on="1"/>
        <pt x="116" y="235" on="0"/>
        <pt x="166" y="338" on="0"/>
        <pt x="241" y="407" on="0"/>
        <pt x="330" y="442" on="0"/>
        <pt x="368" y="442" on="1"/>
        <pt x="419" y="442" on="0"/>
        <pt x="474" y="390" on="0"/>
        <pt x="474" y="356" on="1"/>
        <pt x="474" y="348" on="0"/>
        <pt x="469" y="321" on="0"/>
        <pt x="453" y="291" on="0"/>
        <pt x="421" y="262" on="0"/>
        <pt x="395" y="251" on="1"/>
        <pt x="368" y="240" on="0"/>
        <pt x="289" y="229" on="0"/>
        <pt x="232" y="229" on="1"/>
      </contour>
      <contour>
        <pt x="209" y="254" on="1"/>
        <pt x="225" y="254" on="0"/>
        <pt x="271" y="255" on="0"/>
        <pt x="321" y="261" on="0"/>
        <pt x="370" y="273" on="0"/>
        <pt x="409" y="296" on="0"/>
        <pt x="433" y="331" on="0"/>
        <pt x="433" y="357" on="1"/>
        <pt x="433" y="380" on="0"/>
        <pt x="401" y="417" on="0"/>
        <pt x="368" y="417" on="1"/>
        <pt x="363" y="417" on="0"/>
        <pt x="325" y="411" on="0"/>
        <pt x="276" y="380" on="0"/>
        <pt x="226" y="314" on="0"/>
      </contour>
    </TTGlyph>
    <TTGlyph name="eight" xMin="98" yMin="-22" xMax="565" yMax="666">
      <contour>
        <pt x="405" y="359" on="1"/>
        <pt x="429" y="338" on="0"/>
        <pt x="456" y="316" on="0"/>
        <pt x="469" y="304" on="0"/>
        <pt x="474" y="299" on="0"/>
        <pt x="476" y="296" on="1"/>
        <pt x="483" y="286" on="0"/>
        <pt x="506" y="241" on="0"/>
        <pt x="506" y="206" on="1"/>
        <pt x="506" y="163" on="0"/>
        <pt x="465" y="81" on="0"/>
        <pt x="396" y="17" on="0"/>
        <pt x="307" y="-22" on="0"/>
        <pt x="259" y="-22" on="1"/>
        <pt x="225" y="-22" on="0"/>
        <pt x="166" y="-2" on="0"/>
        <pt x="123" y="34" on="0"/>
        <pt x="98" y="85" on="0"/>
        <pt x="98" y="116" on="1"/>
        <pt x="98" y="134" on="0"/>
        <pt x="112" y="188" on="0"/>
        <pt x="153" y="249" on="0"/>
        <pt x="229" y="312" on="0"/>
        <pt x="290" y="339" on="1"/>
        <pt x="271" y="356" on="0"/>
        <pt x="242" y="382" on="0"/>
        <pt x="222" y="409" on="0"/>
        <pt x="213" y="442" on="0"/>
        <pt x="213" y="465" on="1"/>
        <pt x="213" y="504" on="0"/>
        <pt x="249" y="577" on="0"/>
        <pt x="309" y="633" on="0"/>
        <pt x="386" y="666" on="0"/>
        <pt x="426" y="666" on="1"/>
        <pt x="455" y="666" on="0"/>
        <pt x="506" y="649" on="0"/>
        <pt x="544" y="617" on="0"/>
        <pt x="565" y="574" on="0"/>
        <pt x="565" y="547" on="1"/>
        <pt x="565" y="516" on="0"/>
        <pt x="539" y="460" on="0"/>
        <pt x="494" y="412" on="0"/>
        <pt x="437" y="373" on="0"/>
      </contour>
      <contour>
        <pt x="383" y="377" on="1"/>
        <pt x="410" y="391" on="0"/>
        <pt x="459" y="428" on="0"/>
        <pt x="496" y="472" on="0"/>
        <pt x="517" y="523" on="0"/>
        <pt x="517" y="550" on="1"/>
        <pt x="517" y="595" on="0"/>
        <pt x="463" y="641" on="0"/>
        <pt x="424" y="641" on="1"/>
        <pt x="396" y="641" on="0"/>
        <pt x="341" y="619" on="0"/>
        <pt x="297" y="582" on="0"/>
        <pt x="270" y="534" on="0"/>
        <pt x="270" y="507" on="1"/>
        <pt x="270" y="484" on="0"/>
        <pt x="288" y="456" on="0"/>
        <pt x="299" y="446" on="1"/>
      </contour>
      <contour>
        <pt x="261" y="6" on="1"/>
        <pt x="295" y="6" on="0"/>
        <pt x="361" y="33" on="0"/>
        <pt x="412" y="78" on="0"/>
        <pt x="443" y="137" on="0"/>
        <pt x="443" y="168" on="1"/>
        <pt x="443" y="185" on="0"/>
        <pt x="436" y="210" on="0"/>
        <pt x="418" y="233" on="0"/>
        <pt x="388" y="259" on="0"/>
        <pt x="365" y="278" on="1"/>
        <pt x="358" y="284" on="0"/>
        <pt x="341" y="298" on="0"/>
        <pt x="325" y="310" on="0"/>
        <pt x="313" y="319" on="0"/>
        <pt x="312" y="319" on="1"/>
        <pt x="307" y="319" on="0"/>
        <pt x="255" y="289" on="0"/>
        <pt x="198" y="235" on="0"/>
        <pt x="152" y="159" on="0"/>
        <pt x="152" y="113" on="1"/>
        <pt x="152" y="64" on="0"/>
        <pt x="213" y="6" on="0"/>
      </contour>
    </TTGlyph>
    <TTGlyph name="emdash" xMin="119" yMin="254" xMax="1062" yMax="279">
      <contour>
        <pt x="146" y="254" on="1"/>
        <pt x="135" y="254" on="0"/>
        <pt x="119" y="257" on="0"/>
        <pt x="119" y="266" on="1"/>
        <pt x="119" y="276" on="0"/>
        <pt x="134" y="279" on="0"/>
        <pt x="146" y="279" on="1"/>
        <pt x="1036" y="279" on="1"/>
        <pt x="1048" y="279" on="0"/>
        <pt x="1062" y="276" on="0"/>
        <pt x="1062" y="266" on="1"/>
        <pt x="1062" y="257" on="0"/>
        <pt x="1047" y="254" on="0"/>
        <pt x="1036" y="254" on="1"/>
      </contour>
    </TTGlyph>
    <TTGlyph name="endash" xMin="93" yMin="254" xMax="564" yMax="279">
      <contour>
        <pt x="120" y="254" on="1"/>
        <pt x="109" y="254" on="0"/>
        <pt x="93" y="257" on="0"/>
        <pt x="93" y="266" on="1"/>
        <pt x="93" y="276" on="0"/>
        <pt x="108" y="279" on="0"/>
        <pt x="120" y="279" on="1"/>
        <pt x="538" y="279" on="1"/>
        <pt x="550" y="279" on="0"/>
        <pt x="564" y="276" on="0"/>
        <pt x="564" y="266" on="1"/>
        <pt x="564" y="257" on="0"/>
        <pt x="549" y="254" on="0"/>
        <pt x="538" y="254" on="1"/>
      </contour>
    </TTGlyph>
    <TTGlyph name="equal" xMin="115" yMin="127" xMax="796" yMax="374">
      <contour>
        <pt x="199" y="331" on="1"/>
        <pt x="189" y="331" on="0"/>
        <pt x="166" y="336" on="0"/>
        <pt x="166" y="352" on="1"/>
        <pt x="166" y="369" on="0"/>
        <pt x="192" y="374" on="0"/>
        <pt x="203" y="374" on="1"/>
        <pt x="759" y="374" on="1"/>
        <pt x="770" y="374" on="0"/>
        <pt x="796" y="369" on="0"/>
        <pt x="796" y="352" on="1"/>
        <pt x="796" y="336" on="0"/>
        <pt x="774" y="331" on="0"/>
        <pt x="763" y="331" on="1"/>
      </contour>
      <contour>
        <pt x="153" y="127" on="1"/>
        <pt x="142" y="127" on="0"/>
        <pt x="115" y="132" on="0"/>
        <pt x="115" y="149" on="1"/>
        <pt x="115" y="165" on="0"/>
        <pt x="138" y="170" on="0"/>
        <pt x="148" y="170" on="1"/>
        <pt x="712" y="170" on="1"/>
        <pt x="723" y="170" on="0"/>
        <pt x="745" y="165" on="0"/>
        <pt x="745" y="149" on="1"/>
        <pt x="745" y="132" on="0"/>
        <pt x="720" y="127" on="0"/>
        <pt x="708" y="127" on="1"/>
      </contour>
    </TTGlyph>
    <TTGlyph name="exclam" xMin="115" yMin="0" xMax="379" yMax="716">
      <contour>
        <pt x="227" y="206" on="1"/>
        <pt x="222" y="193" on="0"/>
        <pt x="215" y="189" on="0"/>
        <pt x="207" y="189" on="1"/>
        <pt x="202" y="189" on="0"/>
        <pt x="190" y="192" on="0"/>
        <pt x="190" y="201" on="1"/>
        <pt x="190" y="202" on="0"/>
        <pt x="190" y="206" on="0"/>
        <pt x="192" y="214" on="1"/>
        <pt x="267" y="656" on="1"/>
        <pt x="270" y="676" on="0"/>
        <pt x="289" y="700" on="0"/>
        <pt x="310" y="712" on="0"/>
        <pt x="329" y="716" on="0"/>
        <pt x="333" y="716" on="1"/>
        <pt x="356" y="716" on="0"/>
        <pt x="379" y="688" on="0"/>
        <pt x="379" y="674" on="1"/>
        <pt x="379" y="666" on="0"/>
        <pt x="374" y="653" on="1"/>
      </contour>
      <contour>
        <pt x="226" y="64" on="1"/>
        <pt x="226" y="52" on="0"/>
        <pt x="215" y="29" on="0"/>
        <pt x="197" y="11" on="0"/>
        <pt x="173" y="0" on="0"/>
        <pt x="161" y="0" on="1"/>
        <pt x="138" y="0" on="0"/>
        <pt x="115" y="27" on="0"/>
        <pt x="115" y="44" on="1"/>
        <pt x="115" y="56" on="0"/>
        <pt x="126" y="79" on="0"/>
        <pt x="144" y="97" on="0"/>
        <pt x="168" y="108" on="0"/>
        <pt x="180" y="108" on="1"/>
        <pt x="203" y="108" on="0"/>
        <pt x="226" y="81" on="0"/>
      </contour>
    </TTGlyph>
    <TTGlyph name="exclamdown" xMin="60" yMin="-216" xMax="324" yMax="500">
      <contour>
        <pt x="324" y="456" on="1"/>
        <pt x="324" y="444" on="0"/>
        <pt x="313" y="421" on="0"/>
        <pt x="295" y="403" on="0"/>
        <pt x="271" y="392" on="0"/>
        <pt x="259" y="392" on="1"/>
        <pt x="236" y="392" on="0"/>
        <pt x="213" y="419" on="0"/>
        <pt x="213" y="436" on="1"/>
        <pt x="213" y="448" on="0"/>
        <pt x="224" y="471" on="0"/>
        <pt x="242" y="489" on="0"/>
        <pt x="266" y="500" on="0"/>
        <pt x="278" y="500" on="1"/>
        <pt x="301" y="500" on="0"/>
        <pt x="324" y="473" on="0"/>
      </contour>
      <contour>
        <pt x="212" y="294" on="1"/>
        <pt x="217" y="307" on="0"/>
        <pt x="224" y="311" on="0"/>
        <pt x="232" y="311" on="1"/>
        <pt x="237" y="311" on="0"/>
        <pt x="249" y="308" on="0"/>
        <pt x="249" y="299" on="1"/>
        <pt x="249" y="298" on="0"/>
        <pt x="249" y="294" on="0"/>
        <pt x="247" y="286" on="1"/>
        <pt x="172" y="-156" on="1"/>
        <pt x="169" y="-176" on="0"/>
        <pt x="150" y="-200" on="0"/>
        <pt x="129" y="-212" on="0"/>
        <pt x="110" y="-216" on="0"/>
        <pt x="106" y="-216" on="1"/>
        <pt x="83" y="-216" on="0"/>
        <pt x="60" y="-188" on="0"/>
        <pt x="60" y="-174" on="1"/>
        <pt x="60" y="-166" on="0"/>
        <pt x="65" y="-153" on="1"/>
      </contour>
    </TTGlyph>
</ttFont>
